<?xml version="1.0" encoding="utf-8"?>
<!-- Generator: Adobe Illustrator 22.0.0, SVG Export Plug-In . SVG Version: 6.00 Build 0)  -->
<svg version="1.1" id="圖層_1" xmlns="http://www.w3.org/2000/svg" xmlns:xlink="http://www.w3.org/1999/xlink" x="0px" y="0px"
	 viewBox="0 0 120 120" style="enable-background:new 0 0 120 120;" xml:space="preserve">
<style type="text/css">
	.st0{fill:#F6F6EE;}
</style>
<path class="st0" d="M89.7,45.5L60.5,63.6L31.3,45.5v-7.3l29.2,18.1l29.2-18.1 M89.7,31H31.3c-4.1,0-7.3,3.2-7.3,7.3v43.5
	c0,1.9,0.8,3.8,2.1,5.1c1.4,1.4,3.2,2.1,5.2,2.1h58.4c1.9,0,3.8-0.8,5.2-2.1c1.4-1.4,2.1-3.2,2.1-5.1V38.3c0-1.9-0.8-3.8-2.1-5.1
	C93.5,31.8,91.6,31,89.7,31z"/>
</svg>
