<?xml version="1.0" encoding="utf-8"?>
<!-- Generator: Adobe Illustrator 22.0.0, SVG Export Plug-In . SVG Version: 6.00 Build 0)  -->
<svg version="1.1" id="圖層_1" xmlns="http://www.w3.org/2000/svg" xmlns:xlink="http://www.w3.org/1999/xlink" x="0px" y="0px"
	 viewBox="0 0 120 120" style="enable-background:new 0 0 120 120;" xml:space="preserve">
<style type="text/css">
	.st0{fill:#F6F6EE;}
</style>
<path class="st0" d="M80.7,52.9c0.7,0.7,0.7,1.7,0,2.4c-1.7,1.7-2.8,4.1-3,6.5c-0.2,2.5,0.5,4.9,2,6.9c0.5,0.7,0.4,1.6-0.2,2.2
	c-0.8,0.8-1.9,0.6-2.6-0.2c-1.8-2.4-2.7-5.3-2.7-8.3c0-3,1-5.9,2.9-8.3l-26.1-26c-1.7-1.7-4.4-1.7-6.1,0c-1.7,1.7-1.7,4.4,0,6
	l17.5,17.5c0.7,0.7,0.7,1.7,0,2.4c-0.7,0.7-1.7,0.7-2.4,0L37.8,31.8c-1.7-1.7-4.4-1.7-6.1,0c-1.7,1.7-1.7,4.4,0,6l22.4,22.3
	c0.7,0.7,0.7,1.7,0,2.4c-0.7,0.7-1.7,0.7-2.4,0L32.9,43.9c-1.7-1.7-4.4-1.7-6.1,0c-1.7,1.7-1.7,4.4,0,6L48,71.1
	c0.7,0.7,0.7,1.7,0,2.4c-0.7,0.7-1.7,0.7-2.4,0L31.7,59.6c-0.4-0.4-0.9-0.7-1.4-0.9c-0.5-0.2-1.1-0.3-1.6-0.3
	c-0.6,0-1.1,0.1-1.6,0.3c-0.5,0.2-1,0.5-1.4,0.9c-1.7,1.7-1.7,4.4,0,6l24.2,24.1c11,11,28.9,11,39.9,0c11-11,11-28.8,0-39.8L74,34.2
	c-0.4-0.4-0.9-0.7-1.4-0.9C72.1,33.1,71.5,33,71,33c-0.6,0-1.1,0.1-1.6,0.3c-0.5,0.2-1,0.5-1.4,0.9c-1.7,1.7-1.7,4.4,0,6L80.7,52.9z
	 M77.6,25.6c0-1.4,1.2-2.6,2.6-2.6c0.1,0,0.2,0,0.4,0c9,1.3,16.1,8.4,17.4,17.3c0,0.1,0,0.2,0,0.4c0,1.4-1.2,2.6-2.6,2.6
	c-1.3,0-2.4-1-2.5-2.2c-0.5-3.3-2-6.3-4.3-8.7c-2.3-2.3-5.4-3.9-8.7-4.3C78.5,27.9,77.6,26.9,77.6,25.6z M43.4,95.2
	c0,1.4-1.2,2.6-2.6,2.6c-0.1,0-0.2,0-0.4,0c-9-1.3-16.1-8.4-17.4-17.3c0-0.1,0-0.2,0-0.4c0-1.4,1.2-2.6,2.6-2.6c1.3,0,2.4,1,2.5,2.2
	c0.5,3.3,2,6.3,4.3,8.7c2.3,2.3,5.4,3.9,8.7,4.3C42.4,92.8,43.4,93.9,43.4,95.2z"/>
</svg>
