<svg width="250" height="250" viewBox="0 0 250 250" fill="none" xmlns="http://www.w3.org/2000/svg">
<circle cx="125" cy="125" r="125" fill="#E5E5E5"/>
<g clip-path="url(#clip0_437_7)">
<path d="M135.145 149.513L78.6634 52.1895L81.588 42.8945L69.7068 40.1607C64.9543 37.7914 58.9223 39.2494 55.8149 44.3525L6.4623 189.245C3.35491 194.53 5.54836 201.091 10.4836 203.643C11.9459 204.372 13.591 204.918 15.4189 204.918L29.6763 208.564L32.7837 198.722L126.005 165.005C134.048 165.187 139.166 156.439 135.145 149.513Z" fill="#F2DBC1"/>
<path d="M70.0723 47.8153L20.5369 192.89C16.5156 199.815 21.6336 208.564 29.6763 208.564L140.08 168.65C148.123 168.65 153.241 159.902 149.219 152.976L88.351 47.8153C84.1469 40.8897 74.0936 40.8897 70.0723 47.8153Z" fill="#E0A565"/>
<path d="M130.209 229.887C129.478 229.887 128.564 229.705 127.833 229.523L33.332 204.007C28.3968 202.732 25.655 197.628 26.9345 192.89C28.214 187.969 33.332 185.235 38.0845 186.511L132.586 212.027C137.521 213.302 140.263 218.405 138.983 223.144C137.886 227.336 134.231 229.887 130.209 229.887Z" fill="#F2DBC1"/>
<path d="M113.576 175.029C159.004 175.029 195.83 138.31 195.83 93.0144C195.83 47.7191 159.004 11 113.576 11C68.148 11 31.3214 47.7191 31.3214 93.0144C31.3214 138.31 68.148 175.029 113.576 175.029Z" fill="#22A39F"/>
<path d="M229.463 179.768L173.165 82.4438L176.089 73.1489L164.208 70.4151C159.455 68.0458 153.423 69.5038 150.316 74.6069L100.781 219.681C97.6733 224.967 99.8667 231.528 104.802 234.079C106.264 234.808 107.909 235.355 109.737 235.355L123.995 239L127.102 229.158L220.324 195.441C228.549 195.624 233.484 186.876 229.463 179.768Z" fill="#E0A565"/>
<path d="M164.574 78.2518L115.038 223.326C111.017 230.252 116.135 239 124.177 239L234.581 199.086C242.624 199.086 247.742 190.338 243.721 183.412L182.669 78.2518C178.648 71.1439 168.595 71.1439 164.574 78.2518Z" fill="#F2DBC1"/>
</g>
<defs>
<clipPath id="clip0_437_7">
<rect width="240" height="228" fill="white" transform="translate(5 11)"/>
</clipPath>
</defs>
</svg>
