<svg width="250" height="250" viewBox="0 0 250 250" fill="none" xmlns="http://www.w3.org/2000/svg">
<circle cx="125" cy="125" r="125" fill="#E5E5E5"/>
<path d="M188.787 133.795C216.897 133.795 239.684 111.007 239.684 82.8973C239.684 54.7875 216.897 32 188.787 32C160.677 32 137.89 54.7875 137.89 82.8973C137.89 111.007 160.677 133.795 188.787 133.795Z" fill="#F8EDE0"/>
<mask id="mask0_437_3" style="mask-type:luminance" maskUnits="userSpaceOnUse" x="137" y="32" width="103" height="102">
<path d="M188.787 133.795C216.897 133.795 239.684 111.007 239.684 82.8973C239.684 54.7875 216.897 32 188.787 32C160.677 32 137.89 54.7875 137.89 82.8973C137.89 111.007 160.677 133.795 188.787 133.795Z" fill="white"/>
</mask>
<g mask="url(#mask0_437_3)">
<path d="M246.77 224.745C216.694 224.745 192.257 200.309 192.257 170.233C192.257 140.157 216.694 115.721 246.77 115.721C276.845 115.721 301.282 140.157 301.282 170.233C301.282 200.309 276.701 224.745 246.77 224.745ZM246.77 122.95C220.743 122.95 199.487 144.206 199.487 170.233C199.487 196.26 220.743 217.515 246.77 217.515C272.797 217.515 294.052 196.26 294.052 170.233C294.052 144.206 272.797 122.95 246.77 122.95Z" fill="#ECC9A2"/>
<path d="M246.77 270.437C191.534 270.437 146.566 225.468 146.566 170.233C146.566 114.998 191.534 70.0288 246.77 70.0288C302.005 70.0288 346.974 114.998 346.974 170.233C346.974 225.468 302.005 270.437 246.77 270.437ZM246.77 77.2585C195.439 77.2585 153.795 119.046 153.795 170.233C153.795 221.419 195.583 263.207 246.77 263.207C298.101 263.207 339.744 221.419 339.744 170.233C339.744 119.046 297.956 77.2585 246.77 77.2585Z" fill="#ECC9A2"/>
<path d="M246.77 255.255C199.921 255.255 161.748 217.082 161.748 170.233C161.748 123.384 199.921 85.2114 246.77 85.2114C293.618 85.2114 331.791 123.384 331.791 170.233C331.791 217.082 293.618 255.255 246.77 255.255ZM246.77 92.4412C203.825 92.4412 168.978 127.288 168.978 170.233C168.978 213.178 203.825 248.025 246.77 248.025C289.714 248.025 324.561 213.178 324.561 170.233C324.561 127.288 289.57 92.4412 246.77 92.4412Z" fill="#ECC9A2"/>
<path d="M246.769 239.927C208.307 239.927 177.075 208.695 177.075 170.233C177.075 131.771 208.307 100.538 246.769 100.538C285.232 100.538 316.464 131.771 316.464 170.233C316.464 208.695 285.232 239.927 246.769 239.927ZM246.769 107.768C212.356 107.768 184.305 135.819 184.305 170.233C184.305 204.646 212.356 232.697 246.769 232.697C281.183 232.697 309.234 204.646 309.234 170.233C309.234 135.819 281.183 107.768 246.769 107.768Z" fill="#ECC9A2"/>
</g>
<mask id="mask1_437_3" style="mask-type:luminance" maskUnits="userSpaceOnUse" x="137" y="32" width="103" height="102">
<path d="M188.787 133.795C216.897 133.795 239.684 111.007 239.684 82.8973C239.684 54.7875 216.897 32 188.787 32C160.677 32 137.89 54.7875 137.89 82.8973C137.89 111.007 160.677 133.795 188.787 133.795Z" fill="white"/>
</mask>
<g mask="url(#mask1_437_3)">
<path d="M175.774 77.6917C120.539 77.6917 75.5696 32.7228 75.5696 -22.5123C75.5696 -77.7474 120.539 -122.716 175.774 -122.716C231.009 -122.716 275.978 -77.7474 275.978 -22.5123C275.978 32.7228 231.009 77.6917 175.774 77.6917ZM175.774 -115.487C124.443 -115.487 82.7994 -73.6988 82.7994 -22.5123C82.7994 28.8187 124.587 70.462 175.774 70.462C227.105 70.462 268.748 28.6741 268.748 -22.5123C268.748 -73.8434 226.96 -115.487 175.774 -115.487Z" fill="#ECC9A2"/>
<path d="M175.774 62.509C128.925 62.509 90.7521 24.336 90.7521 -22.5126C90.7521 -69.3612 128.925 -107.534 175.774 -107.534C222.622 -107.534 260.795 -69.3612 260.795 -22.5126C260.651 24.336 222.622 62.509 175.774 62.509ZM175.774 -100.304C132.829 -100.304 97.9818 -65.4572 97.9818 -22.5126C97.9818 20.432 132.829 55.2793 175.774 55.2793C218.718 55.2793 253.565 20.432 253.565 -22.5126C253.421 -65.4572 218.574 -100.304 175.774 -100.304Z" fill="#ECC9A2"/>
<path d="M175.774 47.1826C137.312 47.1826 106.079 15.9502 106.079 -22.512C106.079 -60.9741 137.312 -92.2065 175.774 -92.2065C214.236 -92.2065 245.468 -60.9741 245.468 -22.512C245.468 15.9502 214.091 47.1826 175.774 47.1826ZM175.774 -84.9768C141.36 -84.9768 113.309 -56.9255 113.309 -22.512C113.309 11.9015 141.36 39.9528 175.774 39.9528C210.187 39.9528 238.238 11.9015 238.238 -22.512C238.238 -57.0701 210.187 -84.9768 175.774 -84.9768Z" fill="#ECC9A2"/>
</g>
<mask id="mask2_437_3" style="mask-type:luminance" maskUnits="userSpaceOnUse" x="137" y="32" width="103" height="102">
<path d="M188.787 133.795C216.897 133.795 239.684 111.007 239.684 82.8973C239.684 54.7875 216.897 32 188.787 32C160.677 32 137.89 54.7875 137.89 82.8973C137.89 111.007 160.677 133.795 188.787 133.795Z" fill="white"/>
</mask>
<g mask="url(#mask2_437_3)">
<path d="M59.5197 230.673C4.28457 230.673 -40.6843 185.704 -40.6843 130.469C-40.6843 75.2335 4.28457 30.2646 59.5197 30.2646C114.755 30.2646 159.724 75.2335 159.724 130.469C159.724 185.704 114.755 230.673 59.5197 230.673ZM59.5197 37.4944C8.18862 37.4944 -33.4546 79.2822 -33.4546 130.469C-33.4546 181.655 8.33321 223.443 59.5197 223.443C110.706 223.443 152.494 181.655 152.494 130.469C152.494 79.2822 110.706 37.4944 59.5197 37.4944Z" fill="#ECC9A2"/>
<path d="M59.5198 215.49C12.6712 215.49 -25.5018 177.317 -25.5018 130.469C-25.5018 83.6202 12.6712 45.4473 59.5198 45.4473C106.368 45.4473 144.541 83.6202 144.541 130.469C144.541 177.317 106.368 215.49 59.5198 215.49ZM59.5198 52.677C16.5752 52.677 -18.272 87.5243 -18.272 130.469C-18.272 173.413 16.5752 208.261 59.5198 208.261C102.464 208.261 137.312 173.413 137.312 130.469C137.312 87.5243 102.32 52.677 59.5198 52.677Z" fill="#ECC9A2"/>
</g>
<path d="M95.5235 183.246C136.251 183.246 169.267 150.23 169.267 109.503C169.267 68.7757 136.251 35.7598 95.5235 35.7598C54.7963 35.7598 21.7803 68.7757 21.7803 109.503C21.7803 150.23 54.7963 183.246 95.5235 183.246Z" fill="#92D1D0"/>
<mask id="mask3_437_3" style="mask-type:luminance" maskUnits="userSpaceOnUse" x="21" y="35" width="149" height="149">
<path d="M95.5235 183.246C136.251 183.246 169.267 150.23 169.267 109.503C169.267 68.7757 136.251 35.7598 95.5235 35.7598C54.7963 35.7598 21.7803 68.7757 21.7803 109.503C21.7803 150.23 54.7963 183.246 95.5235 183.246Z" fill="white"/>
</mask>
<g mask="url(#mask3_437_3)">
<path d="M179.677 313.525C137.022 313.525 102.319 278.823 102.319 236.167C102.319 193.512 137.022 158.809 179.677 158.809C222.333 158.809 257.036 193.512 257.036 236.167C257.036 278.823 222.333 313.525 179.677 313.525ZM179.677 166.039C141.071 166.039 109.549 197.56 109.549 236.167C109.549 274.774 141.071 306.296 179.677 306.296C218.284 306.296 249.806 274.774 249.806 236.167C249.806 197.56 218.284 166.039 179.677 166.039Z" fill="#22A39F"/>
<path d="M179.677 379.894C100.44 379.894 35.9505 315.405 35.9505 236.167C35.9505 156.93 100.44 92.4404 179.677 92.4404C258.915 92.4404 323.404 156.93 323.404 236.167C323.404 315.405 258.915 379.894 179.677 379.894ZM179.677 99.6702C104.344 99.6702 43.1802 160.834 43.1802 236.167C43.1802 311.501 104.344 372.665 179.677 372.665C255.011 372.665 316.175 311.501 316.175 236.167C316.175 160.834 254.867 99.6702 179.677 99.6702Z" fill="#22A39F"/>
<path d="M179.678 357.771C112.586 357.771 58.0736 303.259 58.0736 236.167C58.0736 169.075 112.586 114.563 179.678 114.563C246.769 114.563 301.282 169.075 301.282 236.167C301.282 303.259 246.625 357.771 179.678 357.771ZM179.678 121.793C116.634 121.793 65.3033 173.124 65.3033 236.167C65.3033 299.21 116.634 350.541 179.678 350.541C242.721 350.541 294.052 299.21 294.052 236.167C294.052 173.124 242.721 121.793 179.678 121.793Z" fill="#22A39F"/>
<path d="M179.677 335.649C124.876 335.649 80.1965 290.969 80.1965 236.168C80.1965 181.366 124.876 136.687 179.677 136.687C234.479 136.687 279.159 181.366 279.159 236.168C279.159 290.969 234.479 335.649 179.677 335.649ZM179.677 143.916C128.78 143.916 87.4262 185.27 87.4262 236.168C87.4262 287.065 128.78 328.419 179.677 328.419C230.575 328.419 271.929 287.065 271.929 236.168C271.929 185.27 230.43 143.916 179.677 143.916Z" fill="#22A39F"/>
</g>
<mask id="mask4_437_3" style="mask-type:luminance" maskUnits="userSpaceOnUse" x="21" y="35" width="149" height="149">
<path d="M95.5235 183.246C136.251 183.246 169.267 150.23 169.267 109.503C169.267 68.7757 136.251 35.7598 95.5235 35.7598C54.7963 35.7598 21.7803 68.7757 21.7803 109.503C21.7803 150.23 54.7963 183.246 95.5235 183.246Z" fill="white"/>
</mask>
<g mask="url(#mask4_437_3)">
<path d="M76.7263 100.393C-2.5115 100.393 -67.0007 35.9042 -67.0007 -43.3336C-67.0007 -122.571 -2.6561 -187.061 76.7263 -187.061C156.109 -187.061 220.453 -122.571 220.453 -43.3336C220.453 35.9042 155.964 100.393 76.7263 100.393ZM76.7263 -179.831C1.39255 -179.831 -59.7709 -118.667 -59.7709 -43.3336C-59.7709 32.0001 1.39255 93.1636 76.7263 93.1636C152.06 93.1636 213.224 32.0001 213.224 -43.3336C213.224 -118.667 151.915 -179.831 76.7263 -179.831Z" fill="#22A39F"/>
<path d="M76.7262 78.2705C9.63439 78.2705 -44.8777 23.7583 -44.8777 -43.3335C-44.8777 -110.425 9.63439 -164.938 76.7262 -164.938C143.818 -164.938 198.33 -110.425 198.33 -43.3335C198.33 23.7583 143.673 78.2705 76.7262 78.2705ZM76.7262 -157.708C13.683 -157.708 -37.648 -106.377 -37.648 -43.3335C-37.648 19.7097 13.683 71.0407 76.7262 71.0407C139.769 71.0407 191.1 19.7097 191.1 -43.3335C191.1 -106.377 139.769 -157.708 76.7262 -157.708Z" fill="#22A39F"/>
<path d="M76.7263 56.1476C21.9249 56.1476 -22.7548 11.4679 -22.7548 -43.3334C-22.7548 -98.1347 21.9249 -142.814 76.7263 -142.814C131.528 -142.814 176.207 -98.1347 176.207 -43.3334C176.207 11.4679 131.528 56.1476 76.7263 56.1476ZM76.7263 -135.585C25.829 -135.585 -15.525 -94.2307 -15.525 -43.3334C-15.525 7.56385 25.829 48.9179 76.7263 48.9179C127.624 48.9179 168.978 7.56385 168.978 -43.3334C168.978 -94.2307 127.479 -135.585 76.7263 -135.585Z" fill="#22A39F"/>
</g>
<mask id="mask5_437_3" style="mask-type:luminance" maskUnits="userSpaceOnUse" x="21" y="35" width="149" height="149">
<path d="M95.5235 183.246C136.251 183.246 169.267 150.23 169.267 109.503C169.267 68.7757 136.251 35.7598 95.5235 35.7598C54.7963 35.7598 21.7803 68.7757 21.7803 109.503C21.7803 150.23 54.7963 183.246 95.5235 183.246Z" fill="white"/>
</mask>
<g mask="url(#mask5_437_3)">
<path d="M-87.6776 322.202C-166.915 322.202 -231.405 257.712 -231.405 178.475C-231.405 99.2367 -166.915 34.7476 -87.6776 34.7476C-8.4398 34.7476 56.0494 99.2367 56.0494 178.475C56.0494 257.712 -8.4398 322.202 -87.6776 322.202ZM-87.6776 41.9773C-163.011 41.9773 -224.175 103.285 -224.175 178.475C-224.175 253.808 -163.011 314.972 -87.6776 314.972C-12.3439 314.972 48.8196 253.808 48.8196 178.475C48.8196 103.285 -12.3439 41.9773 -87.6776 41.9773Z" fill="#22A39F"/>
<path d="M-87.6776 300.078C-154.769 300.078 -209.282 245.566 -209.282 178.474C-209.282 111.382 -154.769 56.8701 -87.6776 56.8701C-20.5858 56.8701 33.9264 111.382 33.9264 178.474C33.9264 245.566 -20.5858 300.078 -87.6776 300.078ZM-87.6776 64.0998C-150.721 64.0998 -202.052 115.431 -202.052 178.474C-202.052 241.517 -150.721 292.848 -87.6776 292.848C-24.6344 292.848 26.6966 241.517 26.6966 178.474C26.6966 115.431 -24.6344 64.0998 -87.6776 64.0998Z" fill="#22A39F"/>
</g>
<path d="M208.555 201.906C188.426 221.528 156.203 221.118 136.581 200.989C116.959 180.861 117.37 148.637 137.498 129.016C157.626 109.394 189.85 109.804 209.472 129.933C229.093 150.061 228.683 182.285 208.555 201.906Z" fill="#E6B783"/>
<mask id="mask6_437_3" style="mask-type:luminance" maskUnits="userSpaceOnUse" x="122" y="114" width="102" height="103">
<path d="M208.555 201.906C188.426 221.528 156.203 221.118 136.581 200.989C116.959 180.861 117.37 148.637 137.498 129.016C157.626 109.394 189.85 109.804 209.472 129.933C229.093 150.061 228.683 182.285 208.555 201.906Z" fill="white"/>
</mask>
<g mask="url(#mask6_437_3)">
<path d="M230.523 307.507C252.059 286.513 252.499 251.957 231.505 230.421C210.511 208.885 175.955 208.445 154.419 229.439C132.883 250.433 132.443 284.989 153.437 306.524C174.431 328.06 208.987 328.501 230.523 307.507ZM159.466 234.616C178.103 216.448 208.16 216.831 226.328 235.468C244.496 254.105 244.113 284.162 225.476 302.33C206.839 320.498 176.782 320.115 158.614 301.478C140.446 282.841 140.829 252.784 159.466 234.616Z" fill="#B38450"/>
<path d="M262.417 340.224C301.969 301.668 302.779 238.077 264.223 198.526C225.667 158.974 162.076 158.164 122.525 196.72C82.973 235.277 82.1627 298.867 120.719 338.419C159.275 377.97 222.866 378.781 262.417 340.224ZM127.571 201.897C164.327 166.066 223.316 166.92 259.046 203.572C294.776 240.225 294.023 299.317 257.371 335.047C220.718 370.777 161.626 370.025 125.896 333.372C90.1658 296.72 90.8151 237.728 127.571 201.897Z" fill="#B38450"/>
<path d="M251.819 329.352C285.366 296.65 286.053 242.67 253.351 209.124C220.649 175.577 166.669 174.889 133.122 207.592C99.5759 240.294 98.8881 294.274 131.59 327.821C164.293 361.367 218.273 362.055 251.819 329.352ZM138.169 212.769C168.92 182.792 218.197 183.419 248.174 214.17C278.151 244.921 277.523 294.199 246.773 324.176C216.022 354.153 166.744 353.525 136.767 322.774C106.79 292.023 107.418 242.746 138.169 212.769Z" fill="#B38450"/>
<path d="M241.121 318.378C268.662 291.53 269.224 247.364 242.376 219.823C215.528 192.282 171.362 191.719 143.821 218.567C116.28 245.415 115.717 289.581 142.566 317.122C169.414 344.663 213.579 345.226 241.121 318.378ZM148.868 223.744C173.51 199.722 213.177 200.227 237.199 224.87C261.221 249.512 260.716 289.179 236.074 313.201C211.432 337.223 171.764 336.718 147.742 312.075C123.72 287.433 124.226 247.766 148.868 223.744Z" fill="#B38450"/>
</g>
<mask id="mask7_437_3" style="mask-type:luminance" maskUnits="userSpaceOnUse" x="122" y="114" width="102" height="103">
<path d="M208.555 201.906C188.426 221.528 156.203 221.118 136.581 200.989C116.959 180.861 117.37 148.637 137.498 129.016C157.626 109.394 189.85 109.804 209.472 129.933C229.093 150.061 228.683 182.285 208.555 201.906Z" fill="white"/>
</mask>
<g mask="url(#mask7_437_3)">
<path d="M146.816 119.932C168.352 98.9384 168.793 64.3828 147.799 42.8469C126.805 21.3109 92.249 20.8706 70.7131 41.8647C49.1771 62.8587 48.7369 97.4143 69.7309 118.95C90.7249 140.486 125.28 140.926 146.816 119.932ZM75.7597 47.0416C94.3966 28.8737 124.454 29.2566 142.622 47.8935C160.79 66.5304 160.407 96.5876 141.77 114.756C123.133 132.923 93.0757 132.54 74.9078 113.904C56.7399 95.2667 57.1228 65.2095 75.7597 47.0416Z" fill="#B38450"/>
<path d="M178.711 152.649C218.262 114.093 219.073 50.5027 180.516 10.9511C141.96 -28.6004 78.3696 -29.4107 38.818 9.14568C-0.733536 47.702 -1.54377 111.292 37.0126 150.844C75.5689 190.396 139.159 191.206 178.711 152.649ZM43.8647 14.3226C80.6207 -21.5086 139.609 -20.6547 175.339 15.9978C211.171 52.7538 210.317 111.742 173.664 147.473C137.012 183.203 77.9197 182.45 42.1895 145.797C6.35832 109.041 7.10863 50.1537 43.8647 14.3226Z" fill="#B38450"/>
<path d="M168.113 141.778C201.659 109.076 202.347 55.0957 169.645 21.5493C136.943 -11.997 82.9623 -12.6848 49.416 20.0175C15.8696 52.7197 15.1818 106.7 47.8841 140.246C80.5863 173.793 134.567 174.481 168.113 141.778ZM54.4626 25.1944C85.2134 -4.78268 134.491 -4.15483 164.468 26.596C194.445 57.3468 193.817 106.624 163.066 136.601C132.315 166.578 83.038 165.951 53.061 135.2C23.1848 104.552 23.7118 55.1714 54.4626 25.1944Z" fill="#B38450"/>
<path d="M157.414 130.803C184.955 103.955 185.518 59.7893 158.67 32.2481C131.822 4.707 87.6561 4.14428 60.115 30.9924C32.5739 57.8405 32.0111 102.006 58.8593 129.547C85.7074 157.089 129.873 157.651 157.414 130.803ZM65.1616 36.1693C89.8037 12.1473 129.471 12.6527 153.493 37.2948C177.515 61.9369 177.01 101.604 152.368 125.626C127.726 149.648 88.0582 149.143 64.0362 124.501C40.0142 99.8587 40.5196 60.1913 65.1616 36.1693Z" fill="#B38450"/>
</g>
<mask id="mask8_437_3" style="mask-type:luminance" maskUnits="userSpaceOnUse" x="122" y="114" width="102" height="103">
<path d="M208.555 201.906C188.426 221.528 156.203 221.118 136.581 200.989C116.959 180.861 117.37 148.637 137.498 129.016C157.626 109.394 189.85 109.804 209.472 129.933C229.093 150.061 228.683 182.285 208.555 201.906Z" fill="white"/>
</mask>
<g mask="url(#mask8_437_3)">
<path d="M336.848 148.325C358.384 127.331 358.824 92.7759 337.83 71.2399C316.836 49.704 282.281 49.2637 260.745 70.2577C239.209 91.2518 238.768 125.807 259.763 147.343C280.757 168.879 315.312 169.319 336.848 148.325ZM265.791 75.4346C284.428 57.2667 314.485 57.6497 332.653 76.2866C350.821 94.9234 350.438 124.981 331.801 143.149C313.165 161.316 283.107 160.933 264.939 142.297C246.772 123.66 247.154 93.6025 265.791 75.4346Z" fill="#B38450"/>
<path d="M368.743 181.043C408.294 142.487 409.104 78.8963 370.548 39.3447C331.992 -0.206858 268.401 -1.01712 228.85 37.5392C189.298 76.0956 188.488 139.686 227.044 179.238C265.601 218.789 329.191 219.599 368.743 181.043ZM233.896 42.7161C270.652 6.88497 329.641 7.73885 365.371 44.3913C401.101 81.0438 400.349 140.136 363.696 175.866C326.94 211.697 267.951 210.843 232.221 174.191C196.491 137.538 197.14 78.5473 233.896 42.7161Z" fill="#B38450"/>
<path d="M358.145 170.172C391.691 137.47 392.379 83.4893 359.677 49.9429C326.974 16.3966 272.994 15.7088 239.448 48.411C205.901 81.1132 205.213 135.094 237.916 168.64C270.618 202.186 324.598 202.874 358.145 170.172ZM244.494 53.5879C275.245 23.6109 324.523 24.2388 354.5 54.9896C384.477 85.7404 383.849 135.018 353.098 164.995C322.347 194.972 273.07 194.344 243.093 163.593C213.116 132.842 213.743 83.565 244.494 53.5879Z" fill="#B38450"/>
<path d="M347.446 159.196C374.987 132.348 375.55 88.1824 348.702 60.6412C321.854 33.1001 277.688 32.5373 250.147 59.3855C222.605 86.2336 222.043 130.399 248.891 157.94C275.739 185.482 319.905 186.044 347.446 159.196ZM255.193 64.5624C279.835 40.5404 319.503 41.0458 343.525 65.6879C367.547 90.3299 367.041 129.997 342.399 154.019C317.757 178.041 278.09 177.536 254.068 152.894C230.046 128.252 230.448 88.6853 255.193 64.5624Z" fill="#B38450"/>
</g>
<path d="M105.501 225.467C103.621 225.467 101.886 223.877 101.886 221.997C101.886 219.972 103.332 218.382 105.356 218.237C109.115 218.093 113.309 215.635 114.321 213.466C114.61 213.032 114.465 212.887 114.465 212.743C114.321 212.454 109.694 206.814 75.7141 212.02C35.2276 218.237 9.77896 207.104 5.58572 192.933C3.5614 186.282 6.88708 179.92 13.9722 176.739C32.1911 168.641 52.5789 166.183 53.3019 166.183C55.3262 165.894 57.0614 167.34 57.3506 169.364C57.6398 171.389 56.1938 173.124 54.1695 173.413C54.0249 173.413 34.0708 175.727 16.8641 183.39C14.6952 184.402 11.0803 186.716 12.3817 191.054C15.129 200.452 36.2398 210.863 74.4127 205.079C100.151 201.175 115.478 202.332 120.105 208.694C121.84 211.008 122.129 214.044 120.683 216.791C118.659 221.418 112.007 225.322 105.501 225.467C105.645 225.467 105.645 225.467 105.501 225.467Z" fill="#22A39F"/>
</svg>
