<svg width="250" height="252" viewBox="0 0 250 252" fill="none" xmlns="http://www.w3.org/2000/svg">
<circle cx="125" cy="127" r="125" fill="#E5E5E5"/>
<path d="M201.9 241.2L155.9 11" stroke="#E0A565" stroke-width="20" stroke-miterlimit="10" stroke-linecap="round"/>
<path d="M156.9 15.6001C141.4 12.6001 122 12.3001 111.1 25.6001C99.6 39.7001 103.4 59.9001 118.7 69.3001C151.8 89.6001 199.2 78.1001 224.9 112C258.7 156.7 181 211.8 132.5 180.5" stroke="#F6F6EE" stroke-width="10" stroke-miterlimit="10" stroke-linecap="round"/>
<path d="M141.304 141.944L172.104 135.644C178.204 134.444 180.704 126.944 176.604 122.344L155.704 98.7441C151.604 94.0441 143.904 95.6441 141.904 101.544L131.904 131.344C130.004 137.344 135.104 143.144 141.304 141.944Z" fill="#90D1CF"/>
<path d="M61.804 132.944C45.604 147.644 43.9041 189.144 44.0041 208.344C44.0041 214.144 48.4041 219.044 54.2041 219.844C73.3041 222.344 114.604 225.644 131.204 211.344C152.604 191.844 148.704 125.844 148.704 125.844C148.704 125.844 83.704 114.044 61.804 132.944Z" fill="#90D1CF"/>
<path d="M77.7041 194.044C80.6312 194.044 83.0041 191.671 83.0041 188.744C83.0041 185.817 80.6312 183.444 77.7041 183.444C74.7769 183.444 72.4041 185.817 72.4041 188.744C72.4041 191.671 74.7769 194.044 77.7041 194.044Z" fill="#F6F6EE"/>
<path d="M69.004 139.944C69.004 139.944 122.504 143.944 120.504 203.444" stroke="#F6F6EE" stroke-width="5" stroke-miterlimit="10" stroke-linecap="round"/>
<path d="M82.1815 96.5248L93.7495 109.953C96.0171 112.626 100.396 111.795 101.533 108.512L107.404 91.7368C108.59 88.4267 105.686 85.0764 102.232 85.714L84.8149 88.9839C81.3392 89.6981 79.8864 93.8029 82.1815 96.5248Z" fill="#90D1CF"/>
<path d="M64.7564 54.9196C53.0673 50.9868 32.1729 61.5585 22.7498 66.8859C19.895 68.4804 18.6927 71.9932 19.8934 75.068C23.9135 85.1566 33.6427 106.392 45.2449 110.632C60.7261 115.805 92.1404 95.7415 92.1404 95.7415C92.1404 95.7415 80.0797 60.5035 64.7564 54.9196Z" fill="#90D1CF"/>
<path d="M37.4381 79.2414C38.7846 81.6523 41.8306 82.5152 44.2415 81.1687C46.6524 79.8222 47.5152 76.7762 46.1688 74.3653C44.8223 71.9544 41.7763 71.0915 39.3654 72.438C36.9545 73.7845 36.0916 76.8305 37.4381 79.2414Z" fill="#F6F6EE"/>
<path d="M63.2903 60.3877C63.2903 60.3877 76.0288 87.821 46.192 103.193" stroke="#F6F6EE" stroke-width="5" stroke-miterlimit="10" stroke-linecap="round"/>
</svg>
