<svg width="250" height="250" viewBox="0 0 250 250" fill="none" xmlns="http://www.w3.org/2000/svg">
<circle cx="125" cy="125" r="125" fill="#E5E5E5"/>
<g clip-path="url(#clip0_437_5)">
<path d="M134.167 40.1378C109.492 38.8962 87.2975 50.0705 73.0988 67.7285C69.6525 72.0051 66.7576 76.6955 64.2763 81.6618L6.10279 174.091C3.20791 178.643 6.3785 184.575 11.7547 184.713L130.583 187.196C172.214 187.196 205.712 152.57 204.058 110.632C202.542 72.6949 171.939 41.9312 134.167 40.1378Z" fill="#F8EDE0"/>
<path d="M26.5049 137.533C32.9762 137.533 38.2223 131.11 38.2223 123.186C38.2223 115.262 32.9762 108.839 26.5049 108.839C20.0335 108.839 14.7875 115.262 14.7875 123.186C14.7875 131.11 20.0335 137.533 26.5049 137.533Z" fill="#F8EDE0"/>
<path d="M78.3372 142.361C84.8085 142.361 90.0546 135.938 90.0546 128.014C90.0546 120.09 84.8085 113.667 78.3372 113.667C71.8658 113.667 66.6198 120.09 66.6198 128.014C66.6198 135.938 71.8658 142.361 78.3372 142.361Z" fill="white"/>
<path d="M47.1827 168.159C51.2177 168.159 54.4888 164.885 54.4888 160.847C54.4888 156.809 51.2177 153.536 47.1827 153.536C43.1476 153.536 39.8765 156.809 39.8765 160.847C39.8765 164.885 43.1476 168.159 47.1827 168.159Z" fill="#413635"/>
<path d="M159.67 113.667C175.936 112.839 190.686 120.151 200.06 131.877C202.266 134.774 204.334 137.809 205.85 141.12L244.311 202.233C246.241 205.268 244.035 209.131 240.589 209.269L162.151 210.924C134.719 210.924 112.524 188.024 113.627 160.295C114.454 135.188 134.719 114.771 159.67 113.667Z" fill="#22A39F"/>
<path d="M230.663 178.091C234.927 178.091 238.383 173.83 238.383 168.572C238.383 163.315 234.927 159.054 230.663 159.054C226.4 159.054 222.944 163.315 222.944 168.572C222.944 173.83 226.4 178.091 230.663 178.091Z" fill="#22A39F"/>
<path d="M196.476 181.265C200.74 181.265 204.196 177.003 204.196 171.746C204.196 166.489 200.74 162.227 196.476 162.227C192.213 162.227 188.756 166.489 188.756 171.746C188.756 177.003 192.213 181.265 196.476 181.265Z" fill="white"/>
<path d="M217.016 198.233C219.681 198.233 221.841 196.071 221.841 193.405C221.841 190.738 219.681 188.576 217.016 188.576C214.351 188.576 212.191 190.738 212.191 193.405C212.191 196.071 214.351 198.233 217.016 198.233Z" fill="#413635"/>
<path d="M83.2998 207.475C75.1665 207.475 68.5497 207.2 68.5497 207.2C67.4468 207.2 66.4819 206.234 66.6197 204.992C66.7576 203.751 67.5847 202.923 68.8254 203.061C90.0545 204.027 109.354 202.785 111.422 200.302C111.008 198.922 105.218 196.163 101.772 194.37C92.8116 189.955 81.5077 184.575 84.2648 175.608C84.954 173.263 86.6082 171.47 88.9517 170.366C99.0149 165.814 121.071 175.194 123.553 176.298C124.655 176.712 125.069 177.953 124.655 179.057C124.242 180.161 123.001 180.575 121.898 180.161C115.557 177.402 97.7742 170.918 90.6059 174.229C89.3653 174.781 88.5382 175.746 88.1246 176.988C86.4704 182.644 95.8443 187.196 103.426 190.921C110.457 194.37 115.971 196.991 115.419 201.268C115.006 204.303 111.559 207.2 90.6059 207.751C88.1246 207.475 85.6433 207.475 83.2998 207.475Z" fill="#22A39F"/>
</g>
<defs>
<clipPath id="clip0_437_5">
<rect width="240" height="170.787" fill="white" transform="translate(5 40)"/>
</clipPath>
</defs>
</svg>
