<svg width="250" height="250" viewBox="0 0 250 250" fill="none" xmlns="http://www.w3.org/2000/svg">
<circle cx="125" cy="125" r="125" fill="#F6F6EE"/>
<path d="M213.248 156.658C230.784 156.658 245 142.423 245 124.864C245 107.306 230.784 93.0713 213.248 93.0713C195.713 93.0713 181.497 107.306 181.497 124.864C181.497 142.423 195.713 156.658 213.248 156.658Z" fill="#E6B783"/>
<path d="M151.18 64.0259C151.18 64.2876 151.18 64.5492 151.18 64.6801C151.18 93.2023 128.053 116.491 99.5677 116.491C71.0827 116.491 47.8244 93.3331 47.8244 64.8109C47.8244 64.5492 47.8244 64.2875 47.8244 64.1567C61.6749 73.0536 79.7066 78.4178 99.5677 78.4178C119.429 78.4178 137.33 72.9227 151.18 64.0259Z" fill="#92D1D0"/>
<path d="M99.437 13C127.791 13 150.788 35.7654 151.18 64.026C137.33 72.9228 119.298 78.4179 99.5677 78.4179C79.8373 78.4179 61.6749 73.0537 47.9551 64.026C48.2164 35.7654 71.2134 13 99.437 13Z" fill="#E5E5E5"/>
<path d="M128.314 45.3161C130.262 45.3161 131.842 43.7345 131.842 41.7835C131.842 39.8326 130.262 38.251 128.314 38.251C126.365 38.251 124.786 39.8326 124.786 41.7835C124.786 43.7345 126.365 45.3161 128.314 45.3161Z" fill="white"/>
<path d="M106.232 24.7754C111.85 25.4296 116.946 28.1771 120.735 32.3639L121.911 33.6722" stroke="white" stroke-width="5" stroke-miterlimit="10" stroke-linecap="round" stroke-linejoin="round"/>
<path d="M91.1661 108.641C91.2968 108.772 91.2968 109.034 91.4274 109.164C99.79 132.322 87.8995 157.835 64.7718 166.34C41.6442 174.713 16.1645 162.807 7.67131 139.649C7.67131 139.518 7.67131 139.257 7.54065 139.126C21.3911 142.266 37.5935 141.35 53.6653 135.593C69.7371 129.837 82.6729 119.893 91.1661 108.641Z" fill="#E5E5E5"/>
<path d="M34.327 82.6048C57.1933 74.2313 82.5423 85.8757 91.1661 108.641C82.6729 120.024 69.6065 129.706 53.5347 135.593C37.4629 141.481 21.2605 142.397 7.41003 139.126C-0.429857 116.099 11.4606 90.8474 34.327 82.6048Z" fill="#E6B783"/>
<path d="M24.0044 109.679C20.3458 113.996 18.3859 119.491 18.3859 125.117V126.949" stroke="white" stroke-width="5" stroke-miterlimit="10" stroke-linecap="round" stroke-linejoin="round"/>
<path d="M179.532 87.5765C192.522 87.5765 203.052 77.0326 203.052 64.026C203.052 51.0195 192.522 40.4756 179.532 40.4756C166.542 40.4756 156.012 51.0195 156.012 64.026C156.012 77.0326 166.542 87.5765 179.532 87.5765Z" fill="#22A39F"/>
<path d="M181.886 182.49C181.886 182.752 181.886 183.013 181.886 183.275C180.057 214.806 152.879 238.88 121.389 237.049C89.8984 235.217 65.8561 208.003 67.6854 176.472C67.6854 176.21 67.6854 175.948 67.8161 175.687C82.4505 186.546 102.05 193.742 123.871 195.05C145.823 196.359 166.076 191.518 181.886 182.49Z" fill="#E5E5E5"/>
<path d="M128.183 122.829C159.412 124.661 183.324 151.351 181.886 182.621C166.076 191.649 145.692 196.49 123.871 195.181C102.05 193.873 82.4505 186.677 67.8161 175.818C70.0374 144.548 96.9543 120.866 128.183 122.829Z" fill="#22A39F"/>
<path d="M144.255 145.856C146.203 145.856 147.783 144.275 147.783 142.324C147.783 140.373 146.203 138.791 144.255 138.791C142.307 138.791 140.727 140.373 140.727 142.324C140.727 144.275 142.307 145.856 144.255 145.856Z" fill="white"/>
<path d="M152.487 147.818C157.191 150.828 160.719 155.538 162.287 160.902L162.809 162.603" stroke="white" stroke-width="5" stroke-miterlimit="10" stroke-linecap="round" stroke-linejoin="round"/>
</svg>
