<svg width="250" height="250" viewBox="0 0 250 250" fill="none" xmlns="http://www.w3.org/2000/svg">
<circle cx="125" cy="125" r="125" fill="#E5E5E5"/>
<g clip-path="url(#clip0_437_2)">
<path d="M125 169.827C65.2293 169.827 6 177.399 6 186.811C6 196.222 65.2293 203.795 125 203.795C184.771 203.795 244 196.114 244 186.702C244 177.291 184.771 169.827 125 169.827Z" fill="#F2DBC1"/>
<path d="M125 200.441C188.031 200.441 239.127 194.338 239.127 186.811C239.127 179.283 188.031 173.18 125 173.18C61.9691 173.18 10.8726 179.283 10.8726 186.811C10.8726 194.338 61.9691 200.441 125 200.441Z" fill="#E0A565"/>
<path d="M123.376 211.043C186.407 211.043 237.503 204.94 237.503 197.412C237.503 189.884 186.407 183.782 123.376 183.782C60.345 183.782 9.24841 189.884 9.24841 197.412C9.24841 204.94 60.345 211.043 123.376 211.043Z" fill="#F2DBC1"/>
<path d="M125 203.903C65.2293 203.903 6 196.222 6 186.811V211.908C6 221.32 65.2293 229 125 229C184.771 229 244 221.32 244 211.908V186.703C244 196.222 184.771 203.903 125 203.903Z" fill="#E0A565"/>
<path d="M140.809 128.827H109.191V192.652V200.441V200.766C115.796 200.982 126.841 201.09 140.917 200.766V128.827H140.809Z" fill="#E0A565"/>
<path d="M194.299 194.491C207.934 194.491 218.987 183.449 218.987 169.827C218.987 156.205 207.934 145.162 194.299 145.162C180.665 145.162 169.611 156.205 169.611 169.827C169.611 183.449 180.665 194.491 194.299 194.491Z" fill="#90D1CF"/>
<path d="M125 106.11C65.2293 106.11 16.828 113.791 16.828 123.202C16.828 132.613 65.2293 140.186 125 140.186C184.771 140.186 233.172 132.505 233.172 123.094C233.172 113.682 184.771 106.11 125 106.11Z" fill="#F2DBC1"/>
<path d="M125 136.832C182.051 136.832 228.299 130.73 228.299 123.202C228.299 115.674 182.051 109.571 125 109.571C67.9493 109.571 21.7006 115.674 21.7006 123.202C21.7006 130.73 67.9493 136.832 125 136.832Z" fill="#E0A565"/>
<path d="M123.376 147.326C180.426 147.326 226.675 141.223 226.675 133.695C226.675 126.167 180.426 120.065 123.376 120.065C66.3251 120.065 20.0764 126.167 20.0764 133.695C20.0764 141.223 66.3251 147.326 123.376 147.326Z" fill="#F2DBC1"/>
<path d="M125 140.186C65.2293 140.186 16.828 132.505 16.828 123.202V148.299C16.828 157.711 65.2293 165.392 125 165.392C184.771 165.392 233.172 157.711 233.172 148.299V123.202C233.172 132.614 184.771 140.186 125 140.186Z" fill="#E0A565"/>
<path d="M140.809 54.2925H109.191V128.935V136.724V137.049C115.796 137.265 126.841 137.373 140.917 137.049V54.2925H140.809Z" fill="#E0A565"/>
<path d="M125 44.6646C65.2293 44.6646 27.656 52.237 27.656 61.6485C27.656 71.06 65.2293 78.6325 125 78.6325C184.771 78.6325 222.344 70.9518 222.344 61.5403C222.344 52.1288 184.771 44.6646 125 44.6646Z" fill="#F2DBC1"/>
<path d="M125 75.2789C176.07 75.2789 217.471 69.1764 217.471 61.6485C217.471 54.1206 176.07 48.0181 125 48.0181C73.9294 48.0181 32.5286 54.1206 32.5286 61.6485C32.5286 69.1764 73.9294 75.2789 125 75.2789Z" fill="#E0A565"/>
<path d="M123.376 85.8805C174.446 85.8805 215.847 79.7779 215.847 72.2501C215.847 64.7222 174.446 58.6196 123.376 58.6196C72.3052 58.6196 30.9044 64.7222 30.9044 72.2501C30.9044 79.7779 72.3052 85.8805 123.376 85.8805Z" fill="#F2DBC1"/>
<path d="M125 78.7406C65.2293 78.7406 27.656 71.0599 27.656 61.6484V86.7457C27.656 96.1572 65.2293 103.838 125 103.838C184.771 103.838 222.344 96.1572 222.344 86.7457V61.6484C222.344 71.0599 184.771 78.7406 125 78.7406Z" fill="#E0A565"/>
<path d="M72.7006 69.3292C86.3353 69.3292 97.3885 58.2865 97.3885 44.6646C97.3885 31.0427 86.3353 20 72.7006 20C59.0658 20 48.0127 31.0427 48.0127 44.6646C48.0127 58.2865 59.0658 69.3292 72.7006 69.3292Z" fill="#22A39F"/>
</g>
<defs>
<clipPath id="clip0_437_2">
<rect width="238" height="209" fill="white" transform="translate(6 20)"/>
</clipPath>
</defs>
</svg>
