<svg width="92" height="80" viewBox="0 0 92 80" fill="none" xmlns="http://www.w3.org/2000/svg">
<g clip-path="url(#clip0_450_3530)">
<path d="M80.9803 19.3746C81.5192 18.0012 81.7641 16.4806 81.7641 14.911C81.7641 9.56463 74.3666 3.28627 70.8394 0.63759C69.7616 -0.196254 68.2429 -0.196254 67.1161 0.63759C64.8136 2.35433 60.9434 5.59161 58.4939 9.07413C57.6121 9.02508 56.7303 8.97603 55.8485 8.97603H35.4687C34.6358 8.97603 33.803 9.02508 32.9702 9.07413C30.5207 5.59161 26.6505 2.35433 24.348 0.63759C23.2702 -0.196254 21.7515 -0.196254 20.6247 0.63759C17.1465 3.28627 9.74899 9.56463 9.74899 14.911C9.74899 16.4316 9.99394 17.9031 10.4838 19.2274C4.01717 25.702 0 34.629 0 44.488C0 64.1078 15.8727 79.9999 35.4687 79.9999H55.8485C75.4444 79.9999 91.3171 64.1078 91.3171 44.488C91.3661 34.6781 87.3979 25.8001 80.9803 19.3746Z" fill="#424242"/>
<path d="M72.505 13.6357L70.1045 5.4444C69.9086 4.65961 69.0757 4.16911 68.2429 4.41436L64.1767 9.02502C62.952 9.41742 62.756 11.0851 63.8828 11.7228L70.3495 15.3034C71.4762 15.941 72.799 14.8619 72.505 13.6357Z" fill="#282828"/>
<path d="M18.8611 13.6357L21.2617 5.4444C21.4576 4.65961 22.2904 4.16911 23.1233 4.41436L27.1894 9.02502C28.4142 9.41742 28.6101 11.0851 27.4834 11.7228L21.0167 15.3034C19.8409 15.941 18.5182 14.8619 18.8611 13.6357Z" fill="#282828"/>
<path d="M18.5182 44.537C18.3712 44.537 18.2733 44.537 18.1263 44.488L10.3369 41.8393C9.70003 41.6431 9.3571 40.9073 9.55306 40.2697C9.74902 39.632 10.4839 39.2887 11.1207 39.4849L18.9101 42.1336C19.547 42.3298 19.8899 43.0655 19.694 43.7032C19.547 44.1937 19.0571 44.537 18.5182 44.537Z" fill="#282828"/>
<path d="M10.7778 57.339C10.2879 57.339 9.79797 56.9957 9.60201 56.5052C9.40605 55.8675 9.74898 55.1808 10.3859 54.9356L18.1752 52.2869C18.8121 52.0907 19.498 52.434 19.7429 53.0717C19.9389 53.7093 19.5959 54.396 18.9591 54.6413L11.1697 57.29C11.0227 57.29 10.8757 57.339 10.7778 57.339Z" fill="#282828"/>
<path d="M18.7631 49.6382H10.7777C10.0919 49.6382 9.55298 49.0986 9.55298 48.4119C9.55298 47.7252 10.0919 47.1857 10.7777 47.1857H18.8121C19.4979 47.1857 20.0368 47.7252 20.0368 48.4119C20.0368 49.0986 19.4489 49.6382 18.7631 49.6382Z" fill="#282828"/>
<path d="M38.7905 41.652C40.0674 38.1391 37.5987 34.0145 33.2765 32.4396C28.9543 30.8646 24.4152 32.4356 23.1383 35.9485C21.8613 39.4614 24.33 43.586 28.6523 45.161C32.9745 46.7359 37.5135 45.1649 38.7905 41.652Z" fill="#282828"/>
<path d="M30.9616 44.488C34.1002 44.488 36.6445 41.9406 36.6445 38.7983C36.6445 35.6559 34.1002 33.1085 30.9616 33.1085C27.8231 33.1085 25.2788 35.6559 25.2788 38.7983C25.2788 41.9406 27.8231 44.488 30.9616 44.488Z" fill="#D19442"/>
<path d="M25.9157 40.2206C26.7003 40.2206 27.3364 39.5838 27.3364 38.7982C27.3364 38.0126 26.7003 37.3757 25.9157 37.3757C25.1311 37.3757 24.495 38.0126 24.495 38.7982C24.495 39.5838 25.1311 40.2206 25.9157 40.2206Z" fill="white"/>
<path d="M78.8737 44.537C78.3838 44.537 77.8939 44.1937 77.698 43.7032C77.502 43.0655 77.8449 42.3788 78.4818 42.1336L86.2712 39.4849C86.9081 39.2887 87.5939 39.632 87.8389 40.2697C88.0348 40.9073 87.6919 41.594 87.055 41.8393L79.2656 44.488C79.1187 44.537 79.0207 44.537 78.8737 44.537Z" fill="#282828"/>
<path d="M86.6631 57.339C86.5161 57.339 86.4182 57.339 86.2712 57.29L78.4818 54.6413C77.8449 54.4451 77.502 53.7093 77.698 53.0717C77.8939 52.434 78.6288 52.0907 79.2656 52.2869L87.055 54.9356C87.6919 55.1318 88.0348 55.8675 87.8389 56.5052C87.6429 56.9957 87.153 57.339 86.6631 57.339Z" fill="#282828"/>
<path d="M68.7431 45.1641C73.0653 43.5891 75.534 39.4645 74.257 35.9516C72.9801 32.4387 68.441 30.8677 64.1188 32.4427C59.7966 34.0177 57.3279 38.1422 58.6048 41.6551C59.8818 45.168 64.4208 46.739 68.7431 45.1641Z" fill="#282828"/>
<path d="M66.4304 44.4879C69.5689 44.4879 72.1132 41.9405 72.1132 38.7982C72.1132 35.6558 69.5689 33.1084 66.4304 33.1084C63.2918 33.1084 60.7476 35.6558 60.7476 38.7982C60.7476 41.9405 63.2918 44.4879 66.4304 44.4879Z" fill="#D19442"/>
<path d="M66.4304 42.8694C67.3232 42.8694 68.047 40.9588 68.047 38.602C68.047 36.2453 67.3232 34.3347 66.4304 34.3347C65.5375 34.3347 64.8137 36.2453 64.8137 38.602C64.8137 40.9588 65.5375 42.8694 66.4304 42.8694Z" fill="#282828"/>
<path d="M61.1884 40.2206C61.973 40.2206 62.6091 39.5838 62.6091 38.7982C62.6091 38.0126 61.973 37.3757 61.1884 37.3757C60.4038 37.3757 59.7677 38.0126 59.7677 38.7982C59.7677 39.5838 60.4038 40.2206 61.1884 40.2206Z" fill="white"/>
<path d="M86.6631 49.6382H78.6288C77.9429 49.6382 77.4041 49.0986 77.4041 48.4119C77.4041 47.7252 77.9429 47.1857 78.6288 47.1857H86.6631C87.349 47.1857 87.8879 47.7252 87.8879 48.4119C87.8879 49.0986 87.349 49.6382 86.6631 49.6382Z" fill="#282828"/>
<path d="M31.3045 42.8694C32.1974 42.8694 32.9212 40.9588 32.9212 38.602C32.9212 36.2453 32.1974 34.3347 31.3045 34.3347C30.4117 34.3347 29.6879 36.2453 29.6879 38.602C29.6879 40.9588 30.4117 42.8694 31.3045 42.8694Z" fill="#282828"/>
<path d="M64.5197 53.4641C64.5197 48.9516 60.8455 45.2728 56.3384 45.2728C53.8399 45.2728 51.6354 46.401 50.1657 48.1177C48.647 46.3519 46.4425 45.2728 43.993 45.2728C39.4859 45.2728 35.8116 48.9516 35.8116 53.4641C35.8116 54.4451 36.0076 55.4261 36.3015 56.309C39.045 63.9117 50.1167 63.6665 50.1167 63.6665C50.1167 63.6665 50.1167 63.6665 50.1657 63.6665C50.1657 63.6665 50.1657 63.6665 50.2147 63.6665C50.2147 63.6665 61.2864 63.9117 64.0298 56.309C64.3727 55.3771 64.5197 54.4451 64.5197 53.4641Z" fill="#727272"/>
<path d="M46.7364 56.5543C46.3445 56.5543 46.0015 56.4071 45.7566 56.0638C45.3647 55.5242 45.4626 54.7394 46.0015 54.347L48.8919 52.1888V47.0386C48.8919 46.3519 49.4308 45.8124 50.1167 45.8124C50.8025 45.8124 51.3414 46.3519 51.3414 47.0386V53.4151L47.4712 56.309C47.2263 56.4562 46.9813 56.5543 46.7364 56.5543Z" fill="#141414"/>
<path d="M53.4479 56.5543C53.203 56.5543 52.9091 56.4562 52.7131 56.309L48.8429 53.4151V47.0386C48.8429 46.3519 49.3818 45.8124 50.0676 45.8124C50.7535 45.8124 51.2924 46.3519 51.2924 47.0386V52.1888L54.1828 54.347C54.7217 54.7394 54.8197 55.5242 54.4277 56.0638C54.1828 56.3581 53.8399 56.5543 53.4479 56.5543Z" fill="#141414"/>
<path d="M52.86 46.1066L50.7045 48.3629C50.3615 48.7063 49.8226 48.7063 49.4797 48.3629L47.2752 46.1066C46.7363 45.5671 47.1282 44.6351 47.912 44.6351H52.2721C53.007 44.6351 53.3989 45.5671 52.86 46.1066Z" fill="#282828"/>
<path d="M32.2354 29.3807C30.6187 29.3807 29.1 28.7431 27.9733 27.6149L26.7485 26.3887C25.7687 25.4077 25.7687 23.8871 26.7485 22.9062C27.7283 21.9252 29.247 21.9252 30.2268 22.9062L31.4515 24.1324C31.7455 24.4267 32.0884 24.4757 32.2354 24.4757C32.4313 24.4757 32.7253 24.4267 33.0192 24.1324L34.048 23.1024C35.0278 22.1214 36.5465 22.1214 37.5263 23.1024C38.5061 24.0833 38.5061 25.6039 37.5263 26.5849L36.4975 27.6149C35.3707 28.7431 33.8521 29.3807 32.2354 29.3807Z" fill="#282828"/>
<path d="M66.5282 29.3807C65.0095 29.3807 63.4419 28.7921 62.2661 27.6149L61.0414 26.3887C60.0616 25.4077 60.0616 23.8871 61.0414 22.9062C62.0212 21.9252 63.5398 21.9252 64.5196 22.9062L65.7444 24.1324C66.0383 24.4267 66.3813 24.4757 66.5282 24.4757C66.7242 24.4757 67.0181 24.4267 67.3121 24.1324L68.3409 23.1024C69.3207 22.1214 70.8393 22.1214 71.8191 23.1024C72.7989 24.0833 72.7989 25.6039 71.8191 26.5849L70.7904 27.6149C69.6146 28.7921 68.0469 29.3807 66.5282 29.3807Z" fill="#282828"/>
</g>
<defs>
<clipPath id="clip0_450_3530">
<rect width="91.3661" height="80" fill="white"/>
</clipPath>
</defs>
</svg>
