<svg width="184" height="580" viewBox="0 0 184 580" fill="none" xmlns="http://www.w3.org/2000/svg">
<path d="M92 102L92 488" stroke="#424242" stroke-width="183" stroke-linecap="round"/>
<path d="M163.005 38.7518C164.07 35.98 164.638 32.995 164.638 29.7968C164.638 19.065 149.871 6.55636 142.772 1.22599C140.571 -0.408662 137.518 -0.408662 135.389 1.22599C130.845 4.7085 123.036 11.1049 118.138 18.141C116.363 17.9989 114.588 17.9278 112.813 17.9278H71.9924C70.3596 17.9278 68.6558 17.9989 67.023 18.07C62.0535 11.1049 54.3153 4.63742 49.7718 1.22599C47.571 -0.408662 44.5184 -0.408662 42.3886 1.22599C35.2893 6.62743 20.5229 19.065 20.5229 29.7968C20.5229 32.8529 21.0909 35.7668 22.0138 38.4675C9.02217 51.3315 1 69.2415 1 88.9284C1 128.16 32.8046 160 71.9924 160H112.813C152.001 160 183.806 128.16 183.806 88.9284C183.806 69.3126 175.854 51.6158 163.005 38.7518Z" fill="#424242"/>
<path d="M146.038 27.238L141.21 10.8916C140.784 9.25691 139.08 8.33298 137.518 8.83048L129.425 17.9987C126.941 18.7805 126.586 22.1209 128.857 23.4002L141.778 30.5784C144.05 31.7866 146.676 29.7255 146.038 27.238Z" fill="#282828"/>
<path d="M38.768 27.238L43.5955 10.8916C44.0215 9.25691 45.7253 8.33298 47.2871 8.83048L55.3803 17.9987C57.865 18.7805 58.22 22.1209 55.9482 23.4002L43.0276 30.5784C40.7558 31.7866 38.0581 29.7255 38.768 27.238Z" fill="#282828"/>
<path d="M32.1657 88.3602C31.9527 88.3602 31.8108 88.3602 31.5978 88.2891L16.0504 83.0298C15.1275 82.7455 14.6306 81.6795 14.9146 80.7555C15.1985 79.8316 16.2634 79.3341 17.1863 79.6184L32.7336 84.8777C33.6565 85.162 34.1535 86.228 33.8695 87.152C33.6565 87.9338 32.9466 88.3602 32.1657 88.3602Z" fill="#282828"/>
<path d="M16.6184 113.946C15.9084 113.946 15.1985 113.448 14.9146 112.737C14.6306 111.813 15.1275 110.818 16.0504 110.463L31.5978 105.204C32.5207 104.92 33.5145 105.417 33.8695 106.341C34.1535 107.265 33.6565 108.26 32.7336 108.615L17.1863 113.875C17.0443 113.946 16.8313 113.946 16.6184 113.946Z" fill="#282828"/>
<path d="M32.6628 98.5228H16.6184C15.6245 98.5228 14.8436 97.741 14.8436 96.746C14.8436 95.751 15.6245 94.9692 16.6184 94.9692H32.6628C33.6567 94.9692 34.4376 95.751 34.4376 96.746C34.4376 97.741 33.6567 98.5228 32.6628 98.5228Z" fill="#282828"/>
<path d="M72.7095 83.2734C75.2706 76.2284 70.3279 67.9599 61.6696 64.8052C53.0113 61.6506 43.9162 64.8043 41.355 71.8494C38.7939 78.8944 43.7366 87.1628 52.3949 90.3175C61.0532 93.4722 70.1483 90.3184 72.7095 83.2734Z" fill="#282828"/>
<path d="M57.0841 88.9285C63.3574 88.9285 68.4429 83.8373 68.4429 77.557C68.4429 71.2767 63.3574 66.1855 57.0841 66.1855C50.8108 66.1855 45.7253 71.2767 45.7253 77.557C45.7253 83.8373 50.8108 88.9285 57.0841 88.9285Z" fill="#D19442"/>
<path d="M47.003 80.4001C48.5713 80.4001 49.8427 79.1273 49.8427 77.5572C49.8427 75.9871 48.5713 74.7144 47.003 74.7144C45.4347 74.7144 44.1633 75.9871 44.1633 77.5572C44.1633 79.1273 45.4347 80.4001 47.003 80.4001Z" fill="white"/>
<path d="M152.924 88.3602C152.214 88.3602 151.504 87.8627 151.22 87.152C150.936 86.228 151.433 85.233 152.356 84.8777L167.903 79.6184C168.826 79.3341 169.82 79.8316 170.175 80.7555C170.459 81.6795 169.962 82.6745 169.039 83.0298L153.492 88.2891C153.35 88.3602 153.137 88.3602 152.924 88.3602Z" fill="#282828"/>
<path d="M168.471 113.946C168.258 113.946 168.116 113.946 167.903 113.875L152.356 108.615C151.433 108.331 150.936 107.265 151.22 106.341C151.504 105.417 152.569 104.92 153.492 105.204L169.039 110.463C169.962 110.747 170.459 111.813 170.175 112.737C169.962 113.519 169.252 113.946 168.471 113.946Z" fill="#282828"/>
<path d="M132.705 90.3266C141.364 87.1719 146.306 78.9035 143.745 71.8584C141.184 64.8134 132.089 61.6597 123.431 64.8143C114.772 67.969 109.83 76.2375 112.391 83.2825C114.952 90.3275 124.047 93.4813 132.705 90.3266Z" fill="#282828"/>
<path d="M128.077 88.9285C134.35 88.9285 139.435 83.8373 139.435 77.557C139.435 71.2767 134.35 66.1855 128.077 66.1855C121.803 66.1855 116.718 71.2767 116.718 77.557C116.718 83.8373 121.803 88.9285 128.077 88.9285Z" fill="#D19442"/>
<path d="M128.076 85.73C129.841 85.73 131.271 81.9117 131.271 77.2014C131.271 72.4912 129.841 68.6729 128.076 68.6729C126.312 68.6729 124.882 72.4912 124.882 77.2014C124.882 81.9117 126.312 85.73 128.076 85.73Z" fill="#282828"/>
<path d="M117.57 80.3996C119.138 80.3996 120.409 79.1268 120.409 77.5567C120.409 75.9867 119.138 74.7139 117.57 74.7139C116.001 74.7139 114.73 75.9867 114.73 77.5567C114.73 79.1268 116.001 80.3996 117.57 80.3996Z" fill="white"/>
<path d="M168.471 98.5228H152.427C151.433 98.5228 150.652 97.741 150.652 96.746C150.652 95.751 151.433 94.9692 152.427 94.9692H168.471C169.465 94.9692 170.246 95.751 170.246 96.746C170.246 97.741 169.465 98.5228 168.471 98.5228Z" fill="#282828"/>
<path d="M57.7939 85.73C59.5583 85.73 60.9886 81.9117 60.9886 77.2014C60.9886 72.4912 59.5583 68.6729 57.7939 68.6729C56.0295 68.6729 54.5992 72.4912 54.5992 77.2014C54.5992 81.9117 56.0295 85.73 57.7939 85.73Z" fill="#282828"/>
<path d="M121.332 106.909C121.332 97.8834 114.02 90.563 105.004 90.563C100.034 90.563 95.6329 92.7662 92.5802 96.2487C89.5985 92.7662 85.126 90.563 80.1565 90.563C71.1405 90.563 63.8282 97.8834 63.8282 106.909C63.8282 108.899 64.1832 110.818 64.8222 112.595C70.3596 127.805 92.5092 127.307 92.5092 127.307H92.5802H92.6512C92.6512 127.307 114.801 127.805 120.338 112.595C120.977 110.818 121.332 108.899 121.332 106.909Z" fill="#727272"/>
<path d="M85.6231 112.382C85.0551 112.382 84.5582 112.169 84.2032 111.671C83.6353 110.889 83.7773 109.752 84.5582 109.184L90.5926 104.635V94.0453C90.5926 93.0503 91.3735 92.2686 92.3674 92.2686C93.3613 92.2686 94.1422 93.0503 94.1422 94.0453V106.412L86.688 112.026C86.404 112.311 86.049 112.382 85.6231 112.382Z" fill="#141414"/>
<path d="M99.1114 112.382C98.7564 112.382 98.3305 112.24 98.0465 112.026L90.5923 106.412V94.0453C90.5923 93.0503 91.3732 92.2686 92.3671 92.2686C93.361 92.2686 94.1419 93.0503 94.1419 94.0453V104.635L100.176 109.184C100.957 109.752 101.099 110.889 100.531 111.671C100.176 112.169 99.6793 112.382 99.1114 112.382Z" fill="#141414"/>
<path d="M97.9757 92.1976L93.6452 96.7462C92.9353 97.4569 91.7994 97.4569 91.1605 96.7462L86.8299 92.1976C85.765 91.1316 86.5459 89.2837 88.1078 89.2837H96.7688C98.2596 89.2837 99.0406 91.0605 97.9757 92.1976Z" fill="#282828"/>
<path d="M59.6398 57.3723C56.8711 57.3723 54.1733 56.3063 52.1146 54.2452L49.6298 51.7577C48.21 50.3362 48.21 48.133 49.6298 46.7116C51.0497 45.2901 53.2505 45.2901 54.6703 46.7116L57.1551 49.1991C58.5749 50.6205 60.8466 50.6205 62.2665 49.1991L64.3962 47.0669C65.8161 45.6455 68.0169 45.6455 69.4367 47.0669C70.8566 48.4884 70.8566 50.6916 69.4367 52.113L67.307 54.2452C65.1062 56.3063 62.4085 57.3723 59.6398 57.3723Z" fill="#282828"/>
<path d="M128.218 57.3723C125.379 57.3723 122.681 56.2352 120.693 54.2452L118.209 51.7577C116.789 50.3362 116.789 48.133 118.209 46.7116C119.628 45.2901 121.829 45.2901 123.249 46.7116L125.734 49.1991C126.444 49.9098 127.296 50.2652 128.289 50.2652C129.283 50.2652 130.135 49.9098 130.845 49.1991L132.975 47.0669C134.395 45.6455 136.596 45.6455 138.015 47.0669C139.435 48.4884 139.435 50.6916 138.015 52.113L135.886 54.2452C133.756 56.2352 131.129 57.3723 128.218 57.3723Z" fill="#282828"/>
</svg>
