<svg width="437" height="383" viewBox="0 0 437 383" fill="none" xmlns="http://www.w3.org/2000/svg">
<path d="M387.275 92.6369C389.821 86.0109 391.179 78.8752 391.179 71.2297C391.179 45.5751 355.879 15.6731 338.908 2.93074C333.647 -0.976914 326.35 -0.976914 321.259 2.93074C310.397 11.2557 291.729 26.5466 280.019 43.3665C275.777 43.0267 271.534 42.8568 267.291 42.8568H169.709C165.805 42.8568 161.732 43.0267 157.829 43.1966C145.949 26.5466 127.451 11.0858 116.59 2.93074C111.329 -0.976914 104.031 -0.976914 98.9401 2.93074C81.9693 15.843 46.6699 45.5751 46.6699 71.2297C46.6699 78.5354 48.0276 85.5012 50.2338 91.9573C19.1771 122.709 0 165.523 0 212.585C0 306.369 76.0295 382.483 169.709 382.483H267.291C360.97 382.483 437 306.369 437 212.585C437 165.693 417.993 123.388 387.275 92.6369Z" fill="#424242"/>
<path d="M346.715 65.1135L335.175 26.037C334.157 22.1293 330.084 19.9206 326.35 21.1099L307.003 43.0268C301.063 44.8957 300.215 52.8809 305.646 55.939L336.532 73.0987C341.963 75.987 348.242 71.0599 346.715 65.1135Z" fill="#282828"/>
<path d="M90.2852 65.1135L101.825 26.037C102.844 22.1293 106.917 19.9206 110.65 21.1099L129.997 43.0268C135.937 44.8957 136.785 52.8809 131.355 55.939L100.468 73.0987C95.0371 75.987 88.5881 71.0599 90.2852 65.1135Z" fill="#282828"/>
<path d="M74.5022 211.226C73.993 211.226 73.6536 211.226 73.1445 211.056L35.9783 198.484C33.7721 197.804 32.5841 195.256 33.263 193.047C33.9418 190.838 36.4874 189.649 38.6936 190.329L75.8598 202.901C78.066 203.581 79.2539 206.129 78.5751 208.338C78.066 210.207 76.369 211.226 74.5022 211.226Z" fill="#282828"/>
<path d="M37.3359 272.389C35.6388 272.389 33.9418 271.2 33.263 269.501C32.5841 267.292 33.7721 264.913 35.9783 264.064L73.1445 251.491C75.3507 250.812 77.7266 252.001 78.5751 254.21C79.2539 256.418 78.066 258.797 75.8598 259.647L38.6936 272.219C38.3542 272.389 37.845 272.389 37.3359 272.389Z" fill="#282828"/>
<path d="M75.6905 235.521H37.3362C34.9603 235.521 33.0935 233.652 33.0935 231.274C33.0935 228.895 34.9603 227.026 37.3362 227.026H75.6905C78.0664 227.026 79.9332 228.895 79.9332 231.274C79.9332 233.652 78.0664 235.521 75.6905 235.521Z" fill="#282828"/>
<path d="M171.423 199.067C177.545 182.225 165.73 162.459 145.032 154.918C124.334 147.377 102.592 154.916 96.4695 171.757C90.347 188.599 102.163 208.364 122.86 215.906C143.558 223.447 165.3 215.908 171.423 199.067Z" fill="#282828"/>
<path d="M134.07 212.585C149.067 212.585 161.224 200.414 161.224 185.401C161.224 170.388 149.067 158.217 134.07 158.217C119.074 158.217 106.917 170.388 106.917 185.401C106.917 200.414 119.074 212.585 134.07 212.585Z" fill="#D19442"/>
<path d="M109.971 192.197C113.72 192.197 116.759 189.155 116.759 185.401C116.759 181.648 113.72 178.606 109.971 178.606C106.222 178.606 103.183 181.648 103.183 185.401C103.183 189.155 106.222 192.197 109.971 192.197Z" fill="white"/>
<path d="M363.177 211.226C361.48 211.226 359.783 210.037 359.104 208.338C358.425 206.129 359.613 203.751 361.819 202.901L398.985 190.329C401.191 189.649 403.567 190.838 404.416 193.047C405.095 195.256 403.907 197.634 401.701 198.484L364.534 211.056C364.195 211.226 363.686 211.226 363.177 211.226Z" fill="#282828"/>
<path d="M400.343 272.389C399.834 272.389 399.494 272.389 398.985 272.219L361.819 259.647C359.613 258.967 358.425 256.418 359.104 254.21C359.783 252.001 362.328 250.812 364.534 251.491L401.701 264.064C403.907 264.744 405.095 267.292 404.416 269.501C403.907 271.37 402.21 272.389 400.343 272.389Z" fill="#282828"/>
<path d="M314.844 215.927C335.542 208.385 347.357 188.619 341.235 171.778C335.113 154.937 313.37 147.398 292.673 154.939C271.975 162.48 260.159 182.246 266.282 199.088C272.404 215.929 294.146 223.468 314.844 215.927Z" fill="#282828"/>
<path d="M303.779 212.585C318.775 212.585 330.932 200.414 330.932 185.401C330.932 170.388 318.775 158.218 303.779 158.218C288.783 158.218 276.626 170.388 276.626 185.401C276.626 200.414 288.783 212.585 303.779 212.585Z" fill="#D19442"/>
<path d="M303.778 204.939C307.996 204.939 311.415 195.811 311.415 184.551C311.415 173.291 307.996 164.163 303.778 164.163C299.561 164.163 296.141 173.291 296.141 184.551C296.141 195.811 299.561 204.939 303.778 204.939Z" fill="#282828"/>
<path d="M278.662 192.197C282.411 192.197 285.45 189.154 285.45 185.401C285.45 181.648 282.411 178.605 278.662 178.605C274.913 178.605 271.874 181.648 271.874 185.401C271.874 189.154 274.913 192.197 278.662 192.197Z" fill="white"/>
<path d="M400.343 235.521H361.989C359.613 235.521 357.746 233.652 357.746 231.274C357.746 228.895 359.613 227.026 361.989 227.026H400.343C402.719 227.026 404.586 228.895 404.586 231.274C404.586 233.652 402.719 235.521 400.343 235.521Z" fill="#282828"/>
<path d="M135.767 204.939C139.985 204.939 143.404 195.812 143.404 184.552C143.404 173.292 139.985 164.164 135.767 164.164C131.549 164.164 128.13 173.292 128.13 184.552C128.13 195.812 131.549 204.939 135.767 204.939Z" fill="#282828"/>
<path d="M287.656 255.569C287.656 233.992 270.176 216.492 248.623 216.492C236.744 216.492 226.222 221.759 218.924 230.084C211.796 221.759 201.105 216.492 189.225 216.492C167.672 216.492 150.192 233.992 150.192 255.569C150.192 260.326 151.041 264.913 152.568 269.161C165.805 305.519 218.754 304.329 218.754 304.329H218.924H219.094C219.094 304.329 272.043 305.519 285.28 269.161C286.808 264.913 287.656 260.326 287.656 255.569Z" fill="#727272"/>
<path d="M202.293 268.651C200.935 268.651 199.747 268.141 198.899 266.952C197.541 265.083 197.881 262.364 199.747 261.005L214.173 250.132V224.817C214.173 222.438 216.04 220.569 218.415 220.569C220.791 220.569 222.658 222.438 222.658 224.817V254.379L204.839 267.801C204.16 268.481 203.311 268.651 202.293 268.651Z" fill="#141414"/>
<path d="M234.537 268.65C233.688 268.65 232.67 268.311 231.991 267.801L214.172 254.379V224.817C214.172 222.438 216.039 220.569 218.415 220.569C220.791 220.569 222.657 222.438 222.657 224.817V250.131L237.083 261.005C238.949 262.364 239.289 265.083 237.931 266.951C237.083 268.141 235.895 268.65 234.537 268.65Z" fill="#141414"/>
<path d="M231.822 220.4L221.47 231.274C219.773 232.973 217.058 232.973 215.53 231.274L205.178 220.4C202.632 217.852 204.499 213.434 208.233 213.434H228.937C232.501 213.434 234.368 217.682 231.822 220.4Z" fill="#282828"/>
<path d="M140.179 137.15C133.561 137.15 127.112 134.601 122.19 129.674L116.25 123.728C112.856 120.33 112.856 115.063 116.25 111.665C119.645 108.267 124.906 108.267 128.3 111.665L134.24 117.612C137.634 121.009 143.064 121.009 146.459 117.612L151.55 112.515C154.944 109.117 160.205 109.117 163.599 112.515C166.993 115.913 166.993 121.179 163.599 124.577L158.508 129.674C153.247 134.601 146.798 137.15 140.179 137.15Z" fill="#282828"/>
<path d="M304.118 137.15C297.33 137.15 290.881 134.431 286.129 129.674L280.189 123.728C276.795 120.33 276.795 115.063 280.189 111.665C283.583 108.267 288.844 108.267 292.238 111.665L298.178 117.612C299.875 119.311 301.912 120.16 304.288 120.16C306.664 120.16 308.7 119.311 310.397 117.612L315.488 112.515C318.883 109.117 324.144 109.117 327.538 112.515C330.932 115.913 330.932 121.179 327.538 124.577L322.447 129.674C317.355 134.431 311.076 137.15 304.118 137.15Z" fill="#282828"/>
</svg>
