<?xml version="1.0" encoding="utf-8"?>
<!-- Generator: Adobe Illustrator 22.0.0, SVG Export Plug-In . SVG Version: 6.00 Build 0)  -->
<svg version="1.1" id="圖層_1" xmlns="http://www.w3.org/2000/svg" xmlns:xlink="http://www.w3.org/1999/xlink" x="0px" y="0px"
	 viewBox="0 0 1164 598" style="enable-background:new 0 0 1164 598;" xml:space="preserve">
<style type="text/css">
	.st0{fill:#424242;}
	.st1{fill:#282828;}
	.st2{fill:#D19442;}
	.st3{fill:#FFFFFF;}
	.st4{fill:#727272;}
	.st5{fill:#141414;}
</style>
<ellipse class="st0" cx="581.8" cy="775.5" rx="624.5" ry="489.5"/>
<path class="st0" d="M928.2,189.9c5.2-13.6,8-28.2,8-43.9c0-52.6-72.4-113.9-107.1-140c-10.8-8-25.7-8-36.2,0
	c-22.3,17.1-60.5,48.4-84.5,82.9c-8.7-0.7-17.4-1-26.1-1h-200c-8,0-16.3,0.3-24.3,0.7C433.5,54.4,395.6,22.7,373.3,6
	c-10.8-8-25.7-8-36.2,0C302.4,32.5,230,93.4,230,146c0,15,2.8,29.3,7.3,42.5c-63.7,63-103,150.8-103,247.3
	C134.3,628,290.2,784,482.2,784h200c192,0,347.9-156,347.9-348.3C1030.1,339.6,991.1,252.9,928.2,189.9z"/>
<path class="st1" d="M845,133.5l-23.7-80.1c-2.1-8-10.4-12.5-18.1-10.1l-39.7,44.9c-12.2,3.8-13.9,20.2-2.8,26.5l63.3,35.2
	C835.3,155.8,848.2,145.7,845,133.5z"/>
<path class="st1" d="M319.4,133.5l23.7-80.1c2.1-8,10.4-12.5,18.1-10.1l39.7,44.9c12.2,3.8,13.9,20.2,2.8,26.5l-63.3,35.2
	C329.1,155.8,315.9,145.7,319.4,133.5z"/>
<path class="st1" d="M287,433c-1,0-1.7,0-2.8-0.3l-76.2-25.8c-4.5-1.4-7-6.6-5.6-11.1c1.4-4.5,6.6-7,11.1-5.6l76.2,25.8
	c4.5,1.4,7,6.6,5.6,11.1C294.4,430.9,290.9,433,287,433z"/>
<path class="st1" d="M210.9,558.3c-3.5,0-7-2.4-8.3-5.9c-1.4-4.5,1-9.4,5.6-11.1l76.2-25.8c4.5-1.4,9.4,1,11.1,5.6
	c1.4,4.5-1,9.4-5.6,11.1L213.7,558C213,558.3,211.9,558.3,210.9,558.3z"/>
<path class="st1" d="M289.5,482.8h-78.6c-4.9,0-8.7-3.8-8.7-8.7c0-4.9,3.8-8.7,8.7-8.7h78.6c4.9,0,8.7,3.8,8.7,8.7
	C298.2,478.9,294.4,482.8,289.5,482.8z"/>
<path class="st1" d="M485.7,408c12.6-34.5-11.7-75-54.1-90.5c-42.4-15.5-87,0-99.5,34.5c-12.5,34.5,11.7,75,54.1,90.5
	S473.2,442.6,485.7,408z"/>
<path class="st2" d="M409.1,435.7c30.7,0,55.7-24.9,55.7-55.7c0-30.8-24.9-55.7-55.7-55.7s-55.7,24.9-55.7,55.7
	C353.5,410.8,378.4,435.7,409.1,435.7z"/>
<path class="st3" d="M359.8,394c7.7,0,13.9-6.2,13.9-13.9s-6.2-13.9-13.9-13.9s-13.9,6.2-13.9,13.9S352.1,394,359.8,394z"/>
<path class="st1" d="M878.8,433c-3.5,0-7-2.4-8.3-5.9c-1.4-4.5,1-9.4,5.6-11.1l76.2-25.8c4.5-1.4,9.4,1,11.1,5.6
	c1.4,4.5-1.1,9.4-5.6,11.1l-76.2,25.8C880.9,433,879.8,433,878.8,433z"/>
<path class="st1" d="M954.9,558.3c-1,0-1.7,0-2.8-0.3L876,532.2c-4.5-1.4-7-6.6-5.6-11.1c1.4-4.5,6.6-7,11.1-5.6l76.2,25.8
	c4.5,1.4,7,6.6,5.6,11.1C962.2,556.2,958.8,558.3,954.9,558.3z"/>
<path class="st1" d="M779.7,442.6c42.4-15.5,66.6-56,54.1-90.5c-12.6-34.5-57.1-50-99.5-34.5c-42.4,15.5-66.6,56-54.1,90.5
	C692.7,442.6,737.3,458.1,779.7,442.6z"/>
<path class="st2" d="M757,435.7c30.7,0,55.7-24.9,55.7-55.7c0-30.8-24.9-55.7-55.7-55.7c-30.7,0-55.7,24.9-55.7,55.7
	C701.4,410.8,726.3,435.7,757,435.7z"/>
<path class="st1" d="M757,420.1c8.6,0,15.7-18.7,15.7-41.8c0-23.1-7-41.8-15.7-41.8c-8.6,0-15.7,18.7-15.7,41.8
	C741.4,401.4,748.4,420.1,757,420.1z"/>
<path class="st3" d="M705.5,394c7.7,0,13.9-6.2,13.9-13.9c0-7.7-6.2-13.9-13.9-13.9c-7.7,0-13.9,6.2-13.9,13.9
	C691.6,387.7,697.8,394,705.5,394z"/>
<path class="st1" d="M954.9,482.8h-78.6c-4.9,0-8.7-3.8-8.7-8.7c0-4.9,3.8-8.7,8.7-8.7h78.6c4.9,0,8.7,3.8,8.7,8.7
	C963.6,478.9,959.8,482.8,954.9,482.8z"/>
<path class="st1" d="M412.6,420.1c8.6,0,15.7-18.7,15.7-41.8c0-23.1-7-41.8-15.7-41.8c-8.6,0-15.7,18.7-15.7,41.8
	C397,401.4,404,420.1,412.6,420.1z"/>
<path class="st4" d="M724,523.9c0-44.2-35.8-80.1-80-80.1c-24.4,0-45.9,10.8-60.9,27.9c-14.6-17.1-36.5-27.9-60.9-27.9
	c-44.2,0-80,35.9-80,80.1c0,9.8,1.7,19.2,4.9,27.9c27.1,74.5,135.7,72.1,135.7,72.1h0.3h0.3c0,0,108.5,2.4,135.7-72.1
	C722.2,543,724,533.6,724,523.9z"/>
<path class="st5" d="M549,550.7c-2.8,0-5.2-1-7-3.5c-2.8-3.8-2.1-9.4,1.7-12.2l29.6-22.3v-51.9c0-4.9,3.8-8.7,8.7-8.7
	s8.7,3.8,8.7,8.7v60.6l-36.5,27.5C552.8,550.3,551.1,550.7,549,550.7z"/>
<path class="st5" d="M615.1,550.7c-1.7,0-3.8-0.7-5.2-1.7l-36.5-27.5v-60.6c0-4.9,3.8-8.7,8.7-8.7s8.7,3.8,8.7,8.7v51.9l29.6,22.3
	c3.8,2.8,4.5,8.4,1.7,12.2C620.3,549.6,617.9,550.7,615.1,550.7z"/>
<path class="st1" d="M609.5,451.8l-21.2,22.3c-3.5,3.5-9,3.5-12.2,0l-21.2-22.3c-5.2-5.2-1.4-14.3,6.3-14.3h42.4
	C610.9,437.5,614.7,446.2,609.5,451.8z"/>
<path class="st1" d="M421.7,281.1c-13.6,0-26.8-5.2-36.9-15.3l-12.2-12.2c-7-7-7-17.8,0-24.7c7-7,17.7-7,24.7,0l12.2,12.2
	c7,7,18.1,7,25,0l10.4-10.4c7-7,17.7-7,24.7,0c7,7,7,17.8,0,24.7l-10.4,10.4C448.5,275.9,435.2,281.1,421.7,281.1z"/>
<path class="st1" d="M757.7,281.1c-13.9,0-27.1-5.6-36.9-15.3l-12.2-12.2c-7-7-7-17.8,0-24.7c7-7,17.7-7,24.7,0l12.2,12.2
	c3.5,3.5,7.7,5.2,12.5,5.2s9-1.7,12.5-5.2l10.4-10.4c7-7,17.7-7,24.7,0c7,7,7,17.8,0,24.7l-10.4,10.4
	C784.8,275.6,772,281.1,757.7,281.1z"/>
</svg>
