<svg width="375" height="482" viewBox="0 0 375 482" fill="none" xmlns="http://www.w3.org/2000/svg">
<ellipse cx="189.5" cy="359.499" rx="289.5" ry="226.918" fill="#424242"/>
<path d="M350.045 88.0246C352.464 81.7285 353.754 74.9481 353.754 67.6833C353.754 43.306 320.212 14.8927 304.086 2.78482C299.087 -0.928274 292.153 -0.928274 287.315 2.78482C276.995 10.6953 259.257 25.2248 248.13 41.2073C244.098 40.8844 240.067 40.723 236.035 40.723H143.311C139.602 40.723 135.732 40.8844 132.023 41.0459C120.735 25.2248 103.158 10.5339 92.837 2.78482C87.838 -0.928274 80.9038 -0.928274 76.066 2.78482C59.9401 15.0542 26.3983 43.306 26.3983 67.6833C26.3983 74.6252 27.6884 81.2442 29.7848 87.3789C0.274342 116.599 -17.948 157.282 -17.948 202.001C-17.948 291.115 54.2961 363.44 143.311 363.44H236.035C325.05 363.44 397.294 291.115 397.294 202.001C397.294 157.443 379.233 117.245 350.045 88.0246Z" fill="#424242"/>
<path d="M311.504 61.8711L300.539 24.7401C299.571 21.027 295.701 18.9283 292.153 20.0584L273.77 40.884C268.126 42.6598 267.32 50.2475 272.48 53.1534L301.829 69.4587C306.989 72.2032 312.956 67.5214 311.504 61.8711Z" fill="#282828"/>
<path d="M67.8421 61.8711L78.8077 24.7401C79.7753 21.027 83.6455 18.9283 87.1932 20.0584L105.577 40.884C111.221 42.6598 112.027 50.2475 106.867 53.1534L77.5177 69.4587C72.3574 72.2032 66.2295 67.5214 67.8421 61.8711Z" fill="#282828"/>
<path d="M52.8448 200.71C52.361 200.71 52.0386 200.71 51.5548 200.548L16.239 188.602C14.1426 187.956 13.0138 185.534 13.6589 183.436C14.3039 181.337 16.7227 180.207 18.8191 180.853L54.1349 192.799C56.2312 193.445 57.36 195.866 56.715 197.965C56.2312 199.741 54.6187 200.71 52.8448 200.71Z" fill="#282828"/>
<path d="M17.529 258.827C15.9164 258.827 14.3039 257.697 13.6589 256.083C13.0138 253.984 14.1426 251.724 16.239 250.917L51.5548 238.97C53.6511 238.325 55.9087 239.455 56.715 241.553C57.36 243.652 56.2312 245.912 54.1349 246.719L18.8191 258.666C18.4966 258.827 18.0128 258.827 17.529 258.827Z" fill="#282828"/>
<path d="M53.9739 223.794H17.5293C15.2717 223.794 13.4978 222.018 13.4978 219.758C13.4978 217.498 15.2717 215.722 17.5293 215.722H53.9739C56.2315 215.722 58.0054 217.498 58.0054 219.758C58.0054 222.018 56.2315 223.794 53.9739 223.794Z" fill="#282828"/>
<path d="M144.94 189.155C150.758 173.153 139.53 154.371 119.863 147.205C100.196 140.039 79.536 147.203 73.7183 163.206C67.9007 179.208 79.1281 197.99 98.7953 205.156C118.463 212.322 139.122 205.158 144.94 189.155Z" fill="#282828"/>
<path d="M109.447 202.001C123.697 202.001 135.248 190.436 135.248 176.171C135.248 161.905 123.697 150.34 109.447 150.34C95.1972 150.34 83.6455 161.905 83.6455 176.171C83.6455 190.436 95.1972 202.001 109.447 202.001Z" fill="#D19442"/>
<path d="M86.5478 182.628C90.1102 182.628 92.9981 179.737 92.9981 176.171C92.9981 172.605 90.1102 169.713 86.5478 169.713C82.9853 169.713 80.0974 172.605 80.0974 176.171C80.0974 179.737 82.9853 182.628 86.5478 182.628Z" fill="white"/>
<path d="M327.147 200.71C325.534 200.71 323.921 199.58 323.276 197.965C322.631 195.866 323.76 193.606 325.856 192.799L361.172 180.853C363.269 180.207 365.526 181.337 366.332 183.436C366.977 185.534 365.849 187.795 363.752 188.602L328.437 200.548C328.114 200.71 327.63 200.71 327.147 200.71Z" fill="#282828"/>
<path d="M362.462 258.827C361.978 258.827 361.656 258.827 361.172 258.666L325.856 246.719C323.76 246.074 322.631 243.652 323.276 241.553C323.921 239.455 326.34 238.325 328.437 238.97L363.752 250.917C365.849 251.563 366.977 253.984 366.332 256.083C365.849 257.859 364.236 258.827 362.462 258.827Z" fill="#282828"/>
<path d="M281.221 205.176C300.888 198.011 312.115 179.229 306.298 163.226C300.48 147.223 279.82 140.06 260.153 147.225C240.486 154.391 229.258 173.173 235.076 189.176C240.894 205.178 261.553 212.342 281.221 205.176Z" fill="#282828"/>
<path d="M270.706 202.001C284.956 202.001 296.508 190.436 296.508 176.171C296.508 161.905 284.956 150.34 270.706 150.34C256.457 150.34 244.905 161.905 244.905 176.171C244.905 190.436 256.457 202.001 270.706 202.001Z" fill="#D19442"/>
<path d="M270.706 194.735C274.713 194.735 277.962 186.062 277.962 175.362C277.962 164.663 274.713 155.99 270.706 155.99C266.698 155.99 263.449 164.663 263.449 175.362C263.449 186.062 266.698 194.735 270.706 194.735Z" fill="#282828"/>
<path d="M246.84 182.627C250.402 182.627 253.29 179.736 253.29 176.169C253.29 172.603 250.402 169.712 246.84 169.712C243.277 169.712 240.389 172.603 240.389 176.169C240.389 179.736 243.277 182.627 246.84 182.627Z" fill="white"/>
<path d="M362.462 223.794H326.018C323.76 223.794 321.986 222.018 321.986 219.758C321.986 217.498 323.76 215.722 326.018 215.722H362.462C364.72 215.722 366.494 217.498 366.494 219.758C366.494 222.018 364.72 223.794 362.462 223.794Z" fill="#282828"/>
<path d="M111.059 194.736C115.067 194.736 118.316 186.062 118.316 175.363C118.316 164.664 115.067 155.99 111.059 155.99C107.051 155.99 103.802 164.664 103.802 175.363C103.802 186.062 107.051 194.736 111.059 194.736Z" fill="#282828"/>
<path d="M255.386 242.844C255.386 222.342 238.776 205.713 218.296 205.713C207.008 205.713 197.01 210.718 190.076 218.628C183.303 210.718 173.144 205.713 161.856 205.713C141.376 205.713 124.766 222.342 124.766 242.844C124.766 247.365 125.572 251.723 127.024 255.759C139.602 290.307 189.915 289.177 189.915 289.177H190.076H190.237C190.237 289.177 240.55 290.307 253.128 255.759C254.58 251.723 255.386 247.365 255.386 242.844Z" fill="#727272"/>
<path d="M174.273 255.275C172.983 255.275 171.854 254.79 171.048 253.66C169.758 251.884 170.08 249.301 171.854 248.01L185.561 237.678V213.623C185.561 211.363 187.335 209.587 189.593 209.587C191.85 209.587 193.624 211.363 193.624 213.623V241.714L176.692 254.467C176.047 255.113 175.241 255.275 174.273 255.275Z" fill="#141414"/>
<path d="M204.912 255.275C204.105 255.275 203.138 254.952 202.493 254.467L185.561 241.714V213.623C185.561 211.363 187.334 209.587 189.592 209.587C191.85 209.587 193.624 211.363 193.624 213.623V237.678L207.331 248.01C209.104 249.301 209.427 251.884 208.137 253.66C207.331 254.79 206.202 255.275 204.912 255.275Z" fill="#141414"/>
<path d="M202.332 209.427L192.495 219.759C190.883 221.373 188.303 221.373 186.851 219.759L177.014 209.427C174.595 207.005 176.369 202.808 179.917 202.808H199.591C202.977 202.808 204.751 206.844 202.332 209.427Z" fill="#282828"/>
<path d="M115.252 130.321C108.963 130.321 102.835 127.899 98.1587 123.218L92.5146 117.567C89.2894 114.339 89.2894 109.334 92.5146 106.105C95.7398 102.876 100.739 102.876 103.964 106.105L109.608 111.756C112.833 114.984 117.994 114.984 121.219 111.756L126.056 106.912C129.282 103.684 134.281 103.684 137.506 106.912C140.731 110.141 140.731 115.146 137.506 118.375L132.668 123.218C127.669 127.899 121.541 130.321 115.252 130.321Z" fill="#282828"/>
<path d="M271.028 130.321C264.578 130.321 258.45 127.738 253.935 123.218L248.291 117.567C245.066 114.339 245.066 109.334 248.291 106.105C251.516 102.876 256.515 102.876 259.74 106.105L265.384 111.756C266.997 113.37 268.932 114.177 271.19 114.177C273.447 114.177 275.382 113.37 276.995 111.756L281.833 106.912C285.058 103.684 290.057 103.684 293.282 106.912C296.507 110.141 296.507 115.146 293.282 118.375L288.445 123.218C283.607 127.738 277.64 130.321 271.028 130.321Z" fill="#282828"/>
</svg>
