<svg width="249" height="174" viewBox="0 0 249 174" fill="none" xmlns="http://www.w3.org/2000/svg">
<path d="M41.6716 170C41.5456 170 41.4686 169.937 41.4406 169.811L38.6476 155.531L38.6476 155.489C38.6476 155.363 38.7106 155.3 38.8366 155.3L40.4956 155.3C40.6356 155.3 40.7126 155.363 40.7266 155.489L42.4276 165.338C42.4416 165.366 42.4556 165.38 42.4696 165.38C42.4836 165.38 42.4976 165.366 42.5116 165.338L44.0236 155.489C44.0376 155.363 44.1076 155.3 44.2336 155.3L45.6406 155.3C45.7666 155.3 45.8366 155.363 45.8506 155.489L47.4676 165.338C47.4816 165.366 47.4956 165.38 47.5096 165.38C47.5236 165.38 47.5376 165.366 47.5516 165.338L49.1056 155.489C49.1336 155.363 49.2036 155.3 49.3156 155.3L50.9536 155.3C51.0236 155.3 51.0726 155.321 51.1006 155.363C51.1426 155.405 51.1566 155.461 51.1426 155.531L48.4966 169.811C48.4826 169.937 48.4056 170 48.2656 170L46.7746 170C46.6626 170 46.5926 169.937 46.5646 169.811L44.9686 159.878C44.9546 159.85 44.9336 159.836 44.9056 159.836C44.8916 159.836 44.8846 159.85 44.8846 159.878L43.3726 169.811C43.3586 169.937 43.2886 170 43.1626 170L41.6716 170ZM53.1897 170C53.0497 170 52.9797 169.93 52.9797 169.79L52.9797 155.51C52.9797 155.37 53.0497 155.3 53.1897 155.3L54.7857 155.3C54.9257 155.3 54.9957 155.37 54.9957 155.51L54.9957 169.79C54.9957 169.93 54.9257 170 54.7857 170L53.1897 170ZM64.671 155.3C64.811 155.3 64.881 155.37 64.881 155.51L64.881 156.833C64.881 156.973 64.811 157.043 64.671 157.043L61.92 157.043C61.864 157.043 61.836 157.071 61.836 157.127L61.836 169.79C61.836 169.93 61.766 170 61.626 170L60.03 170C59.89 170 59.82 169.93 59.82 169.79L59.82 157.127C59.82 157.071 59.792 157.043 59.736 157.043L57.132 157.043C56.992 157.043 56.922 156.973 56.922 156.833L56.922 155.51C56.922 155.37 56.992 155.3 57.132 155.3L64.671 155.3ZM72.1775 155.51C72.1775 155.37 72.2475 155.3 72.3875 155.3L73.9835 155.3C74.1235 155.3 74.1935 155.37 74.1935 155.51L74.1935 169.79C74.1935 169.93 74.1235 170 73.9835 170L72.3875 170C72.2475 170 72.1775 169.93 72.1775 169.79L72.1775 163.595C72.1775 163.539 72.1495 163.511 72.0935 163.511L68.9225 163.511C68.8665 163.511 68.8385 163.539 68.8385 163.595L68.8385 169.79C68.8385 169.93 68.7685 170 68.6285 170L67.0325 170C66.8925 170 66.8225 169.93 66.8225 169.79L66.8225 155.51C66.8225 155.37 66.8925 155.3 67.0325 155.3L68.6285 155.3C68.7685 155.3 68.8385 155.37 68.8385 155.51L68.8385 161.684C68.8385 161.74 68.8665 161.768 68.9225 161.768L72.0935 161.768C72.1495 161.768 72.1775 161.74 72.1775 161.684L72.1775 155.51ZM81.2034 170C81.0634 170 80.9934 169.93 80.9934 169.79L80.9934 155.51C80.9934 155.37 81.0634 155.3 81.2034 155.3L84.6474 155.3C85.8094 155.3 86.7334 155.657 87.4194 156.371C88.1054 157.085 88.4484 158.051 88.4484 159.269L88.4484 166.031C88.4484 167.249 88.1054 168.215 87.4194 168.929C86.7334 169.643 85.8094 170 84.6474 170L81.2034 170ZM83.0094 168.173C83.0094 168.229 83.0374 168.257 83.0934 168.257L84.6264 168.236C85.1584 168.236 85.5854 168.033 85.9074 167.627C86.2294 167.207 86.3974 166.64 86.4114 165.926L86.4114 159.374C86.4114 158.66 86.2504 158.093 85.9284 157.673C85.6064 157.253 85.1724 157.043 84.6264 157.043L83.0934 157.043C83.0374 157.043 83.0094 157.071 83.0094 157.127L83.0094 168.173ZM91.0472 170C90.9072 170 90.8372 169.93 90.8372 169.79L90.8372 155.51C90.8372 155.37 90.9072 155.3 91.0472 155.3L92.6432 155.3C92.7832 155.3 92.8532 155.37 92.8532 155.51L92.8532 169.79C92.8532 169.93 92.7832 170 92.6432 170L91.0472 170ZM102.465 156.833C102.465 156.973 102.395 157.043 102.255 157.043L97.5514 157.043C97.4954 157.043 97.4674 157.071 97.4674 157.127L97.4674 161.684C97.4674 161.74 97.4954 161.768 97.5514 161.768L100.428 161.768C100.568 161.768 100.638 161.838 100.638 161.978L100.638 163.301C100.638 163.441 100.568 163.511 100.428 163.511L97.5514 163.511C97.4954 163.511 97.4674 163.539 97.4674 163.595L97.4674 169.79C97.4674 169.93 97.3974 170 97.2574 170L95.6614 170C95.5214 170 95.4514 169.93 95.4514 169.79L95.4514 155.51C95.4514 155.37 95.5214 155.3 95.6614 155.3L102.255 155.3C102.395 155.3 102.465 155.37 102.465 155.51L102.465 156.833ZM111.079 156.833C111.079 156.973 111.009 157.043 110.869 157.043L106.165 157.043C106.109 157.043 106.081 157.071 106.081 157.127L106.081 161.684C106.081 161.74 106.109 161.768 106.165 161.768L109.042 161.768C109.182 161.768 109.252 161.838 109.252 161.978L109.252 163.301C109.252 163.441 109.182 163.511 109.042 163.511L106.165 163.511C106.109 163.511 106.081 163.539 106.081 163.595L106.081 169.79C106.081 169.93 106.011 170 105.871 170L104.275 170C104.135 170 104.065 169.93 104.065 169.79L104.065 155.51C104.065 155.37 104.135 155.3 104.275 155.3L110.869 155.3C111.009 155.3 111.079 155.37 111.079 155.51L111.079 156.833ZM119.713 156.833C119.713 156.973 119.643 157.043 119.503 157.043L114.778 157.043C114.722 157.043 114.694 157.071 114.694 157.127L114.694 161.684C114.694 161.74 114.722 161.768 114.778 161.768L117.676 161.768C117.816 161.768 117.886 161.838 117.886 161.978L117.886 163.301C117.886 163.441 117.816 163.511 117.676 163.511L114.778 163.511C114.722 163.511 114.694 163.539 114.694 163.595L114.694 168.173C114.694 168.229 114.722 168.257 114.778 168.257L119.503 168.257C119.643 168.257 119.713 168.327 119.713 168.467L119.713 169.79C119.713 169.93 119.643 170 119.503 170L112.888 170C112.748 170 112.678 169.93 112.678 169.79L112.678 155.51C112.678 155.37 112.748 155.3 112.888 155.3L119.503 155.3C119.643 155.3 119.713 155.37 119.713 155.51L119.713 156.833ZM127.58 170C127.454 170 127.37 169.944 127.328 169.832L125.396 163.574C125.382 163.532 125.354 163.511 125.312 163.511L123.842 163.511C123.786 163.511 123.758 163.539 123.758 163.595L123.758 169.79C123.758 169.93 123.688 170 123.548 170L121.952 170C121.812 170 121.742 169.93 121.742 169.79L121.742 155.51C121.742 155.37 121.812 155.3 121.952 155.3L125.711 155.3C126.425 155.3 127.055 155.475 127.601 155.825C128.147 156.175 128.567 156.672 128.861 157.316C129.169 157.946 129.323 158.667 129.323 159.479C129.323 160.361 129.141 161.131 128.777 161.789C128.413 162.433 127.916 162.902 127.286 163.196C127.244 163.238 127.23 163.28 127.244 163.322L129.386 169.769L129.407 169.853C129.407 169.951 129.344 170 129.218 170L127.58 170ZM123.842 157.043C123.786 157.043 123.758 157.071 123.758 157.127L123.758 161.831C123.758 161.887 123.786 161.915 123.842 161.915L125.396 161.915C125.97 161.915 126.432 161.698 126.782 161.264C127.132 160.816 127.307 160.228 127.307 159.5C127.307 158.744 127.132 158.149 126.782 157.715C126.432 157.267 125.97 157.043 125.396 157.043L123.842 157.043ZM138.293 156.833C138.293 156.973 138.223 157.043 138.083 157.043L133.358 157.043C133.302 157.043 133.274 157.071 133.274 157.127L133.274 161.684C133.274 161.74 133.302 161.768 133.358 161.768L136.256 161.768C136.396 161.768 136.466 161.838 136.466 161.978L136.466 163.301C136.466 163.441 136.396 163.511 136.256 163.511L133.358 163.511C133.302 163.511 133.274 163.539 133.274 163.595L133.274 168.173C133.274 168.229 133.302 168.257 133.358 168.257L138.083 168.257C138.223 168.257 138.293 168.327 138.293 168.467L138.293 169.79C138.293 169.93 138.223 170 138.083 170L131.468 170C131.328 170 131.258 169.93 131.258 169.79L131.258 155.51C131.258 155.37 131.328 155.3 131.468 155.3L138.083 155.3C138.223 155.3 138.293 155.37 138.293 155.51L138.293 156.833ZM146.245 155.51C146.245 155.37 146.315 155.3 146.455 155.3L148.03 155.3C148.17 155.3 148.24 155.37 148.24 155.51L148.24 169.79C148.24 169.93 148.17 170 148.03 170L146.224 170C146.112 170 146.035 169.944 145.993 169.832L142.423 160.235C142.409 160.207 142.388 160.2 142.36 160.214C142.332 160.214 142.318 160.228 142.318 160.256L142.339 169.79C142.339 169.93 142.269 170 142.129 170L140.533 170C140.393 170 140.323 169.93 140.323 169.79L140.323 155.51C140.323 155.37 140.393 155.3 140.533 155.3L142.318 155.3C142.43 155.3 142.507 155.356 142.549 155.468L146.14 165.065C146.154 165.107 146.175 165.128 146.203 165.128C146.231 165.114 146.245 165.086 146.245 165.044L146.245 155.51ZM157.92 155.3C158.06 155.3 158.13 155.37 158.13 155.51L158.13 156.833C158.13 156.973 158.06 157.043 157.92 157.043L155.169 157.043C155.113 157.043 155.085 157.071 155.085 157.127L155.085 169.79C155.085 169.93 155.015 170 154.875 170L153.279 170C153.139 170 153.069 169.93 153.069 169.79L153.069 157.127C153.069 157.071 153.041 157.043 152.985 157.043L150.381 157.043C150.241 157.043 150.171 156.973 150.171 156.833L150.171 155.51C150.171 155.37 150.241 155.3 150.381 155.3L157.92 155.3ZM171.353 155.3C171.493 155.3 171.563 155.37 171.563 155.51L171.563 156.833C171.563 156.973 171.493 157.043 171.353 157.043L168.602 157.043C168.546 157.043 168.518 157.071 168.518 157.127L168.518 169.79C168.518 169.93 168.448 170 168.308 170L166.712 170C166.572 170 166.502 169.93 166.502 169.79L166.502 157.127C166.502 157.071 166.474 157.043 166.418 157.043L163.814 157.043C163.674 157.043 163.604 156.973 163.604 156.833L163.604 155.51C163.604 155.37 163.674 155.3 163.814 155.3L171.353 155.3ZM180.539 156.833C180.539 156.973 180.469 157.043 180.329 157.043L175.604 157.043C175.548 157.043 175.52 157.071 175.52 157.127L175.52 161.684C175.52 161.74 175.548 161.768 175.604 161.768L178.502 161.768C178.642 161.768 178.712 161.838 178.712 161.978L178.712 163.301C178.712 163.441 178.642 163.511 178.502 163.511L175.604 163.511C175.548 163.511 175.52 163.539 175.52 163.595L175.52 168.173C175.52 168.229 175.548 168.257 175.604 168.257L180.329 168.257C180.469 168.257 180.539 168.327 180.539 168.467L180.539 169.79C180.539 169.93 180.469 170 180.329 170L173.714 170C173.574 170 173.504 169.93 173.504 169.79L173.504 155.51C173.504 155.37 173.574 155.3 173.714 155.3L180.329 155.3C180.469 155.3 180.539 155.37 180.539 155.51L180.539 156.833ZM188.774 170C188.648 170 188.571 169.937 188.543 169.811L188.081 167.396C188.081 167.368 188.067 167.347 188.039 167.333C188.025 167.319 188.004 167.312 187.976 167.312L184.553 167.312C184.525 167.312 184.497 167.319 184.469 167.333C184.455 167.347 184.448 167.368 184.448 167.396L184.007 169.811C183.993 169.937 183.916 170 183.776 170L182.18 170C182.11 170 182.054 169.979 182.012 169.937C181.984 169.895 181.977 169.839 181.991 169.769L185.12 155.489C185.148 155.363 185.225 155.3 185.351 155.3L187.22 155.3C187.36 155.3 187.437 155.363 187.451 155.489L190.601 169.769L190.601 169.811C190.601 169.937 190.538 170 190.412 170L188.774 170ZM184.805 165.632C184.805 165.688 184.826 165.716 184.868 165.716L187.661 165.716C187.703 165.716 187.724 165.688 187.724 165.632L186.296 158.177C186.282 158.149 186.268 158.135 186.254 158.135C186.24 158.135 186.226 158.149 186.212 158.177L184.805 165.632ZM198.697 155.447C198.753 155.349 198.837 155.3 198.949 155.3L200.545 155.3C200.685 155.3 200.755 155.37 200.755 155.51L200.755 169.79C200.755 169.93 200.685 170 200.545 170L198.949 170C198.809 170 198.739 169.93 198.739 169.79L198.739 159.374C198.739 159.332 198.725 159.311 198.697 159.311C198.683 159.311 198.662 159.325 198.634 159.353L196.618 163.112C196.576 163.21 196.513 163.259 196.429 163.259C196.345 163.259 196.282 163.21 196.24 163.112L194.245 159.374C194.217 159.346 194.189 159.332 194.161 159.332C194.147 159.332 194.14 159.353 194.14 159.395L194.14 169.79C194.14 169.93 194.07 170 193.93 170L192.334 170C192.194 170 192.124 169.93 192.124 169.79L192.124 155.51C192.124 155.37 192.194 155.3 192.334 155.3L193.93 155.3C194.028 155.3 194.112 155.349 194.182 155.447L196.387 159.395C196.401 159.409 196.422 159.416 196.45 159.416C196.478 159.416 196.499 159.409 196.513 159.395L198.697 155.447Z" fill="#F6F6EE"/>
<path d="M83.76 21.56C83.9933 21.1867 84.3433 21 84.81 21L91.25 21C91.4833 21 91.67 21.0933 91.81 21.28C91.9967 21.42 92.09 21.6067 92.09 21.84L92.09 69.16C92.09 69.3933 91.9967 69.6033 91.81 69.79C91.67 69.93 91.4833 70 91.25 70L84.81 70C84.5767 70 84.3667 69.93 84.18 69.79C84.04 69.6033 83.97 69.3933 83.97 69.16L83.97 36.12C83.97 35.9333 83.9233 35.84 83.83 35.84C83.7367 35.84 83.6433 35.91 83.55 36.05L77.46 47.11C77.2267 47.4833 77.0167 47.67 76.83 47.67C76.6433 47.67 76.4333 47.4833 76.2 47.11L70.11 36.05C70.0167 35.91 69.9233 35.84 69.83 35.84C69.7367 35.84 69.69 35.9333 69.69 36.12L69.69 69.16C69.69 69.3933 69.5967 69.6033 69.41 69.79C69.27 69.93 69.0833 70 68.85 70L62.41 70C62.1767 70 61.9667 69.93 61.78 69.79C61.64 69.6033 61.57 69.3933 61.57 69.16L61.57 21.84C61.57 21.6067 61.64 21.42 61.78 21.28C61.9667 21.0933 62.1767 21 62.41 21L68.85 21C69.3167 21 69.6667 21.1867 69.9 21.56L76.69 33.53C76.83 33.7167 76.97 33.7167 77.11 33.53L83.76 21.56ZM111.976 70.56C107.963 70.56 104.719 69.3467 102.246 66.92C99.8193 64.4933 98.606 61.2733 98.606 57.26L98.606 33.74C98.606 29.7267 99.8193 26.5067 102.246 24.08C104.719 21.6533 107.963 20.44 111.976 20.44C115.989 20.44 119.233 21.6533 121.706 24.08C124.179 26.5067 125.416 29.7267 125.416 33.74L125.416 57.26C125.416 61.2733 124.179 64.4933 121.706 66.92C119.233 69.3467 115.989 70.56 111.976 70.56ZM111.976 63.56C113.563 63.56 114.846 63.0233 115.826 61.95C116.806 60.83 117.296 59.3833 117.296 57.61L117.296 33.39C117.296 31.6167 116.806 30.1933 115.826 29.12C114.846 28 113.563 27.44 111.976 27.44C110.389 27.44 109.106 28 108.126 29.12C107.193 30.1933 106.726 31.6167 106.726 33.39L106.726 57.61C106.726 59.3833 107.193 60.83 108.126 61.95C109.106 63.0233 110.389 63.56 111.976 63.56ZM151.512 70C151.045 70 150.742 69.7667 150.602 69.3L144.652 49.21C144.558 49.0233 144.442 48.93 144.302 48.93L140.592 48.93C140.358 48.93 140.242 49.0467 140.242 49.28L140.242 69.16C140.242 69.3933 140.148 69.6033 139.962 69.79C139.822 69.93 139.635 70 139.402 70L132.962 70C132.728 70 132.518 69.93 132.332 69.79C132.192 69.6033 132.122 69.3933 132.122 69.16L132.122 21.84C132.122 21.6067 132.192 21.42 132.332 21.28C132.518 21.0933 132.728 21 132.962 21L146.122 21C148.595 21 150.765 21.6067 152.632 22.82C154.545 23.9867 156.015 25.6667 157.042 27.86C158.115 30.0067 158.652 32.48 158.652 35.28C158.652 38.1733 158.092 40.67 156.972 42.77C155.852 44.87 154.288 46.4567 152.282 47.53C152.095 47.5767 152.025 47.7167 152.072 47.95L158.932 69.02C158.978 69.1133 159.002 69.23 159.002 69.37C159.002 69.79 158.745 70 158.232 70L151.512 70ZM140.592 28C140.358 28 140.242 28.1167 140.242 28.35L140.242 42.28C140.242 42.5133 140.358 42.63 140.592 42.63L144.862 42.63C146.542 42.63 147.895 41.9767 148.922 40.67C149.995 39.3633 150.532 37.59 150.532 35.35C150.532 33.11 149.995 31.3367 148.922 30.03C147.895 28.6767 146.542 28 144.862 28L140.592 28ZM188.817 27.16C188.817 27.3933 188.724 27.6033 188.537 27.79C188.397 27.93 188.211 28 187.977 28L172.857 28C172.624 28 172.507 28.1167 172.507 28.35L172.507 41.58C172.507 41.8133 172.624 41.93 172.857 41.93L181.817 41.93C182.051 41.93 182.237 42.0233 182.377 42.21C182.564 42.35 182.657 42.5367 182.657 42.77L182.657 48.16C182.657 48.3933 182.564 48.6033 182.377 48.79C182.237 48.93 182.051 49 181.817 49L172.857 49C172.624 49 172.507 49.1167 172.507 49.35L172.507 62.65C172.507 62.8833 172.624 63 172.857 63L187.977 63C188.211 63 188.397 63.0933 188.537 63.28C188.724 63.42 188.817 63.6067 188.817 63.84L188.817 69.16C188.817 69.3933 188.724 69.6033 188.537 69.79C188.397 69.93 188.211 70 187.977 70L165.227 70C164.994 70 164.784 69.93 164.597 69.79C164.457 69.6033 164.387 69.3933 164.387 69.16L164.387 21.84C164.387 21.6067 164.457 21.42 164.597 21.28C164.784 21.0933 164.994 21 165.227 21L187.977 21C188.211 21 188.397 21.0933 188.537 21.28C188.724 21.42 188.817 21.6067 188.817 21.84L188.817 27.16Z" fill="white"/>
<path d="M15.96 140.56C12.18 140.56 9.12333 139.417 6.79 137.13C4.50333 134.797 3.36 131.717 3.36 127.89L3.36 103.04C3.36 99.2133 4.50333 96.1567 6.79 93.87C9.12333 91.5833 12.18 90.44 15.96 90.44C19.7867 90.44 22.8433 91.5833 25.13 93.87C27.4633 96.1567 28.63 99.2133 28.63 103.04L28.63 104.16C28.63 104.627 28.3967 104.86 27.93 104.86L22.61 105.14C22.1433 105.14 21.91 104.907 21.91 104.44L21.91 102.62C21.91 100.707 21.35 99.1667 20.23 98C19.1567 96.8333 17.7333 96.25 15.96 96.25C14.1867 96.25 12.7633 96.8333 11.69 98C10.6167 99.1667 10.08 100.707 10.08 102.62L10.08 128.38C10.08 130.293 10.6167 131.833 11.69 133C12.7633 134.167 14.1867 134.75 15.96 134.75C17.7333 134.75 19.1567 134.167 20.23 133C21.35 131.833 21.91 130.293 21.91 128.38L21.91 126.56C21.91 126.093 22.1433 125.86 22.61 125.86L27.93 126.14C28.3967 126.14 28.63 126.373 28.63 126.84L28.63 127.89C28.63 131.717 27.4633 134.797 25.13 137.13C22.8433 139.417 19.7867 140.56 15.96 140.56ZM47.7504 140.56C43.9237 140.56 40.8437 139.393 38.5104 137.06C36.1771 134.727 35.0104 131.623 35.0104 127.75L35.0104 103.32C35.0104 99.4467 36.1771 96.3433 38.5104 94.01C40.8437 91.63 43.9237 90.44 47.7504 90.44C51.6237 90.44 54.7271 91.63 57.0604 94.01C59.4404 96.3433 60.6304 99.4467 60.6304 103.32L60.6304 127.75C60.6304 131.623 59.4404 134.727 57.0604 137.06C54.7271 139.393 51.6237 140.56 47.7504 140.56ZM47.7504 134.75C49.6171 134.75 51.1104 134.143 52.2304 132.93C53.3504 131.67 53.9104 130.037 53.9104 128.03L53.9104 102.97C53.9104 100.963 53.3504 99.3533 52.2304 98.14C51.1104 96.88 49.6171 96.25 47.7504 96.25C45.9304 96.25 44.4604 96.88 43.3404 98.14C42.2671 99.3533 41.7304 100.963 41.7304 102.97L41.7304 128.03C41.7304 130.037 42.2671 131.67 43.3404 132.93C44.4604 134.143 45.9304 134.75 47.7504 134.75ZM69.0244 140C68.5577 140 68.3244 139.767 68.3244 139.3L68.3244 91.7C68.3244 91.2333 68.5577 91 69.0244 91L74.3444 91C74.811 91 75.0444 91.2333 75.0444 91.7L75.0444 133.91C75.0444 134.097 75.1377 134.19 75.3244 134.19L91.0044 134.19C91.471 134.19 91.7044 134.423 91.7044 134.89L91.7044 139.3C91.7044 139.767 91.471 140 91.0044 140L69.0244 140ZM97.5302 140C97.0636 140 96.8302 139.767 96.8302 139.3L96.8302 91.7C96.8302 91.2333 97.0636 91 97.5302 91L102.85 91C103.317 91 103.55 91.2333 103.55 91.7L103.55 133.91C103.55 134.097 103.644 134.19 103.83 134.19L119.51 134.19C119.977 134.19 120.21 134.423 120.21 134.89L120.21 139.3C120.21 139.767 119.977 140 119.51 140L97.5302 140ZM126.036 140C125.569 140 125.336 139.767 125.336 139.3L125.336 91.7C125.336 91.2333 125.569 91 126.036 91L131.356 91C131.823 91 132.056 91.2333 132.056 91.7L132.056 139.3C132.056 139.767 131.823 140 131.356 140L126.036 140ZM151.357 140.56C147.67 140.56 144.684 139.417 142.397 137.13C140.157 134.797 139.037 131.763 139.037 128.03L139.037 126.21C139.037 125.743 139.27 125.51 139.737 125.51L144.917 125.51C145.384 125.51 145.617 125.743 145.617 126.21L145.617 127.68C145.617 129.827 146.154 131.553 147.227 132.86C148.3 134.12 149.677 134.75 151.357 134.75C153.037 134.75 154.414 134.143 155.487 132.93C156.607 131.67 157.167 130.037 157.167 128.03C157.167 126.677 156.864 125.487 156.257 124.46C155.697 123.433 154.927 122.523 153.947 121.73C153.014 120.89 151.474 119.677 149.327 118.09C146.947 116.317 145.08 114.8 143.727 113.54C142.374 112.28 141.23 110.763 140.297 108.99C139.364 107.217 138.897 105.14 138.897 102.76C138.897 98.98 140.017 95.9933 142.257 93.8C144.497 91.56 147.414 90.44 151.007 90.44C154.74 90.44 157.727 91.63 159.967 94.01C162.254 96.39 163.397 99.5167 163.397 103.39L163.397 105.14C163.397 105.607 163.164 105.84 162.697 105.84L157.517 105.84C157.05 105.84 156.817 105.607 156.817 105.14L156.817 103.25C156.817 101.15 156.28 99.47 155.207 98.21C154.134 96.9033 152.734 96.25 151.007 96.25C149.374 96.25 148.044 96.8333 147.017 98C145.99 99.12 145.477 100.707 145.477 102.76C145.477 104.627 145.99 106.213 147.017 107.52C148.044 108.78 150.027 110.483 152.967 112.63C155.767 114.73 157.867 116.433 159.267 117.74C160.714 119.047 161.81 120.493 162.557 122.08C163.35 123.62 163.747 125.463 163.747 127.61C163.747 131.53 162.604 134.68 160.317 137.06C158.03 139.393 155.044 140.56 151.357 140.56ZM171.222 140C170.755 140 170.522 139.767 170.522 139.3L170.522 91.7C170.522 91.2333 170.755 91 171.222 91L176.542 91C177.008 91 177.242 91.2333 177.242 91.7L177.242 139.3C177.242 139.767 177.008 140 176.542 140L171.222 140ZM197.663 140.56C193.836 140.56 190.756 139.393 188.423 137.06C186.089 134.727 184.923 131.623 184.923 127.75L184.923 103.32C184.923 99.4467 186.089 96.3433 188.423 94.01C190.756 91.63 193.836 90.44 197.663 90.44C201.536 90.44 204.639 91.63 206.973 94.01C209.353 96.3433 210.543 99.4467 210.543 103.32L210.543 127.75C210.543 131.623 209.353 134.727 206.973 137.06C204.639 139.393 201.536 140.56 197.663 140.56ZM197.663 134.75C199.529 134.75 201.023 134.143 202.143 132.93C203.263 131.67 203.823 130.037 203.823 128.03L203.823 102.97C203.823 100.963 203.263 99.3533 202.143 98.14C201.023 96.88 199.529 96.25 197.663 96.25C195.843 96.25 194.373 96.88 193.253 98.14C192.179 99.3533 191.643 100.963 191.643 102.97L191.643 128.03C191.643 130.037 192.179 131.67 193.253 132.93C194.373 134.143 195.843 134.75 197.663 134.75ZM237.976 91.7C237.976 91.2333 238.21 91 238.676 91L243.926 91C244.393 91 244.626 91.2333 244.626 91.7L244.626 139.3C244.626 139.767 244.393 140 243.926 140L237.906 140C237.533 140 237.276 139.813 237.136 139.44L225.236 107.45C225.19 107.357 225.12 107.333 225.026 107.38C224.933 107.38 224.886 107.427 224.886 107.52L224.956 139.3C224.956 139.767 224.723 140 224.256 140L218.936 140C218.47 140 218.236 139.767 218.236 139.3L218.236 91.7C218.236 91.2333 218.47 91 218.936 91L224.886 91C225.26 91 225.516 91.1867 225.656 91.56L237.626 123.55C237.673 123.69 237.743 123.76 237.836 123.76C237.93 123.713 237.976 123.62 237.976 123.48L237.976 91.7Z" fill="white"/>
</svg>
