<svg width="860" height="197" viewBox="0 0 860 197" fill="none" xmlns="http://www.w3.org/2000/svg">
<path d="M622.959 191C622.779 191 622.669 190.91 622.629 190.73L618.639 170.33L618.639 170.27C618.639 170.09 618.729 170 618.909 170L621.279 170C621.479 170 621.589 170.09 621.609 170.27L624.039 184.34C624.059 184.38 624.079 184.4 624.099 184.4C624.119 184.4 624.139 184.38 624.159 184.34L626.319 170.27C626.339 170.09 626.439 170 626.619 170L628.629 170C628.809 170 628.909 170.09 628.929 170.27L631.239 184.34C631.259 184.38 631.279 184.4 631.299 184.4C631.319 184.4 631.339 184.38 631.359 184.34L633.579 170.27C633.619 170.09 633.719 170 633.879 170L636.219 170C636.319 170 636.389 170.03 636.429 170.09C636.489 170.15 636.509 170.23 636.489 170.33L632.709 190.73C632.689 190.91 632.579 191 632.379 191L630.249 191C630.089 191 629.989 190.91 629.949 190.73L627.669 176.54C627.649 176.5 627.619 176.48 627.579 176.48C627.559 176.48 627.549 176.5 627.549 176.54L625.389 190.73C625.369 190.91 625.269 191 625.089 191L622.959 191ZM639.414 191C639.214 191 639.114 190.9 639.114 190.7L639.114 170.3C639.114 170.1 639.214 170 639.414 170L641.694 170C641.894 170 641.994 170.1 641.994 170.3L641.994 190.7C641.994 190.9 641.894 191 641.694 191L639.414 191ZM655.816 170C656.016 170 656.116 170.1 656.116 170.3L656.116 172.19C656.116 172.39 656.016 172.49 655.816 172.49L651.886 172.49C651.806 172.49 651.766 172.53 651.766 172.61L651.766 190.7C651.766 190.9 651.666 191 651.466 191L649.186 191C648.986 191 648.886 190.9 648.886 190.7L648.886 172.61C648.886 172.53 648.846 172.49 648.766 172.49L645.046 172.49C644.846 172.49 644.746 172.39 644.746 172.19L644.746 170.3C644.746 170.1 644.846 170 645.046 170L655.816 170ZM666.539 170.3C666.539 170.1 666.639 170 666.839 170L669.119 170C669.319 170 669.419 170.1 669.419 170.3L669.419 190.7C669.419 190.9 669.319 191 669.119 191L666.839 191C666.639 191 666.539 190.9 666.539 190.7L666.539 181.85C666.539 181.77 666.499 181.73 666.419 181.73L661.889 181.73C661.809 181.73 661.769 181.77 661.769 181.85L661.769 190.7C661.769 190.9 661.669 191 661.469 191L659.189 191C658.989 191 658.889 190.9 658.889 190.7L658.889 170.3C658.889 170.1 658.989 170 659.189 170L661.469 170C661.669 170 661.769 170.1 661.769 170.3L661.769 179.12C661.769 179.2 661.809 179.24 661.889 179.24L666.419 179.24C666.499 179.24 666.539 179.2 666.539 179.12L666.539 170.3ZM679.433 191C679.233 191 679.133 190.9 679.133 190.7L679.133 170.3C679.133 170.1 679.233 170 679.433 170L684.353 170C686.013 170 687.333 170.51 688.313 171.53C689.293 172.55 689.783 173.93 689.783 175.67L689.783 185.33C689.783 187.07 689.293 188.45 688.313 189.47C687.333 190.49 686.013 191 684.353 191L679.433 191ZM682.013 188.39C682.013 188.47 682.053 188.51 682.133 188.51L684.323 188.48C685.083 188.48 685.693 188.19 686.153 187.61C686.613 187.01 686.853 186.2 686.873 185.18L686.873 175.82C686.873 174.8 686.643 173.99 686.183 173.39C685.723 172.79 685.103 172.49 684.323 172.49L682.133 172.49C682.053 172.49 682.013 172.53 682.013 172.61L682.013 188.39ZM693.496 191C693.296 191 693.196 190.9 693.196 190.7L693.196 170.3C693.196 170.1 693.296 170 693.496 170L695.776 170C695.976 170 696.076 170.1 696.076 170.3L696.076 190.7C696.076 190.9 695.976 191 695.776 191L693.496 191ZM709.808 172.19C709.808 172.39 709.708 172.49 709.508 172.49L702.788 172.49C702.708 172.49 702.668 172.53 702.668 172.61L702.668 179.12C702.668 179.2 702.708 179.24 702.788 179.24L706.898 179.24C707.098 179.24 707.198 179.34 707.198 179.54L707.198 181.43C707.198 181.63 707.098 181.73 706.898 181.73L702.788 181.73C702.708 181.73 702.668 181.77 702.668 181.85L702.668 190.7C702.668 190.9 702.568 191 702.368 191L700.088 191C699.888 191 699.788 190.9 699.788 190.7L699.788 170.3C699.788 170.1 699.888 170 700.088 170L709.508 170C709.708 170 709.808 170.1 709.808 170.3L709.808 172.19ZM722.112 172.19C722.112 172.39 722.012 172.49 721.812 172.49L715.092 172.49C715.012 172.49 714.972 172.53 714.972 172.61L714.972 179.12C714.972 179.2 715.012 179.24 715.092 179.24L719.202 179.24C719.402 179.24 719.502 179.34 719.502 179.54L719.502 181.43C719.502 181.63 719.402 181.73 719.202 181.73L715.092 181.73C715.012 181.73 714.972 181.77 714.972 181.85L714.972 190.7C714.972 190.9 714.872 191 714.672 191L712.392 191C712.192 191 712.092 190.9 712.092 190.7L712.092 170.3C712.092 170.1 712.192 170 712.392 170L721.812 170C722.012 170 722.112 170.1 722.112 170.3L722.112 172.19ZM734.447 172.19C734.447 172.39 734.347 172.49 734.147 172.49L727.397 172.49C727.317 172.49 727.277 172.53 727.277 172.61L727.277 179.12C727.277 179.2 727.317 179.24 727.397 179.24L731.537 179.24C731.737 179.24 731.837 179.34 731.837 179.54L731.837 181.43C731.837 181.63 731.737 181.73 731.537 181.73L727.397 181.73C727.317 181.73 727.277 181.77 727.277 181.85L727.277 188.39C727.277 188.47 727.317 188.51 727.397 188.51L734.147 188.51C734.347 188.51 734.447 188.61 734.447 188.81L734.447 190.7C734.447 190.9 734.347 191 734.147 191L724.697 191C724.497 191 724.397 190.9 724.397 190.7L724.397 170.3C724.397 170.1 724.497 170 724.697 170L734.147 170C734.347 170 734.447 170.1 734.447 170.3L734.447 172.19ZM745.686 191C745.506 191 745.386 190.92 745.326 190.76L742.566 181.82C742.546 181.76 742.506 181.73 742.446 181.73L740.346 181.73C740.266 181.73 740.226 181.77 740.226 181.85L740.226 190.7C740.226 190.9 740.126 191 739.926 191L737.646 191C737.446 191 737.346 190.9 737.346 190.7L737.346 170.3C737.346 170.1 737.446 170 737.646 170L743.016 170C744.036 170 744.936 170.25 745.716 170.75C746.496 171.25 747.096 171.96 747.516 172.88C747.956 173.78 748.176 174.81 748.176 175.97C748.176 177.23 747.916 178.33 747.396 179.27C746.876 180.19 746.166 180.86 745.266 181.28C745.206 181.34 745.186 181.4 745.206 181.46L748.266 190.67L748.296 190.79C748.296 190.93 748.206 191 748.026 191L745.686 191ZM740.346 172.49C740.266 172.49 740.226 172.53 740.226 172.61L740.226 179.33C740.226 179.41 740.266 179.45 740.346 179.45L742.566 179.45C743.386 179.45 744.046 179.14 744.546 178.52C745.046 177.88 745.296 177.04 745.296 176C745.296 174.92 745.046 174.07 744.546 173.45C744.046 172.81 743.386 172.49 742.566 172.49L740.346 172.49ZM760.99 172.19C760.99 172.39 760.89 172.49 760.69 172.49L753.94 172.49C753.86 172.49 753.82 172.53 753.82 172.61L753.82 179.12C753.82 179.2 753.86 179.24 753.94 179.24L758.08 179.24C758.28 179.24 758.38 179.34 758.38 179.54L758.38 181.43C758.38 181.63 758.28 181.73 758.08 181.73L753.94 181.73C753.86 181.73 753.82 181.77 753.82 181.85L753.82 188.39C753.82 188.47 753.86 188.51 753.94 188.51L760.69 188.51C760.89 188.51 760.99 188.61 760.99 188.81L760.99 190.7C760.99 190.9 760.89 191 760.69 191L751.24 191C751.04 191 750.94 190.9 750.94 190.7L750.94 170.3C750.94 170.1 751.04 170 751.24 170L760.69 170C760.89 170 760.99 170.1 760.99 170.3L760.99 172.19ZM772.349 170.3C772.349 170.1 772.449 170 772.649 170L774.899 170C775.099 170 775.199 170.1 775.199 170.3L775.199 190.7C775.199 190.9 775.099 191 774.899 191L772.319 191C772.159 191 772.049 190.92 771.989 190.76L766.889 177.05C766.869 177.01 766.839 177 766.799 177.02C766.759 177.02 766.739 177.04 766.739 177.08L766.769 190.7C766.769 190.9 766.669 191 766.469 191L764.189 191C763.989 191 763.889 190.9 763.889 190.7L763.889 170.3C763.889 170.1 763.989 170 764.189 170L766.739 170C766.899 170 767.009 170.08 767.069 170.24L772.199 183.95C772.219 184.01 772.249 184.04 772.289 184.04C772.329 184.02 772.349 183.98 772.349 183.92L772.349 170.3ZM789.029 170C789.229 170 789.329 170.1 789.329 170.3L789.329 172.19C789.329 172.39 789.229 172.49 789.029 172.49L785.099 172.49C785.019 172.49 784.979 172.53 784.979 172.61L784.979 190.7C784.979 190.9 784.879 191 784.679 191L782.399 191C782.199 191 782.099 190.9 782.099 190.7L782.099 172.61C782.099 172.53 782.059 172.49 781.979 172.49L778.259 172.49C778.059 172.49 777.959 172.39 777.959 172.19L777.959 170.3C777.959 170.1 778.059 170 778.259 170L789.029 170ZM808.218 170C808.418 170 808.518 170.1 808.518 170.3L808.518 172.19C808.518 172.39 808.418 172.49 808.218 172.49L804.288 172.49C804.208 172.49 804.168 172.53 804.168 172.61L804.168 190.7C804.168 190.9 804.068 191 803.868 191L801.588 191C801.388 191 801.288 190.9 801.288 190.7L801.288 172.61C801.288 172.53 801.248 172.49 801.168 172.49L797.448 172.49C797.248 172.49 797.148 172.39 797.148 172.19L797.148 170.3C797.148 170.1 797.248 170 797.448 170L808.218 170ZM821.342 172.19C821.342 172.39 821.242 172.49 821.042 172.49L814.292 172.49C814.212 172.49 814.172 172.53 814.172 172.61L814.172 179.12C814.172 179.2 814.212 179.24 814.292 179.24L818.432 179.24C818.632 179.24 818.732 179.34 818.732 179.54L818.732 181.43C818.732 181.63 818.632 181.73 818.432 181.73L814.292 181.73C814.212 181.73 814.172 181.77 814.172 181.85L814.172 188.39C814.172 188.47 814.212 188.51 814.292 188.51L821.042 188.51C821.242 188.51 821.342 188.61 821.342 188.81L821.342 190.7C821.342 190.9 821.242 191 821.042 191L811.592 191C811.392 191 811.292 190.9 811.292 190.7L811.292 170.3C811.292 170.1 811.392 170 811.592 170L821.042 170C821.242 170 821.342 170.1 821.342 170.3L821.342 172.19ZM833.105 191C832.925 191 832.815 190.91 832.775 190.73L832.115 187.28C832.115 187.24 832.095 187.21 832.055 187.19C832.035 187.17 832.005 187.16 831.965 187.16L827.075 187.16C827.035 187.16 826.995 187.17 826.955 187.19C826.935 187.21 826.925 187.24 826.925 187.28L826.295 190.73C826.275 190.91 826.165 191 825.965 191L823.685 191C823.585 191 823.505 190.97 823.445 190.91C823.405 190.85 823.395 190.77 823.415 190.67L827.885 170.27C827.925 170.09 828.035 170 828.215 170L830.885 170C831.085 170 831.195 170.09 831.215 170.27L835.715 190.67L835.715 190.73C835.715 190.91 835.625 191 835.445 191L833.105 191ZM827.435 184.76C827.435 184.84 827.465 184.88 827.525 184.88L831.515 184.88C831.575 184.88 831.605 184.84 831.605 184.76L829.565 174.11C829.545 174.07 829.525 174.05 829.505 174.05C829.485 174.05 829.465 174.07 829.445 174.11L827.435 184.76ZM847.282 170.21C847.362 170.07 847.482 170 847.642 170L849.922 170C850.122 170 850.222 170.1 850.222 170.3L850.222 190.7C850.222 190.9 850.122 191 849.922 191L847.642 191C847.442 191 847.342 190.9 847.342 190.7L847.342 175.82C847.342 175.76 847.322 175.73 847.282 175.73C847.262 175.73 847.232 175.75 847.192 175.79L844.312 181.16C844.252 181.3 844.162 181.37 844.042 181.37C843.922 181.37 843.832 181.3 843.772 181.16L840.922 175.82C840.882 175.78 840.842 175.76 840.802 175.76C840.782 175.76 840.772 175.79 840.772 175.85L840.772 190.7C840.772 190.9 840.672 191 840.472 191L838.192 191C837.992 191 837.892 190.9 837.892 190.7L837.892 170.3C837.892 170.1 837.992 170 838.192 170L840.472 170C840.612 170 840.732 170.07 840.832 170.21L843.982 175.85C844.002 175.87 844.032 175.88 844.072 175.88C844.112 175.88 844.142 175.87 844.162 175.85L847.282 170.21Z" fill="#F6F6EE"/>
<path d="M52.992 44.352C53.472 43.584 54.192 43.2 55.152 43.2L68.4 43.2C68.88 43.2 69.264 43.392 69.552 43.776C69.936 44.064 70.128 44.448 70.128 44.928L70.128 142.272C70.128 142.752 69.936 143.184 69.552 143.568C69.264 143.856 68.88 144 68.4 144L55.152 144C54.672 144 54.24 143.856 53.856 143.568C53.568 143.184 53.424 142.752 53.424 142.272L53.424 74.304C53.424 73.92 53.328 73.728 53.136 73.728C52.944 73.728 52.752 73.872 52.56 74.16L40.032 96.912C39.552 97.68 39.12 98.064 38.736 98.064C38.352 98.064 37.92 97.68 37.44 96.912L24.912 74.16C24.72 73.872 24.528 73.728 24.336 73.728C24.144 73.728 24.048 73.92 24.048 74.304L24.048 142.272C24.048 142.752 23.856 143.184 23.472 143.568C23.184 143.856 22.8 144 22.32 144L9.072 144C8.592 144 8.16 143.856 7.776 143.568C7.488 143.184 7.344 142.752 7.344 142.272L7.344 44.928C7.344 44.448 7.488 44.064 7.776 43.776C8.16 43.392 8.592 43.2 9.072 43.2L22.32 43.2C23.28 43.2 24 43.584 24.48 44.352L38.448 68.976C38.736 69.36 39.024 69.36 39.312 68.976L52.992 44.352ZM111.036 145.152C102.78 145.152 96.1084 142.656 91.0204 137.664C86.0284 132.672 83.5324 126.048 83.5324 117.792L83.5324 69.408C83.5324 61.152 86.0284 54.528 91.0204 49.536C96.1084 44.544 102.78 42.048 111.036 42.048C119.292 42.048 125.964 44.544 131.052 49.536C136.14 54.528 138.684 61.152 138.684 69.408L138.684 117.792C138.684 126.048 136.14 132.672 131.052 137.664C125.964 142.656 119.292 145.152 111.036 145.152ZM111.036 130.752C114.3 130.752 116.94 129.648 118.956 127.44C120.972 125.136 121.98 122.16 121.98 118.512L121.98 68.688C121.98 65.04 120.972 62.112 118.956 59.904C116.94 57.6 114.3 56.448 111.036 56.448C107.772 56.448 105.132 57.6 103.116 59.904C101.196 62.112 100.236 65.04 100.236 68.688L100.236 118.512C100.236 122.16 101.196 125.136 103.116 127.44C105.132 129.648 107.772 130.752 111.036 130.752ZM192.367 144C191.407 144 190.783 143.52 190.495 142.56L178.255 101.232C178.063 100.848 177.823 100.656 177.535 100.656L169.903 100.656C169.423 100.656 169.183 100.896 169.183 101.376L169.183 142.272C169.183 142.752 168.991 143.184 168.607 143.568C168.319 143.856 167.935 144 167.455 144L154.207 144C153.727 144 153.295 143.856 152.911 143.568C152.623 143.184 152.479 142.752 152.479 142.272L152.479 44.928C152.479 44.448 152.623 44.064 152.911 43.776C153.295 43.392 153.727 43.2 154.207 43.2L181.279 43.2C186.367 43.2 190.831 44.448 194.671 46.944C198.607 49.344 201.631 52.8 203.743 57.312C205.951 61.728 207.055 66.816 207.055 72.576C207.055 78.528 205.903 83.664 203.599 87.984C201.295 92.304 198.079 95.568 193.951 97.776C193.567 97.872 193.423 98.16 193.519 98.64L207.631 141.984C207.727 142.176 207.775 142.416 207.775 142.704C207.775 143.568 207.247 144 206.191 144L192.367 144ZM169.903 57.6C169.423 57.6 169.183 57.84 169.183 58.32L169.183 86.976C169.183 87.456 169.423 87.696 169.903 87.696L178.687 87.696C182.143 87.696 184.927 86.352 187.039 83.664C189.247 80.976 190.351 77.328 190.351 72.72C190.351 68.112 189.247 64.464 187.039 61.776C184.927 58.992 182.143 57.6 178.687 57.6L169.903 57.6ZM269.11 55.872C269.11 56.352 268.918 56.784 268.534 57.168C268.246 57.456 267.862 57.6 267.382 57.6L236.278 57.6C235.798 57.6 235.558 57.84 235.558 58.32L235.558 85.536C235.558 86.016 235.798 86.256 236.278 86.256L254.71 86.256C255.19 86.256 255.574 86.448 255.862 86.832C256.246 87.12 256.438 87.504 256.438 87.984L256.438 99.072C256.438 99.552 256.246 99.984 255.862 100.368C255.574 100.656 255.19 100.8 254.71 100.8L236.278 100.8C235.798 100.8 235.558 101.04 235.558 101.52L235.558 128.88C235.558 129.36 235.798 129.6 236.278 129.6L267.382 129.6C267.862 129.6 268.246 129.792 268.534 130.176C268.918 130.464 269.11 130.848 269.11 131.328L269.11 142.272C269.11 142.752 268.918 143.184 268.534 143.568C268.246 143.856 267.862 144 267.382 144L220.582 144C220.102 144 219.67 143.856 219.286 143.568C218.998 143.184 218.854 142.752 218.854 142.272L218.854 44.928C218.854 44.448 218.998 44.064 219.286 43.776C219.67 43.392 220.102 43.2 220.582 43.2L267.382 43.2C267.862 43.2 268.246 43.392 268.534 43.776C268.918 44.064 269.11 44.448 269.11 44.928L269.11 55.872Z" fill="white"/>
<path d="M379.832 145.152C372.056 145.152 365.768 142.8 360.968 138.096C356.264 133.296 353.912 126.96 353.912 119.088L353.912 67.968C353.912 60.096 356.264 53.808 360.968 49.104C365.768 44.4 372.056 42.048 379.832 42.048C387.704 42.048 393.992 44.4 398.696 49.104C403.496 53.808 405.896 60.096 405.896 67.968L405.896 70.272C405.896 71.232 405.416 71.712 404.456 71.712L393.512 72.288C392.552 72.288 392.072 71.808 392.072 70.848L392.072 67.104C392.072 63.168 390.92 60 388.616 57.6C386.408 55.2 383.48 54 379.832 54C376.184 54 373.256 55.2 371.048 57.6C368.84 60 367.736 63.168 367.736 67.104L367.736 120.096C367.736 124.032 368.84 127.2 371.048 129.6C373.256 132 376.184 133.2 379.832 133.2C383.48 133.2 386.408 132 388.616 129.6C390.92 127.2 392.072 124.032 392.072 120.096L392.072 116.352C392.072 115.392 392.552 114.912 393.512 114.912L404.456 115.488C405.416 115.488 405.896 115.968 405.896 116.928L405.896 119.088C405.896 126.96 403.496 133.296 398.696 138.096C393.992 142.8 387.704 145.152 379.832 145.152ZM445.229 145.152C437.357 145.152 431.021 142.752 426.221 137.952C421.421 133.152 419.021 126.768 419.021 118.8L419.021 68.544C419.021 60.576 421.421 54.192 426.221 49.392C431.021 44.496 437.357 42.048 445.229 42.048C453.197 42.048 459.581 44.496 464.381 49.392C469.277 54.192 471.725 60.576 471.725 68.544L471.725 118.8C471.725 126.768 469.277 133.152 464.381 137.952C459.581 142.752 453.197 145.152 445.229 145.152ZM445.229 133.2C449.069 133.2 452.141 131.952 454.445 129.456C456.749 126.864 457.901 123.504 457.901 119.376L457.901 67.824C457.901 63.696 456.749 60.384 454.445 57.888C452.141 55.296 449.069 54 445.229 54C441.485 54 438.461 55.296 436.157 57.888C433.949 60.384 432.845 63.696 432.845 67.824L432.845 119.376C432.845 123.504 433.949 126.864 436.157 129.456C438.461 131.952 441.485 133.2 445.229 133.2ZM488.993 144C488.033 144 487.553 143.52 487.553 142.56L487.553 44.64C487.553 43.68 488.033 43.2 488.993 43.2L499.937 43.2C500.897 43.2 501.377 43.68 501.377 44.64L501.377 131.472C501.377 131.856 501.569 132.048 501.953 132.048L534.209 132.048C535.169 132.048 535.649 132.528 535.649 133.488L535.649 142.56C535.649 143.52 535.169 144 534.209 144L488.993 144ZM547.634 144C546.674 144 546.194 143.52 546.194 142.56L546.194 44.64C546.194 43.68 546.674 43.2 547.634 43.2L558.578 43.2C559.538 43.2 560.018 43.68 560.018 44.64L560.018 131.472C560.018 131.856 560.21 132.048 560.594 132.048L592.85 132.048C593.81 132.048 594.29 132.528 594.29 133.488L594.29 142.56C594.29 143.52 593.81 144 592.85 144L547.634 144ZM606.274 144C605.314 144 604.834 143.52 604.834 142.56L604.834 44.64C604.834 43.68 605.314 43.2 606.274 43.2L617.218 43.2C618.178 43.2 618.658 43.68 618.658 44.64L618.658 142.56C618.658 143.52 618.178 144 617.218 144L606.274 144ZM658.363 145.152C650.779 145.152 644.635 142.8 639.931 138.096C635.323 133.296 633.019 127.056 633.019 119.376L633.019 115.632C633.019 114.672 633.499 114.192 634.459 114.192L645.115 114.192C646.075 114.192 646.555 114.672 646.555 115.632L646.555 118.656C646.555 123.072 647.659 126.624 649.867 129.312C652.075 131.904 654.907 133.2 658.363 133.2C661.819 133.2 664.651 131.952 666.859 129.456C669.163 126.864 670.315 123.504 670.315 119.376C670.315 116.592 669.691 114.144 668.443 112.032C667.291 109.92 665.707 108.048 663.691 106.416C661.771 104.688 658.603 102.192 654.187 98.928C649.291 95.28 645.451 92.16 642.667 89.568C639.883 86.976 637.531 83.856 635.611 80.208C633.691 76.56 632.731 72.288 632.731 67.392C632.731 59.616 635.035 53.472 639.643 48.96C644.251 44.352 650.251 42.048 657.643 42.048C665.323 42.048 671.467 44.496 676.075 49.392C680.779 54.288 683.131 60.72 683.131 68.688L683.131 72.288C683.131 73.248 682.651 73.728 681.691 73.728L671.035 73.728C670.075 73.728 669.595 73.248 669.595 72.288L669.595 68.4C669.595 64.08 668.491 60.624 666.283 58.032C664.075 55.344 661.195 54 657.643 54C654.283 54 651.547 55.2 649.435 57.6C647.323 59.904 646.267 63.168 646.267 67.392C646.267 71.232 647.323 74.496 649.435 77.184C651.547 79.776 655.627 83.28 661.675 87.696C667.435 92.016 671.755 95.52 674.635 98.208C677.611 100.896 679.867 103.872 681.403 107.136C683.035 110.304 683.851 114.096 683.851 118.512C683.851 126.576 681.499 133.056 676.795 137.952C672.091 142.752 665.947 145.152 658.363 145.152ZM699.227 144C698.267 144 697.787 143.52 697.787 142.56L697.787 44.64C697.787 43.68 698.267 43.2 699.227 43.2L710.171 43.2C711.131 43.2 711.611 43.68 711.611 44.64L711.611 142.56C711.611 143.52 711.131 144 710.171 144L699.227 144ZM753.62 145.152C745.748 145.152 739.412 142.752 734.612 137.952C729.812 133.152 727.412 126.768 727.412 118.8L727.412 68.544C727.412 60.576 729.812 54.192 734.612 49.392C739.412 44.496 745.748 42.048 753.62 42.048C761.588 42.048 767.972 44.496 772.772 49.392C777.668 54.192 780.116 60.576 780.116 68.544L780.116 118.8C780.116 126.768 777.668 133.152 772.772 137.952C767.972 142.752 761.588 145.152 753.62 145.152ZM753.62 133.2C757.46 133.2 760.532 131.952 762.836 129.456C765.14 126.864 766.292 123.504 766.292 119.376L766.292 67.824C766.292 63.696 765.14 60.384 762.836 57.888C760.532 55.296 757.46 54 753.62 54C749.876 54 746.852 55.296 744.548 57.888C742.34 60.384 741.236 63.696 741.236 67.824L741.236 119.376C741.236 123.504 742.34 126.864 744.548 129.456C746.852 131.952 749.876 133.2 753.62 133.2ZM836.552 44.64C836.552 43.68 837.032 43.2 837.992 43.2L848.792 43.2C849.752 43.2 850.232 43.68 850.232 44.64L850.232 142.56C850.232 143.52 849.752 144 848.792 144L836.408 144C835.64 144 835.112 143.616 834.824 142.848L810.344 77.04C810.248 76.848 810.104 76.8 809.912 76.896C809.72 76.896 809.624 76.992 809.624 77.184L809.768 142.56C809.768 143.52 809.288 144 808.328 144L797.384 144C796.424 144 795.944 143.52 795.944 142.56L795.944 44.64C795.944 43.68 796.424 43.2 797.384 43.2L809.624 43.2C810.392 43.2 810.92 43.584 811.208 44.352L835.832 110.16C835.928 110.448 836.072 110.592 836.264 110.592C836.456 110.496 836.552 110.304 836.552 110.016L836.552 44.64Z" fill="white"/>
</svg>
