<svg width="32" height="32" viewBox="0 0 32 32" fill="none" xmlns="http://www.w3.org/2000/svg">
<g clip-path="url(#clip0_517_10)">
<path d="M27.5517 9.51316C27.6667 9.03948 27.7816 8.5658 27.7816 7.97369C27.7816 6.19737 25.3678 4.0658 24.2184 3.11843C23.8736 2.88159 23.4138 2.88159 22.954 3.11843C22.1494 3.71053 20.8851 4.77632 20.0805 5.96053C19.8506 5.96053 19.5057 5.96053 19.1609 5.96053H12.4943C12.2644 5.96053 11.9195 5.96053 11.6897 5.96053C11 4.89474 9.73563 3.82895 9.04598 3.23685C8.70115 3.00001 8.24138 3.00001 7.78161 3.23685C6.63218 4.18422 4.21839 6.19738 4.21839 8.09211C4.21839 8.5658 4.33333 9.1579 4.44828 9.51316C2.26437 11.6447 1 14.7237 1 18.0395C1 24.6711 6.17241 30 12.6092 30H19.3908C25.8276 30 31 24.6711 31 18.0395C31 14.7237 29.7356 11.7632 27.5517 9.51316Z" fill="#E0A565"/>
<path d="M20.77 21.0001C20.77 19.4606 19.6206 18.2764 18.1263 18.2764C17.3217 18.2764 16.6321 18.6316 16.0574 19.2237C15.5976 18.6316 14.793 18.2764 13.9884 18.2764C12.4942 18.2764 11.3447 19.4606 11.3447 21.0001C11.3447 21.3553 11.4597 21.7106 11.4597 21.9474C12.3792 24.5527 16.0574 24.4343 16.0574 24.4343C16.0574 24.4343 19.7355 24.5527 20.6551 21.9474C20.6551 21.7106 20.77 21.3553 20.77 21.0001Z" fill="#FFF1D2"/>
<path d="M6.17239 17.9211C6.05745 17.9211 6.05745 17.9211 6.17239 17.9211L3.52871 16.9737C3.41377 16.9737 3.29883 16.7369 3.29883 16.6184C3.29883 16.5 3.52871 16.3816 3.64366 16.3816L6.17239 17.2105C6.28733 17.2105 6.40228 17.4474 6.40228 17.5658C6.40228 17.8026 6.28733 17.9211 6.17239 17.9211Z" fill="white"/>
<path d="M3.52871 22.3027C3.41377 22.3027 3.29883 22.1842 3.29883 22.0658C3.29883 21.9474 3.29883 21.7106 3.52871 21.7106L6.05745 20.7632C6.17239 20.7632 6.40228 20.7632 6.40228 21C6.40228 21.1184 6.40228 21.3553 6.17239 21.3553L3.52871 22.3027C3.64366 22.3027 3.64366 22.3027 3.52871 22.3027Z" fill="white"/>
<path d="M6.17239 19.6973H3.52871C3.41377 19.6973 3.29883 19.5789 3.29883 19.3421C3.29883 19.1052 3.41377 18.9868 3.64366 18.9868H6.28733C6.40228 18.9868 6.63216 19.1052 6.63216 19.3421C6.63216 19.5789 6.40228 19.6973 6.17239 19.6973Z" fill="white"/>
<path d="M17.207 19.3422C17.092 19.3422 16.8621 19.4606 16.8621 19.6974C16.8621 19.8158 16.7472 20.0527 16.5173 20.0527C16.4024 20.0527 16.1725 19.9343 16.1725 19.6974V18.6316C16.1725 18.5132 16.0575 18.2764 15.8277 18.2764C15.5978 18.2764 15.4828 18.3948 15.4828 18.6316V19.6974C15.4828 19.8158 15.3679 20.0527 15.138 20.0527C15.0231 20.0527 14.7932 19.9343 14.7932 19.6974C14.7932 19.579 14.6782 19.3422 14.4483 19.3422C14.3334 19.3422 14.1035 19.4606 14.1035 19.6974C14.1035 20.1711 14.4483 20.6448 15.0231 20.6448C15.2529 20.6448 15.4828 20.5264 15.5978 20.4079C15.7127 20.5264 15.9426 20.6448 16.1725 20.6448C16.6323 20.6448 17.092 20.2895 17.092 19.6974C17.4368 19.579 17.3219 19.3422 17.207 19.3422Z" fill="#5B4745"/>
<path d="M16.7469 18.6315L16.1722 19.2236C16.0573 19.3421 15.9423 19.3421 15.8274 19.2236L15.2527 18.6315C15.1377 18.5131 15.2527 18.2763 15.3676 18.2763H16.5171C16.7469 18.1579 16.8619 18.5131 16.7469 18.6315Z" fill="#D37562"/>
<path d="M10.1956 18.3948C11.7192 18.3948 12.9543 17.3874 12.9543 16.1448C12.9543 14.9021 11.7192 13.8948 10.1956 13.8948C8.67209 13.8948 7.43701 14.9021 7.43701 16.1448C7.43701 17.3874 8.67209 18.3948 10.1956 18.3948Z" fill="#7F562E"/>
<path d="M10.1954 18.2763C11.3381 18.2763 12.2644 17.322 12.2644 16.1448C12.2644 14.9675 11.3381 14.0132 10.1954 14.0132C9.05277 14.0132 8.12646 14.9675 8.12646 16.1448C8.12646 17.322 9.05277 18.2763 10.1954 18.2763Z" fill="#B3BF80"/>
<path d="M25.9423 17.9211C25.8273 17.9211 25.7124 17.8026 25.7124 17.6842C25.7124 17.5658 25.7124 17.3289 25.9423 17.3289L28.471 16.5C28.586 16.5 28.8159 16.5 28.8159 16.7368C28.8159 16.8553 28.8159 17.0921 28.586 17.0921L25.9423 17.9211Z" fill="white"/>
<path d="M28.4712 22.3027L25.8275 21.3553C25.7126 21.3553 25.5977 21.1184 25.5977 21C25.5977 20.8816 25.8275 20.7632 25.9425 20.7632L28.4712 21.5921C28.5862 21.5921 28.7011 21.829 28.7011 21.9474C28.7011 22.1842 28.5862 22.3027 28.4712 22.3027Z" fill="white"/>
<path d="M28.4714 19.6973H25.8277C25.7128 19.6973 25.4829 19.5789 25.4829 19.3421C25.4829 19.1052 25.5979 18.9868 25.8277 18.9868H28.4714C28.5864 18.9868 28.8162 19.1052 28.8162 19.3421C28.8162 19.5789 28.7013 19.6973 28.4714 19.6973Z" fill="white"/>
<path d="M21.8045 18.3948C23.3281 18.3948 24.5631 17.3874 24.5631 16.1448C24.5631 14.9021 23.3281 13.8948 21.8045 13.8948C20.281 13.8948 19.0459 14.9021 19.0459 16.1448C19.0459 17.3874 20.281 18.3948 21.8045 18.3948Z" fill="#7F562E"/>
<path d="M21.8048 18.2763C22.9475 18.2763 23.8738 17.322 23.8738 16.1448C23.8738 14.9675 22.9475 14.0132 21.8048 14.0132C20.6621 14.0132 19.7358 14.9675 19.7358 16.1448C19.7358 17.322 20.6621 18.2763 21.8048 18.2763Z" fill="#B3BF80"/>
<path d="M11.2301 13.6579C11.7379 13.6579 12.1496 13.2338 12.1496 12.7106C12.1496 12.1873 11.7379 11.7632 11.2301 11.7632C10.7222 11.7632 10.3105 12.1873 10.3105 12.7106C10.3105 13.2338 10.7222 13.6579 11.2301 13.6579Z" fill="#FFF1D2"/>
<path d="M20.6554 13.6579C21.1632 13.6579 21.5749 13.2338 21.5749 12.7106C21.5749 12.1873 21.1632 11.7632 20.6554 11.7632C20.1475 11.7632 19.7358 12.1873 19.7358 12.7106C19.7358 13.2338 20.1475 13.6579 20.6554 13.6579Z" fill="#FFF1D2"/>
<path d="M21.8045 17.5657C22.3758 17.5657 22.839 16.9295 22.839 16.1447C22.839 15.3599 22.3758 14.7236 21.8045 14.7236C21.2332 14.7236 20.77 15.3599 20.77 16.1447C20.77 16.9295 21.2332 17.5657 21.8045 17.5657Z" fill="#4C4C4C"/>
<path d="M10.1956 17.5657C10.7669 17.5657 11.2301 16.9295 11.2301 16.1447C11.2301 15.3599 10.7669 14.7236 10.1956 14.7236C9.62429 14.7236 9.16113 15.3599 9.16113 16.1447C9.16113 16.9295 9.62429 17.5657 10.1956 17.5657Z" fill="#4C4C4C"/>
<path d="M9.62054 6.43424C9.62054 5.60529 8.93089 5.01318 8.12629 5.01318C7.32169 5.01318 6.5171 5.60529 6.5171 6.43424C6.5171 6.55266 6.5171 6.67108 6.5171 6.67108C6.17227 6.90792 5.94238 7.26318 5.94238 7.61845C5.94238 8.21055 6.40215 8.56581 6.97687 8.56581C7.20675 8.56581 7.43664 8.44739 7.55158 8.44739C7.78146 8.56582 7.89641 8.68424 8.12629 8.68424C8.701 8.68424 9.16077 8.21055 9.16077 7.73687C9.16077 7.61845 9.16077 7.61845 9.16077 7.50003C9.39066 7.14476 9.62054 6.7895 9.62054 6.43424Z" fill="#FFF1D2"/>
<path d="M22.4941 6.43424C22.4941 5.60529 23.1838 5.01318 23.9884 5.01318C24.793 5.01318 25.4826 5.60529 25.4826 6.43424C25.4826 6.55266 25.4826 6.67108 25.4826 6.67108C25.8275 6.7895 26.0574 7.14476 26.0574 7.61845C26.0574 8.21055 25.5976 8.56581 25.0229 8.56581C24.793 8.56581 24.5631 8.44739 24.4482 8.44739C24.3332 8.56582 24.1033 8.56581 23.8734 8.56581C23.2987 8.56581 22.839 8.09213 22.839 7.61845C22.839 7.50003 22.839 7.50003 22.839 7.3816C22.6091 7.14476 22.4941 6.7895 22.4941 6.43424Z" fill="#FFF1D2"/>
<mask id="mask0_517_10" style="mask-type:luminance" maskUnits="userSpaceOnUse" x="1" y="2" width="30" height="28">
<path d="M27.5517 9.51316C27.6667 9.03948 27.7816 8.5658 27.7816 7.97369C27.7816 6.19737 25.3678 4.0658 24.2184 3.11843C23.8736 2.88159 23.4138 2.88159 22.954 3.11843C22.1494 3.71053 20.8851 4.77632 20.0805 5.96053C19.8506 5.96053 19.5057 5.96053 19.1609 5.96053H12.4943C12.2644 5.96053 11.9195 5.96053 11.6897 5.96053C11 4.89474 9.73563 3.82895 9.04598 3.23685C8.70115 3.00001 8.24138 3.00001 7.78161 3.23685C6.63218 4.18422 4.21839 6.19738 4.21839 8.09211C4.21839 8.5658 4.33333 9.1579 4.44828 9.51316C2.26437 11.6447 1 14.7237 1 18.0395C1 24.6711 6.17241 30 12.6092 30H19.3908C25.8276 30 31 24.6711 31 18.0395C31 14.7237 29.7356 11.7632 27.5517 9.51316Z" fill="white"/>
</mask>
<g mask="url(#mask0_517_10)">
<path d="M13.9883 13.421C13.6435 13.421 13.4136 13.1842 13.4136 12.8289V5.96051C13.4136 5.60525 13.6435 5.36841 13.9883 5.36841C14.3331 5.36841 14.563 5.60525 14.563 5.96051V12.8289C14.563 13.1842 14.3331 13.421 13.9883 13.421Z" fill="#7F562E"/>
</g>
<mask id="mask1_517_10" style="mask-type:luminance" maskUnits="userSpaceOnUse" x="1" y="2" width="30" height="28">
<path d="M27.5517 9.51316C27.6667 9.03948 27.7816 8.5658 27.7816 7.97369C27.7816 6.19737 25.3678 4.0658 24.2184 3.11843C23.8736 2.88159 23.4138 2.88159 22.954 3.11843C22.1494 3.71053 20.8851 4.77632 20.0805 5.96053C19.8506 5.96053 19.5057 5.96053 19.1609 5.96053H12.4943C12.2644 5.96053 11.9195 5.96053 11.6897 5.96053C11 4.89474 9.73563 3.82895 9.04598 3.23685C8.70115 3.00001 8.24138 3.00001 7.78161 3.23685C6.63218 4.18422 4.21839 6.19738 4.21839 8.09211C4.21839 8.5658 4.33333 9.1579 4.44828 9.51316C2.26437 11.6447 1 14.7237 1 18.0395C1 24.6711 6.17241 30 12.6092 30H19.3908C25.8276 30 31 24.6711 31 18.0395C31 14.7237 29.7356 11.7632 27.5517 9.51316Z" fill="white"/>
</mask>
<g mask="url(#mask1_517_10)">
<path d="M16.0576 13.421C15.7128 13.421 15.4829 13.1842 15.4829 12.8289V6.07892C15.4829 5.72366 15.7128 5.48682 16.0576 5.48682C16.4025 5.48682 16.6323 5.72366 16.6323 6.07892V12.9473C16.6323 13.1842 16.4025 13.421 16.0576 13.421Z" fill="#7F562E"/>
</g>
<mask id="mask2_517_10" style="mask-type:luminance" maskUnits="userSpaceOnUse" x="1" y="2" width="30" height="28">
<path d="M27.5517 9.51316C27.6667 9.03948 27.7816 8.5658 27.7816 7.97369C27.7816 6.19737 25.3678 4.0658 24.2184 3.11843C23.8736 2.88159 23.4138 2.88159 22.954 3.11843C22.1494 3.71053 20.8851 4.77632 20.0805 5.96053C19.8506 5.96053 19.5057 5.96053 19.1609 5.96053H12.4943C12.2644 5.96053 11.9195 5.96053 11.6897 5.96053C11 4.89474 9.73563 3.82895 9.04598 3.23685C8.70115 3.00001 8.24138 3.00001 7.78161 3.23685C6.63218 4.18422 4.21839 6.19738 4.21839 8.09211C4.21839 8.5658 4.33333 9.1579 4.44828 9.51316C2.26437 11.6447 1 14.7237 1 18.0395C1 24.6711 6.17241 30 12.6092 30H19.3908C25.8276 30 31 24.6711 31 18.0395C31 14.7237 29.7356 11.7632 27.5517 9.51316Z" fill="white"/>
</mask>
<g mask="url(#mask2_517_10)">
<path d="M18.1265 13.5394C17.7816 13.5394 17.5518 13.3026 17.5518 12.9473V6.07892C17.5518 5.72366 17.7816 5.48682 18.1265 5.48682C18.4713 5.48682 18.7012 5.72366 18.7012 6.07892V12.9473C18.7012 13.3026 18.3564 13.5394 18.1265 13.5394Z" fill="#7F562E"/>
</g>
<path d="M23.0691 17.6842C23.4499 17.6842 23.7587 17.3661 23.7587 16.9737C23.7587 16.5813 23.4499 16.2632 23.0691 16.2632C22.6882 16.2632 22.3794 16.5813 22.3794 16.9737C22.3794 17.3661 22.6882 17.6842 23.0691 17.6842Z" fill="white"/>
<path d="M11.4597 17.8026C11.8406 17.8026 12.1493 17.4845 12.1493 17.0921C12.1493 16.6997 11.8406 16.3816 11.4597 16.3816C11.0788 16.3816 10.77 16.6997 10.77 17.0921C10.77 17.4845 11.0788 17.8026 11.4597 17.8026Z" fill="white"/>
</g>
<defs>
<clipPath id="clip0_517_10">
<rect width="30" height="27" fill="white" transform="translate(1 3)"/>
</clipPath>
</defs>
</svg>
