<svg width="183" height="547" viewBox="0 0 183 547" fill="none" xmlns="http://www.w3.org/2000/svg">
<line x1="91.5" y1="102.5" x2="91.5" y2="455.5" stroke="#E5E5E5" stroke-width="183" stroke-linecap="round"/>
<path d="M162.005 38.7518C163.07 35.98 163.638 32.995 163.638 29.7968C163.638 19.065 148.871 6.55636 141.772 1.22599C139.571 -0.408662 136.518 -0.408662 134.389 1.22599C129.845 4.7085 122.036 11.1049 117.138 18.141C115.363 17.9989 113.588 17.9278 111.813 17.9278H70.9924C69.3596 17.9278 67.6558 17.9989 66.023 18.07C61.0535 11.1049 53.3153 4.63742 48.7718 1.22599C46.571 -0.408662 43.5184 -0.408662 41.3886 1.22599C34.2893 6.62743 19.5229 19.065 19.5229 29.7968C19.5229 32.8529 20.0908 35.7668 21.0137 38.4675C8.02213 51.3315 0 69.2415 0 88.9284C0 128.16 31.8046 160 70.9924 160H111.813C151.001 160 182.806 128.16 182.806 88.9284C182.806 69.3126 174.854 51.6158 162.005 38.7518Z" fill="#E5E5E5"/>
<path d="M85.2619 37.7569C75.82 28.3043 60.4856 28.3043 51.0436 37.7569C45.8612 42.9451 43.5184 49.9101 44.0154 56.733C37.2001 56.2355 30.2428 58.5809 25.0604 63.7691C15.6184 73.2216 15.6184 88.5731 25.0604 98.0256C27.1192 100.087 29.5329 101.721 32.0176 102.93C40.1108 106.696 49.1978 107.052 57.9299 106.128C67.3009 105.133 78.3757 104.351 85.4039 97.2438C92.6452 89.8524 93.3551 77.9834 93.994 68.2466C94.7749 57.4437 93.1421 45.6458 85.2619 37.7569Z" fill="#727272"/>
<path d="M120.19 105.772C120.19 96.7462 112.878 89.4258 103.862 89.4258C98.8924 89.4258 94.4909 91.629 91.4382 95.1115C88.4565 91.629 83.984 89.4258 79.0145 89.4258C69.9985 89.4258 62.6862 96.7462 62.6862 105.772C62.6862 107.762 63.0412 109.681 63.6802 111.458C69.2176 126.667 91.3672 126.17 91.3672 126.17H91.4382H91.5092C91.5092 126.17 113.659 126.667 119.196 111.458C119.835 109.681 120.19 107.762 120.19 105.772Z" fill="white"/>
<path d="M30.5267 88.3602C30.3138 88.3602 30.1718 88.3602 29.9588 88.2891L14.4114 83.0298C13.4885 82.7455 12.9916 81.6795 13.2756 80.7555C13.5595 79.8316 14.6244 79.3341 15.5473 79.6184L31.0947 84.8777C32.0176 85.162 32.5145 86.228 32.2305 87.152C31.9466 87.9338 31.3076 88.3602 30.5267 88.3602Z" fill="#A3A3A3"/>
<path d="M14.9794 113.946C14.2694 113.946 13.5595 113.448 13.2756 112.737C12.9916 111.813 13.4885 110.818 14.4114 110.463L29.9588 105.204C30.8817 104.92 31.8756 105.417 32.2305 106.341C32.5145 107.265 32.0176 108.26 31.0947 108.615L15.5473 113.875C15.3343 113.946 15.1923 113.946 14.9794 113.946Z" fill="#A3A3A3"/>
<path d="M31.0235 98.5228H14.9792C13.9853 98.5228 13.2044 97.741 13.2044 96.746C13.2044 95.751 13.9853 94.9692 14.9792 94.9692H31.0235C32.0174 94.9692 32.7983 95.751 32.7983 96.746C32.7983 97.741 32.0174 98.5228 31.0235 98.5228Z" fill="#A3A3A3"/>
<path d="M152.279 88.3602C151.569 88.3602 150.859 87.8627 150.575 87.152C150.291 86.228 150.788 85.233 151.711 84.8777L167.258 79.6184C168.181 79.3341 169.175 79.8316 169.53 80.7555C169.814 81.6795 169.317 82.6745 168.394 83.0298L152.847 88.2891C152.634 88.3602 152.421 88.3602 152.279 88.3602Z" fill="#A3A3A3"/>
<path d="M167.826 113.946C167.613 113.946 167.471 113.946 167.258 113.875L151.711 108.615C150.788 108.331 150.291 107.265 150.575 106.341C150.859 105.417 151.924 104.92 152.847 105.204L168.394 110.463C169.317 110.747 169.814 111.813 169.53 112.737C169.246 113.519 168.607 113.946 167.826 113.946Z" fill="#A3A3A3"/>
<path d="M167.826 98.5228H151.782C150.788 98.5228 150.007 97.741 150.007 96.746C150.007 95.751 150.788 94.9692 151.782 94.9692H167.826C168.82 94.9692 169.601 95.751 169.601 96.746C169.601 97.741 168.82 98.5228 167.826 98.5228Z" fill="#A3A3A3"/>
<path d="M67.3006 79.9021H50.9724C48.9846 79.9021 47.4228 78.3385 47.4228 76.3485C47.4228 74.3585 48.9846 72.7949 50.9724 72.7949H67.3006C69.2884 72.7949 70.8503 74.3585 70.8503 76.3485C70.8503 78.3385 69.2884 79.9021 67.3006 79.9021Z" fill="white"/>
<path d="M131.833 79.9021H115.505C113.517 79.9021 111.955 78.3385 111.955 76.3485C111.955 74.3585 113.517 72.7949 115.505 72.7949H131.833C133.821 72.7949 135.383 74.3585 135.383 76.3485C135.383 78.3385 133.75 79.9021 131.833 79.9021Z" fill="#727272"/>
<mask id="mask0_174_1423" style="mask-type:luminance" maskUnits="userSpaceOnUse" x="0" y="0" width="183" height="160">
<path d="M162.005 38.7518C163.07 35.98 163.638 32.995 163.638 29.7968C163.638 19.065 148.871 6.55636 141.772 1.22599C139.571 -0.408662 136.518 -0.408662 134.389 1.22599C129.845 4.7085 122.036 11.1049 117.138 18.141C115.363 17.9989 113.588 17.9278 111.813 17.9278H70.9924C69.3596 17.9278 67.6558 17.9989 66.023 18.07C61.0535 11.1049 53.3153 4.63742 48.7718 1.22599C46.571 -0.408662 43.5184 -0.408662 41.3886 1.22599C34.2893 6.62743 19.5229 19.065 19.5229 29.7968C19.5229 32.8529 20.0908 35.7668 21.0137 38.4675C8.02213 51.3315 0 69.2415 0 88.9284C0 128.16 31.8046 160 70.9924 160H111.813C151.001 160 182.806 128.16 182.806 88.9284C182.806 69.3126 174.854 51.6158 162.005 38.7518Z" fill="white"/>
</mask>
<g mask="url(#mask0_174_1423)">
<path d="M127.573 63.4846C120.829 63.4846 114.866 58.6518 113.588 51.7578C107.98 20.2731 77.8787 15.1559 76.6009 14.9427H76.6719L80.7894 -13.2017C82.1383 -12.9884 94.349 -11.0695 107.696 -3.03842C126.012 8.04876 137.796 25.2481 141.63 46.7117C142.979 54.4585 137.867 61.85 130.129 63.2003C129.277 63.4136 128.425 63.4846 127.573 63.4846Z" fill="#727272"/>
</g>
<path d="M91.4382 104.919C90.4443 104.919 89.6634 104.138 89.6634 103.143V94.2587C89.6634 93.2637 90.4443 92.4819 91.4382 92.4819C92.4321 92.4819 93.213 93.2637 93.213 94.2587V103.143C93.213 104.138 92.3611 104.919 91.4382 104.919Z" fill="black"/>
<path d="M91.438 107.052C85.8296 107.052 80.1502 104.991 80.1502 101.082C80.1502 100.087 80.9311 99.3052 81.925 99.3052C82.9189 99.3052 83.6998 100.087 83.6998 101.082C83.6998 101.722 86.3976 103.498 91.438 103.498C96.4785 103.498 99.1762 101.722 99.1762 101.082C99.1762 100.087 99.9571 99.3052 100.951 99.3052C101.945 99.3052 102.726 100.087 102.726 101.082C102.726 104.991 97.0464 107.052 91.438 107.052Z" fill="black"/>
<path d="M96.7627 92.1978L92.5741 96.5332C91.9352 97.2439 90.7993 97.2439 90.1604 96.5332L85.9718 92.1978C84.9779 91.1318 85.6878 89.355 87.1787 89.355H95.5558C97.0466 89.4261 97.8275 91.2028 96.7627 92.1978Z" fill="#FFB4B4"/>
<path d="M35.1413 21.8366C35.1413 24.6794 37.4841 27.0248 40.3238 27.0248C42.5955 27.0248 44.5123 25.5323 45.2222 23.4712H45.7192C46.4291 25.5323 48.3459 27.0248 50.6177 27.0248C53.4574 27.0248 55.8001 24.6794 55.8001 21.8366C55.8001 20.1309 55.0192 18.6384 53.7413 17.7144L47.565 11.2469C46.4291 10.1098 44.5833 10.1098 43.5184 11.2469L37.4841 17.5723C35.9932 18.4962 35.1413 20.0598 35.1413 21.8366Z" fill="#FFB4B4"/>
<path d="M147.664 21.8366C147.664 24.6794 145.322 27.0248 142.482 27.0248C140.21 27.0248 138.293 25.5323 137.583 23.4712H137.086C136.377 25.5323 134.46 27.0248 132.188 27.0248C129.348 27.0248 127.005 24.6794 127.005 21.8366C127.005 20.1309 127.786 18.6384 129.064 17.7144L135.241 11.2469C136.377 10.1098 138.222 10.1098 139.287 11.2469L145.322 17.5723C146.812 18.4962 147.664 20.0598 147.664 21.8366Z" fill="#FFB4B4"/>
</svg>
