<svg width="206" height="180" viewBox="0 0 206 180" fill="none" xmlns="http://www.w3.org/2000/svg">
<path d="M182.459 43.5958C183.658 40.4775 184.298 37.1194 184.298 33.5214C184.298 21.4481 167.667 7.3759 159.671 1.37923C157.193 -0.459745 153.755 -0.459745 151.356 1.37923C146.239 5.29706 137.444 12.4931 131.927 20.4087C129.928 20.2487 127.929 20.1688 125.93 20.1688H79.9556C78.1166 20.1688 76.1977 20.2488 74.3587 20.3287C68.7618 12.4931 60.0466 5.2171 54.9295 1.37923C52.4509 -0.459745 49.0128 -0.459745 46.6141 1.37923C38.6185 7.3759 21.9878 21.4481 21.9878 33.5214C21.9878 36.9595 22.6274 40.2376 23.6668 43.276C9.03498 57.7479 0 77.8967 0 100.044C0 144.18 35.8201 180 79.9556 180H125.93C170.066 180 205.886 144.18 205.886 100.044C205.886 77.9767 196.931 58.0677 182.459 43.5958Z" fill="#E5E5E5"/>
<path d="M96.8262 42.4763C86.1922 31.8422 68.9217 31.8422 58.2877 42.4763C52.4509 48.3131 49.8124 56.1487 50.372 63.8244C42.6963 63.2648 34.8607 65.9033 29.0239 71.74C18.3898 82.3741 18.3898 99.6445 29.0239 110.279C31.3426 112.597 34.0611 114.436 36.8596 115.796C45.9745 120.033 56.2088 120.433 66.0433 119.394C76.5975 118.274 89.0706 117.395 96.9862 109.399C105.142 101.084 105.941 87.7312 106.661 76.7772C107.54 64.624 105.701 51.3514 96.8262 42.4763Z" fill="#727272"/>
<path d="M153.275 118.994C153.275 108.839 145.039 100.604 134.885 100.604C129.288 100.604 124.331 103.083 120.893 107C117.535 103.083 112.498 100.604 106.901 100.604C96.7463 100.604 88.5109 108.839 88.5109 118.994C88.5109 121.233 88.9106 123.391 89.6302 125.39C95.8668 142.501 120.813 141.941 120.813 141.941H120.893H120.973C120.973 141.941 145.919 142.501 152.156 125.39C152.875 123.391 153.275 121.233 153.275 118.994Z" fill="white"/>
<path d="M47.1738 99.4048C46.9339 99.4048 46.774 99.4048 46.5341 99.3248L29.0239 93.4081C27.9844 93.0883 27.4248 91.889 27.7446 90.8495C28.0644 89.8101 29.2637 89.2504 30.3032 89.5703L47.8134 95.487C48.8529 95.8068 49.4125 97.0061 49.0927 98.0455C48.7729 98.9251 48.0533 99.4048 47.1738 99.4048Z" fill="#A3A3A3"/>
<path d="M29.6635 128.189C28.864 128.189 28.0644 127.629 27.7446 126.829C27.4248 125.79 27.9844 124.671 29.0239 124.271L46.5341 118.354C47.5736 118.034 48.6929 118.594 49.0927 119.633C49.4125 120.673 48.8529 121.792 47.8134 122.192L30.3032 128.109C30.0633 128.189 29.8234 128.189 29.6635 128.189Z" fill="#A3A3A3"/>
<path d="M47.7335 110.838H29.6635C28.5441 110.838 27.6646 109.959 27.6646 108.839C27.6646 107.72 28.5441 106.841 29.6635 106.841H47.7335C48.8528 106.841 49.7324 107.72 49.7324 108.839C49.7324 109.959 48.7729 110.838 47.7335 110.838Z" fill="#A3A3A3"/>
<path d="M176.302 99.4048C175.502 99.4048 174.703 98.8451 174.383 98.0455C174.063 97.0061 174.623 95.8867 175.662 95.487L193.173 89.5703C194.212 89.2504 195.331 89.8101 195.731 90.8495C196.051 91.889 195.491 93.0083 194.452 93.4081L176.942 99.3248C176.702 99.4048 176.462 99.4048 176.302 99.4048Z" fill="#A3A3A3"/>
<path d="M193.812 128.189C193.572 128.189 193.413 128.189 193.173 128.109L175.662 122.192C174.623 121.872 174.063 120.673 174.383 119.633C174.703 118.594 175.902 118.034 176.942 118.354L194.452 124.271C195.491 124.591 196.051 125.79 195.731 126.829C195.411 127.709 194.612 128.189 193.812 128.189Z" fill="#A3A3A3"/>
<path d="M193.812 110.838H175.742C174.623 110.838 173.743 109.959 173.743 108.839C173.743 107.72 174.623 106.841 175.742 106.841H193.812C194.932 106.841 195.811 107.72 195.811 108.839C195.811 109.959 194.932 110.838 193.812 110.838Z" fill="#A3A3A3"/>
<path d="M85.7124 89.8901H67.3226C65.0839 89.8901 63.3248 88.1311 63.3248 85.8923C63.3248 83.6536 65.0839 81.8945 67.3226 81.8945H85.7124C87.9511 81.8945 89.7102 83.6536 89.7102 85.8923C89.7102 88.1311 87.9511 89.8901 85.7124 89.8901Z" fill="white"/>
<path d="M158.392 89.8901H140.002C137.763 89.8901 136.004 88.1311 136.004 85.8923C136.004 83.6536 137.763 81.8945 140.002 81.8945H158.392C160.631 81.8945 162.39 83.6536 162.39 85.8923C162.39 88.1311 160.551 89.8901 158.392 89.8901Z" fill="#727272"/>
<mask id="mask0_450_2568" style="mask-type:luminance" maskUnits="userSpaceOnUse" x="0" y="0" width="206" height="180">
<path d="M182.459 43.5958C183.658 40.4775 184.298 37.1194 184.298 33.5214C184.298 21.4481 167.667 7.3759 159.671 1.37923C157.193 -0.459745 153.755 -0.459745 151.356 1.37923C146.239 5.29706 137.444 12.4931 131.927 20.4087C129.928 20.2487 127.929 20.1688 125.93 20.1688H79.9556C78.1166 20.1688 76.1977 20.2488 74.3587 20.3287C68.7618 12.4931 60.0466 5.2171 54.9295 1.37923C52.4509 -0.459745 49.0128 -0.459745 46.6141 1.37923C38.6185 7.3759 21.9878 21.4481 21.9878 33.5214C21.9878 36.9595 22.6274 40.2376 23.6668 43.276C9.03498 57.7479 0 77.8967 0 100.044C0 144.18 35.8201 180 79.9556 180H125.93C170.066 180 205.886 144.18 205.886 100.044C205.886 77.9767 196.931 58.0677 182.459 43.5958Z" fill="white"/>
</mask>
<g mask="url(#mask0_450_2568)">
<path d="M130.088 71.4203C122.492 71.4203 115.776 65.9833 114.336 58.2276C108.02 22.8073 74.1188 17.0505 72.6796 16.8106H72.7596L77.397 -14.8518C78.9162 -14.6119 92.6685 -12.4531 107.7 -3.41816C128.329 9.05491 141.601 28.4042 145.919 52.5507C147.438 61.2659 141.681 69.5813 132.966 71.1004C132.007 71.3403 131.047 71.4203 130.088 71.4203Z" fill="#727272"/>
</g>
<path d="M120.893 118.034C119.773 118.034 118.894 117.155 118.894 116.036V106.041C118.894 104.922 119.773 104.042 120.893 104.042C122.012 104.042 122.892 104.922 122.892 106.041V116.036C122.892 117.155 121.932 118.034 120.893 118.034Z" fill="black"/>
<path d="M120.893 120.433C114.576 120.433 108.18 118.114 108.18 113.717C108.18 112.598 109.059 111.718 110.179 111.718C111.298 111.718 112.178 112.598 112.178 113.717C112.178 114.437 115.216 116.435 120.893 116.435C126.57 116.435 129.608 114.437 129.608 113.717C129.608 112.598 130.487 111.718 131.607 111.718C132.726 111.718 133.606 112.598 133.606 113.717C133.606 118.114 127.209 120.433 120.893 120.433Z" fill="black"/>
<path d="M126.89 103.722L122.172 108.6C121.453 109.399 120.173 109.399 119.454 108.6L114.736 103.722C113.617 102.523 114.416 100.524 116.096 100.524H125.53C127.209 100.604 128.089 102.603 126.89 103.722Z" fill="#FFB4B4"/>
<path d="M39.578 24.5665C39.578 27.7647 42.2165 30.4032 45.4148 30.4032C47.9733 30.4032 50.1321 28.7241 50.9317 26.4054H51.4914C52.2909 28.7241 54.4497 30.4032 57.0083 30.4032C60.2065 30.4032 62.8451 27.7647 62.8451 24.5665C62.8451 22.6475 61.9656 20.9684 60.5264 19.929L53.5702 12.6531C52.2909 11.3738 50.2121 11.3738 49.0128 12.6531L42.2165 19.7691C40.5375 20.8085 39.578 22.5676 39.578 24.5665Z" fill="#FFB4B4"/>
<path d="M166.308 24.5665C166.308 27.7647 163.669 30.4032 160.471 30.4032C157.912 30.4032 155.753 28.7241 154.954 26.4054H154.394C153.595 28.7241 151.436 30.4032 148.877 30.4032C145.679 30.4032 143.041 27.7647 143.041 24.5665C143.041 22.6475 143.92 20.9684 145.359 19.929L152.315 12.6531C153.595 11.3738 155.674 11.3738 156.873 12.6531L163.669 19.7691C165.348 20.8085 166.308 22.5676 166.308 24.5665Z" fill="#FFB4B4"/>
</svg>
