<svg width="321" height="255" viewBox="0 0 321 255" fill="none" xmlns="http://www.w3.org/2000/svg">
<g clip-path="url(#clip0_211_598)">
<path d="M273.104 248.088C268.599 248.088 264.093 246.256 260.755 242.675C254.58 235.846 255.081 225.353 261.84 219.107C279.279 203.284 287.957 186.878 287.623 170.472C287.123 143.073 262.341 121.92 262.09 121.67C254.998 115.841 253.996 105.348 259.921 98.269C265.762 91.1902 276.359 90.1909 283.451 96.1037C284.953 97.3529 319.999 126.834 321.083 169.556C321.751 196.122 309.402 221.105 284.453 243.84C281.115 246.672 277.11 248.088 273.104 248.088Z" fill="#727272"/>
<path d="M199.759 229.766H91.2852C40.8864 229.766 0 188.96 0 138.659C0 88.3589 40.8864 47.6355 91.2017 47.6355H199.676C250.075 47.6355 290.878 88.4422 290.878 138.659C290.878 188.877 250.158 229.766 199.759 229.766Z" fill="#E5E5E5"/>
<path d="M201.428 60.8768C202.68 57.6289 203.347 54.1312 203.347 50.3837C203.347 37.8086 185.991 23.1515 177.647 16.9056C175.061 14.9901 171.473 14.9901 168.969 16.9056C163.629 20.9862 154.451 28.4813 148.693 36.7259C146.607 36.5594 144.521 36.4761 142.435 36.4761H94.456C92.5368 36.4761 90.5342 36.5594 88.6151 36.6427C82.7742 28.4813 73.679 20.9029 68.3388 16.9056C65.7521 14.9901 62.1641 14.9901 59.6608 16.9056C51.3167 23.2348 33.9608 37.8086 33.9608 50.3837C33.9608 53.9647 34.6283 57.3791 35.7131 60.5437C20.4432 75.6172 11.0143 96.6035 11.0143 119.672C11.0143 165.642 48.3962 202.951 94.456 202.951H142.435C188.495 202.951 225.877 165.642 225.877 119.672C225.877 96.6867 216.531 75.9503 201.428 60.8768Z" fill="#E5E5E5"/>
<path d="M94.5394 59.7109C83.4417 48.6348 65.4183 48.6348 54.3205 59.7109C48.2293 65.7902 45.4757 73.9516 46.0598 81.9463C38.0494 81.3634 29.8721 84.1116 23.7809 90.191C12.6831 101.267 12.6831 119.255 23.7809 130.331C26.2007 132.746 29.0377 134.662 31.9582 136.078C41.4705 140.491 52.151 140.908 62.4144 139.825C73.4287 138.659 86.4456 137.743 94.7063 129.415C103.217 120.754 104.052 106.847 104.803 95.4375C105.721 82.7791 103.801 68.9548 94.5394 59.7109Z" fill="#727272"/>
<path d="M127.165 139.409C127.165 128.832 118.571 120.255 107.973 120.255C102.133 120.255 96.9592 122.836 93.3712 126.917C89.8666 122.836 84.6098 120.255 78.7689 120.255C68.1718 120.255 59.5773 128.832 59.5773 139.409C59.5773 141.741 59.9945 143.989 60.7455 146.071C67.254 163.893 93.2878 163.31 93.2878 163.31H93.3712H93.4546C93.4546 163.31 119.488 163.893 125.997 146.071C126.748 143.989 127.165 141.741 127.165 139.409Z" fill="white"/>
<path d="M30.2059 119.006C29.9556 119.006 29.7887 119.006 29.5384 118.922L11.2646 112.76C10.1799 112.426 9.59581 111.177 9.92958 110.095C10.2633 109.012 11.515 108.429 12.5997 108.762L30.8734 114.925C31.9582 115.258 32.5423 116.507 32.2085 117.59C31.8747 118.506 31.0403 119.006 30.2059 119.006Z" fill="#A3A3A3"/>
<path d="M11.9322 148.986C11.0978 148.986 10.2633 148.403 9.92958 147.57C9.59581 146.488 10.1799 145.322 11.2646 144.905L29.5384 138.743C30.6231 138.41 31.7913 138.993 32.2085 140.075C32.5423 141.158 31.9582 142.324 30.8734 142.74L12.5997 148.903C12.3494 148.986 12.0991 148.986 11.9322 148.986Z" fill="#A3A3A3"/>
<path d="M30.7065 130.914H11.9322C10.764 130.914 9.84613 129.998 9.84613 128.832C9.84613 127.667 10.764 126.75 11.9322 126.75H30.79C31.9582 126.75 32.876 127.667 32.876 128.832C32.876 129.998 31.8747 130.914 30.7065 130.914Z" fill="#A3A3A3"/>
<path d="M164.964 119.006C164.13 119.006 163.295 118.423 162.962 117.59C162.628 116.507 163.212 115.341 164.297 114.925L182.57 108.762C183.655 108.429 184.823 109.012 185.24 110.095C185.574 111.177 184.99 112.343 183.905 112.76L165.632 118.922C165.381 119.006 165.131 119.006 164.964 119.006Z" fill="#A3A3A3"/>
<path d="M183.238 148.986C182.988 148.986 182.821 148.986 182.57 148.903L164.297 142.74C163.212 142.407 162.628 141.158 162.962 140.075C163.295 138.993 164.547 138.41 165.632 138.743L183.905 144.905C184.99 145.238 185.574 146.488 185.24 147.57C184.907 148.486 184.072 148.986 183.238 148.986Z" fill="#A3A3A3"/>
<path d="M183.238 130.914H164.38C163.212 130.914 162.294 129.998 162.294 128.832C162.294 127.667 163.212 126.75 164.38 126.75H183.238C184.406 126.75 185.324 127.667 185.324 128.832C185.324 129.998 184.406 130.914 183.238 130.914Z" fill="#A3A3A3"/>
<path d="M73.4287 109.095H54.2371C51.9007 109.095 50.065 107.263 50.065 104.931C50.065 102.599 51.9007 100.767 54.2371 100.767H73.4287C75.765 100.767 77.6007 102.599 77.6007 104.931C77.6007 107.263 75.765 109.095 73.4287 109.095Z" fill="white"/>
<path d="M149.277 109.095H130.086C127.749 109.095 125.913 107.263 125.913 104.931C125.913 102.599 127.749 100.767 130.086 100.767H149.277C151.613 100.767 153.449 102.599 153.449 104.931C153.449 107.263 151.53 109.095 149.277 109.095Z" fill="#727272"/>
<mask id="mask0_211_598" style="mask-type:luminance" maskUnits="userSpaceOnUse" x="11" y="15" width="215" height="188">
<path d="M201.428 60.8768C202.68 57.6289 203.347 54.1312 203.347 50.3837C203.347 37.8086 185.991 23.1515 177.647 16.9056C175.061 14.9901 171.473 14.9901 168.969 16.9056C163.629 20.9862 154.451 28.4813 148.693 36.7259C146.607 36.5594 144.521 36.4761 142.435 36.4761H94.456C92.5368 36.4761 90.5342 36.5594 88.6151 36.6427C82.7742 28.4813 73.679 20.9029 68.3388 16.9056C65.7521 14.9901 62.1641 14.9901 59.6608 16.9056C51.3167 23.2348 33.9608 37.8086 33.9608 50.3837C33.9608 53.9647 34.6283 57.3791 35.7131 60.5437C20.4432 75.6172 11.0143 96.6035 11.0143 119.672C11.0143 165.642 48.3962 202.951 94.456 202.951H142.435C188.495 202.951 225.877 165.642 225.877 119.672C225.877 96.6867 216.531 75.9503 201.428 60.8768Z" fill="white"/>
</mask>
<g mask="url(#mask0_211_598)">
<path d="M146.774 89.8579C138.847 89.8579 131.838 84.195 130.336 76.1169C123.744 39.2244 88.3647 33.2283 86.8628 32.9784H86.9462L91.7859 0C93.3712 0.249837 107.723 2.49837 123.41 11.9089C144.938 24.9004 158.789 45.0539 163.295 70.2041C164.881 79.2815 158.873 87.9425 149.778 89.5248C148.693 89.7747 147.775 89.8579 146.774 89.8579Z" fill="#727272"/>
</g>
<path d="M93.3712 138.41C92.203 138.41 91.2852 137.493 91.2852 136.328V125.918C91.2852 124.752 92.203 123.836 93.3712 123.836C94.5394 123.836 95.4572 124.752 95.4572 125.918V136.328C95.4572 137.493 94.5394 138.41 93.3712 138.41Z" fill="black"/>
<path d="M93.3712 140.908C86.7793 140.908 80.104 138.493 80.104 133.913C80.104 132.747 81.0219 131.831 82.19 131.831C83.3582 131.831 84.2761 132.747 84.2761 133.913C84.2761 134.662 87.4469 136.744 93.3712 136.744C99.2956 136.744 102.466 134.662 102.466 133.913C102.466 132.747 103.384 131.831 104.552 131.831C105.721 131.831 106.638 132.747 106.638 133.913C106.638 138.493 99.9631 140.908 93.3712 140.908Z" fill="black"/>
<path d="M99.7128 123.503L94.7897 128.583C94.0388 129.415 92.7037 129.415 91.9527 128.583L87.0297 123.503C85.8615 122.253 86.6959 120.171 88.4482 120.171H98.2943C100.047 120.255 100.881 122.337 99.7128 123.503Z" fill="#FFB4B4"/>
<path d="M52.2345 41.0563C52.2345 44.3875 54.9881 47.1357 58.3257 47.1357C60.9959 47.1357 63.2488 45.3868 64.0832 42.9718H64.6673C65.5017 45.3868 67.7546 47.1357 70.4248 47.1357C73.7624 47.1357 76.516 44.3875 76.516 41.0563C76.516 39.0576 75.5982 37.3088 74.0962 36.2262L66.8368 28.6478C65.5017 27.3153 63.3322 27.3153 62.0806 28.6478L54.9881 36.0596C53.3192 37.1422 52.2345 38.9744 52.2345 41.0563Z" fill="#FFB4B4"/>
<path d="M184.573 41.0563C184.573 44.3875 181.819 47.1357 178.482 47.1357C175.812 47.1357 173.559 45.3868 172.724 42.9718H172.14C171.306 45.3868 169.053 47.1357 166.383 47.1357C163.045 47.1357 160.291 44.3875 160.291 41.0563C160.291 39.0576 161.209 37.3088 162.711 36.2262L169.971 28.6478C171.306 27.3153 173.475 27.3153 174.727 28.6478L181.819 36.0596C183.488 37.1422 184.573 38.9744 184.573 41.0563Z" fill="#FFB4B4"/>
<path d="M172.795 202.867C180.638 210.695 180.638 223.354 172.795 231.099L154.771 249.087C146.928 256.915 134.245 256.915 126.485 249.087C118.641 241.259 118.641 228.6 126.485 220.856L144.508 202.867C152.268 195.039 164.951 195.039 172.795 202.867Z" fill="#E5E5E5"/>
<path d="M264.844 174.886C272.687 182.714 272.687 195.372 264.844 203.117L218.784 249.087C210.94 256.915 198.257 256.915 190.497 249.087C182.654 241.259 182.654 228.6 190.497 220.856L236.557 174.886C244.317 167.057 257 167.057 264.844 174.886Z" fill="#E5E5E5"/>
<path d="M52.8445 194.539C60.6881 202.368 60.6881 215.026 52.8445 222.771L34.8211 240.759C26.9776 248.587 14.2945 248.587 6.53443 240.759C-1.30908 232.931 -1.30908 220.273 6.53443 212.528L24.5578 194.539C32.4013 186.711 45.0845 186.711 52.8445 194.539Z" fill="#E5E5E5"/>
</g>
<defs>
<clipPath id="clip0_211_598">
<rect width="321" height="255" fill="white"/>
</clipPath>
</defs>
</svg>
