<svg width="437" height="383" viewBox="0 0 437 383" fill="none" xmlns="http://www.w3.org/2000/svg">
<path d="M387.275 92.6369C389.821 86.0109 391.179 78.8752 391.179 71.2298C391.179 45.5751 355.879 15.6731 338.908 2.93074C333.647 -0.976914 326.35 -0.976914 321.259 2.93074C310.397 11.2557 291.729 26.5466 280.019 43.3665C275.777 43.0267 271.534 42.8568 267.291 42.8568H169.709C165.805 42.8568 161.732 43.0267 157.829 43.1966C145.95 26.5466 127.451 11.0858 116.59 2.93074C111.329 -0.976914 104.031 -0.976914 98.9402 2.93074C81.9693 15.843 46.6699 45.5751 46.6699 71.2298C46.6699 78.5354 48.0275 85.5012 50.2337 91.9573C19.177 122.709 0 165.523 0 212.585C0 306.369 76.0295 382.483 169.709 382.483H267.291C360.97 382.483 437 306.369 437 212.585C437 165.693 417.993 123.388 387.275 92.6369Z" fill="#E5E5E5"/>
<path d="M203.82 90.258C181.249 67.6616 144.592 67.6616 122.021 90.258C109.632 102.661 104.032 119.311 105.22 135.621C88.9275 134.431 72.2961 140.038 59.9073 152.441C37.3361 175.037 37.3361 211.735 59.9073 234.332C64.8289 239.259 70.599 243.166 76.5388 246.054C95.8856 255.059 117.608 255.909 138.482 253.7C160.884 251.321 187.359 249.452 204.16 232.463C221.47 214.793 223.167 186.42 224.694 163.144C226.561 137.32 222.658 109.117 203.82 90.258Z" fill="#727272"/>
<path d="M287.317 252.851C287.317 231.273 269.837 213.774 248.284 213.774C236.404 213.774 225.882 219.041 218.585 227.366C211.457 219.041 200.765 213.774 188.886 213.774C167.333 213.774 149.853 231.273 149.853 252.851C149.853 257.608 150.701 262.195 152.229 266.442C165.466 302.801 218.415 301.611 218.415 301.611H218.585H218.754C218.754 301.611 271.704 302.801 284.941 266.442C286.468 262.195 287.317 257.608 287.317 252.851Z" fill="white"/>
<path d="M72.9747 211.226C72.4656 211.226 72.1261 211.226 71.617 211.056L34.4508 198.484C32.2446 197.804 31.0566 195.256 31.7354 193.047C32.4143 190.838 34.9599 189.649 37.1661 190.329L74.3323 202.901C76.5386 203.581 77.7265 206.129 77.0477 208.338C76.3689 210.207 74.8415 211.226 72.9747 211.226Z" fill="#A3A3A3"/>
<path d="M35.8084 272.389C34.1114 272.389 32.4143 271.2 31.7354 269.501C31.0566 267.292 32.2446 264.913 34.4508 264.064L71.617 251.492C73.8232 250.812 76.1992 252.001 77.0477 254.21C77.7265 256.419 76.5386 258.797 74.3323 259.647L37.1661 272.219C36.657 272.389 36.3176 272.389 35.8084 272.389Z" fill="#A3A3A3"/>
<path d="M74.1621 235.521H35.808C33.432 235.521 31.5652 233.652 31.5652 231.274C31.5652 228.895 33.432 227.026 35.808 227.026H74.1621C76.5381 227.026 78.4049 228.895 78.4049 231.274C78.4049 233.652 76.5381 235.521 74.1621 235.521Z" fill="#A3A3A3"/>
<path d="M364.025 211.226C362.328 211.226 360.63 210.037 359.952 208.338C359.273 206.129 360.461 203.751 362.667 202.901L399.833 190.329C402.039 189.649 404.415 190.838 405.264 193.047C405.943 195.256 404.755 197.634 402.549 198.484L365.382 211.056C364.873 211.226 364.364 211.226 364.025 211.226Z" fill="#A3A3A3"/>
<path d="M401.191 272.389C400.682 272.389 400.342 272.389 399.833 272.219L362.667 259.647C360.461 258.967 359.273 256.419 359.952 254.21C360.63 252.001 363.176 250.812 365.382 251.492L402.549 264.064C404.755 264.744 405.943 267.292 405.264 269.501C404.585 271.37 403.058 272.389 401.191 272.389Z" fill="#A3A3A3"/>
<path d="M401.192 235.521H362.838C360.462 235.521 358.595 233.652 358.595 231.274C358.595 228.895 360.462 227.026 362.838 227.026H401.192C403.568 227.026 405.434 228.895 405.434 231.274C405.434 233.652 403.568 235.521 401.192 235.521Z" fill="#A3A3A3"/>
<path d="M160.883 191.008H121.85C117.098 191.008 113.365 187.27 113.365 182.513C113.365 177.756 117.098 174.018 121.85 174.018H160.883C165.635 174.018 169.369 177.756 169.369 182.513C169.369 187.27 165.635 191.008 160.883 191.008Z" fill="white"/>
<path d="M315.149 191.008H276.116C271.364 191.008 267.631 187.27 267.631 182.513C267.631 177.756 271.364 174.018 276.116 174.018H315.149C319.901 174.018 323.635 177.756 323.635 182.513C323.635 187.27 319.731 191.008 315.149 191.008Z" fill="#727272"/>
<mask id="mask0_174_1947" style="mask-type:luminance" maskUnits="userSpaceOnUse" x="0" y="0" width="437" height="383">
<path d="M387.275 92.6369C389.821 86.0109 391.179 78.8752 391.179 71.2298C391.179 45.5751 355.879 15.6731 338.908 2.93074C333.647 -0.976914 326.35 -0.976914 321.259 2.93074C310.397 11.2557 291.729 26.5466 280.019 43.3665C275.777 43.0267 271.534 42.8568 267.291 42.8568H169.709C165.805 42.8568 161.732 43.0267 157.829 43.1966C145.95 26.5466 127.451 11.0858 116.59 2.93074C111.329 -0.976914 104.031 -0.976914 98.9402 2.93074C81.9693 15.843 46.6699 45.5751 46.6699 71.2298C46.6699 78.5354 48.0275 85.5012 50.2337 91.9573C19.177 122.709 0 165.523 0 212.585C0 306.369 76.0295 382.483 169.709 382.483H267.291C360.97 382.483 437 306.369 437 212.585C437 165.693 417.993 123.388 387.275 92.6369Z" fill="white"/>
</mask>
<g mask="url(#mask0_174_1947)">
<path d="M304.967 151.761C288.844 151.761 274.589 140.208 271.534 123.728C258.127 48.4631 186.17 36.2304 183.116 35.7207H183.285L193.129 -31.5589C196.353 -31.0492 225.543 -26.4619 257.448 -7.26346C301.233 19.2406 329.405 60.356 338.569 111.665C341.793 130.184 329.574 147.853 311.076 151.082C309.04 151.591 307.003 151.761 304.967 151.761Z" fill="#727272"/>
</g>
<path d="M218.585 250.812C216.209 250.812 214.342 248.943 214.342 246.564V225.327C214.342 222.949 216.209 221.08 218.585 221.08C220.96 221.08 222.827 222.949 222.827 225.327V246.564C222.827 248.943 220.791 250.812 218.585 250.812Z" fill="black"/>
<path d="M218.584 255.909C205.177 255.909 191.601 250.982 191.601 241.638C191.601 239.259 193.468 237.391 195.843 237.391C198.219 237.391 200.086 239.259 200.086 241.638C200.086 243.167 206.535 247.415 218.584 247.415C230.634 247.415 237.083 243.167 237.083 241.638C237.083 239.259 238.95 237.391 241.325 237.391C243.701 237.391 245.568 239.259 245.568 241.638C245.568 250.982 231.991 255.909 218.584 255.909Z" fill="black"/>
<path d="M231.313 220.4L221.3 230.764C219.773 232.463 217.058 232.463 215.53 230.764L205.517 220.4C203.141 217.852 204.838 213.604 208.402 213.604H228.428C231.992 213.774 233.859 218.022 231.313 220.4Z" fill="#FFB4B4"/>
<path d="M84.006 52.201C84.006 58.9969 89.6064 64.6036 96.3948 64.6036C101.825 64.6036 106.408 61.0357 108.105 56.1087H109.293C110.99 61.0357 115.572 64.6036 121.003 64.6036C127.791 64.6036 133.391 58.9969 133.391 52.201C133.391 48.1235 131.524 44.5556 128.47 42.3469L113.705 26.8862C110.99 24.1679 106.577 24.1679 104.032 26.8862L89.6064 42.0071C86.0425 44.2158 84.006 47.9536 84.006 52.201Z" fill="#FFB4B4"/>
<path d="M352.994 52.201C352.994 58.9969 347.394 64.6036 340.606 64.6036C335.175 64.6036 330.593 61.0357 328.896 56.1087H327.708C326.01 61.0357 321.428 64.6036 315.998 64.6036C309.209 64.6036 303.609 58.9969 303.609 52.201C303.609 48.1235 305.476 44.5556 308.531 42.3469L323.295 26.8862C326.011 24.1679 330.423 24.1679 332.969 26.8862L347.394 42.0071C350.958 44.2158 352.994 47.9536 352.994 52.201Z" fill="#FFB4B4"/>
</svg>
