<svg width="93" height="80" viewBox="0 0 93 80" fill="none" xmlns="http://www.w3.org/2000/svg">
<path d="M81.6301 19.3759C82.1632 17.99 82.4475 16.4975 82.4475 14.8984C82.4475 9.53247 75.056 3.27818 71.5024 0.612993C70.4008 -0.204331 68.8728 -0.204331 67.8067 0.612993C65.5324 2.35425 61.6235 5.55247 59.1715 9.07051C58.2831 8.99944 57.3947 8.96391 56.5063 8.96391H36.0377C35.2204 8.96391 34.3675 8.99944 33.5502 9.03497C31.0627 5.55246 27.1893 2.31871 24.915 0.612993C23.8134 -0.204331 22.2853 -0.204331 21.2192 0.612993C17.6657 3.31371 10.2742 9.53247 10.2742 14.8984C10.2742 16.4264 10.5585 17.8834 11.0205 19.2338C4.51741 25.6657 0.501862 34.6208 0.501862 44.4642C0.501862 64.08 16.4219 80 36.0377 80H56.4708C76.0865 80 92.0066 64.08 92.0066 44.4642C92.0066 34.6918 88.0266 25.8079 81.6301 19.3759Z" fill="#E5E5E5"/>
<path d="M36.0732 18.8784C31.347 14.1522 23.6712 14.1522 18.945 18.8784C16.3509 21.4726 15.1782 24.9551 15.4269 28.3665C12.0155 28.1178 8.53298 29.2904 5.93886 31.8845C1.2126 36.6108 1.2126 44.2865 5.93886 49.0128C6.9694 50.0433 8.17762 50.8607 9.42137 51.4648C13.4725 53.3482 18.021 53.5259 22.3919 53.0639C27.0827 52.5664 32.6263 52.1755 36.1443 48.6219C39.7689 44.9262 40.1243 38.9917 40.4441 34.1233C40.8706 28.7574 40.0532 22.8229 36.0732 18.8784Z" fill="#727272"/>
<path d="M50.0032 52.8861C50.0032 48.3731 46.3431 44.7129 41.83 44.7129C39.3425 44.7129 37.1393 45.8145 35.6112 47.5558C34.1187 45.8145 31.88 44.7129 29.3925 44.7129C24.8794 44.7129 21.2192 48.3731 21.2192 52.8861C21.2192 53.8811 21.3969 54.8406 21.7167 55.729C24.4885 63.3337 35.5757 63.0849 35.5757 63.0849H35.6112H35.6468C35.6468 63.0849 46.734 63.3337 49.5057 55.729C49.8256 54.8406 50.0032 53.8811 50.0032 52.8861Z" fill="white"/>
<path d="M8.67511 44.2154C8.5685 44.2154 8.49743 44.2154 8.39082 44.1798L0.608482 41.5502C0.146516 41.408 -0.102237 40.875 0.0399063 40.413C0.18205 39.9511 0.715086 39.7023 1.17705 39.8445L8.9594 42.4741C9.42136 42.6163 9.67011 43.1493 9.52797 43.6113C9.42136 43.9666 9.066 44.2154 8.67511 44.2154Z" fill="#A3A3A3"/>
<path d="M0.892769 57.0083C0.537411 57.0083 0.18205 56.7596 0.0399063 56.4042C-0.102237 55.9423 0.146516 55.4448 0.608482 55.2671L8.39082 52.6374C8.85279 52.4953 9.35029 52.744 9.52797 53.206C9.67011 53.668 9.42136 54.1655 8.9594 54.3432L1.17705 56.9728C1.07044 56.9728 0.999377 57.0083 0.892769 57.0083Z" fill="#A3A3A3"/>
<path d="M8.92388 49.2971H0.89279C0.395289 49.2971 0.00439453 48.9062 0.00439453 48.4087C0.00439453 47.9112 0.395289 47.5203 0.89279 47.5203H8.92388C9.42138 47.5203 9.81228 47.9112 9.81228 48.4087C9.81228 48.9062 9.42138 49.2971 8.92388 49.2971Z" fill="#A3A3A3"/>
<path d="M66.0655 44.2154C65.7101 44.2154 65.3547 43.9666 65.2126 43.6113C65.0705 43.1493 65.3192 42.6518 65.7812 42.4741L73.5635 39.8445C74.0255 39.7023 74.523 39.9511 74.7007 40.413C74.8428 40.875 74.5941 41.3725 74.1321 41.5502L66.3497 44.1798C66.2431 44.1798 66.1721 44.2154 66.0655 44.2154Z" fill="#A3A3A3"/>
<path d="M73.8478 57.0083C73.7412 57.0083 73.6701 57.0084 73.5635 56.9728L65.7812 54.3432C65.3192 54.201 65.0705 53.668 65.2126 53.206C65.3547 52.744 65.8878 52.4953 66.3497 52.6374L74.1321 55.2671C74.5941 55.4092 74.8428 55.9423 74.7007 56.4042C74.5941 56.7596 74.2387 57.0083 73.8478 57.0083Z" fill="#A3A3A3"/>
<path d="M73.8478 49.2971H65.8167C65.3192 49.2971 64.9283 48.9062 64.9283 48.4087C64.9283 47.9112 65.3192 47.5203 65.8167 47.5203H73.8478C74.3453 47.5203 74.7362 47.9112 74.7362 48.4087C74.7362 48.9062 74.3453 49.2971 73.8478 49.2971Z" fill="#A3A3A3"/>
<path d="M27.0827 39.9512H18.9094C17.9144 39.9512 17.1326 39.1694 17.1326 38.1744C17.1326 37.1794 17.9144 36.3976 18.9094 36.3976H27.0827C28.0777 36.3976 28.8594 37.1794 28.8594 38.1744C28.8594 39.1694 28.0777 39.9512 27.0827 39.9512Z" fill="white"/>
<path d="M59.3847 39.9512H51.2115C50.2165 39.9512 49.4347 39.1694 49.4347 38.1744C49.4347 37.1794 50.2165 36.3976 51.2115 36.3976H59.3847C60.3797 36.3976 61.1615 37.1794 61.1615 38.1744C61.1615 39.1694 60.3797 39.9512 59.3847 39.9512Z" fill="#727272"/>
<mask id="mask0_450_3137" style="mask-type:luminance" maskUnits="userSpaceOnUse" x="0" y="0" width="93" height="80">
<path d="M81.6301 19.3759C82.1632 17.99 82.4475 16.4975 82.4475 14.8984C82.4475 9.53247 75.056 3.27818 71.5024 0.612993C70.4008 -0.204331 68.8728 -0.204331 67.8067 0.612993C65.5324 2.35425 61.6235 5.55247 59.1715 9.07051C58.2831 8.99944 57.3947 8.96391 56.5063 8.96391H36.0377C35.2204 8.96391 34.3675 8.99944 33.5502 9.03497C31.0627 5.55246 27.1893 2.31871 24.915 0.612993C23.8134 -0.204331 22.2853 -0.204331 21.2192 0.612993C17.6657 3.31371 10.2742 9.53247 10.2742 14.8984C10.2742 16.4264 10.5585 17.8834 11.0205 19.2338C4.51741 25.6657 0.501862 34.6208 0.501862 44.4642C0.501862 64.08 16.4219 80 36.0377 80H56.4708C76.0865 80 92.0066 64.08 92.0066 44.4642C92.0066 34.6918 88.0266 25.8079 81.6301 19.3759Z" fill="white"/>
</mask>
<g mask="url(#mask0_450_3137)">
<path d="M58.3186 31.7424C54.9427 31.7424 51.9577 29.326 51.3181 25.879C48.5108 10.1367 33.4436 7.57808 32.8039 7.47148H32.8395L34.865 -6.60071C35.5402 -6.4941 41.6523 -5.53463 48.3331 -1.51908C57.5013 4.02451 63.4003 12.6242 65.3192 23.356C65.9944 27.2294 63.4358 30.9251 59.5624 31.6003C59.1715 31.7069 58.7451 31.7424 58.3186 31.7424Z" fill="#727272"/>
</g>
<path d="M35.6112 52.4953C35.1137 52.4953 34.7229 52.1044 34.7229 51.6069V47.1649C34.7229 46.6674 35.1137 46.2765 35.6112 46.2765C36.1088 46.2765 36.4996 46.6674 36.4996 47.1649V51.6069C36.4996 52.1044 36.1088 52.4953 35.6112 52.4953Z" fill="black"/>
<path d="M35.6113 53.5258C32.8039 53.5258 29.9611 52.4952 29.9611 50.5407C29.9611 50.0432 30.352 49.6523 30.8495 49.6523C31.347 49.6523 31.7379 50.0432 31.7379 50.5407C31.7379 50.8606 33.0882 51.749 35.6113 51.749C38.1343 51.749 39.4847 50.8606 39.4847 50.5407C39.4847 50.0432 39.8756 49.6523 40.3731 49.6523C40.8706 49.6523 41.2615 50.0432 41.2615 50.5407C41.2615 52.4952 38.4186 53.5258 35.6113 53.5258Z" fill="black"/>
<path d="M38.2764 46.1343L36.1798 48.302C35.86 48.6574 35.2914 48.6574 34.9716 48.302L32.875 46.1343C32.3775 45.6013 32.7329 44.7129 33.4791 44.7129H37.6723C38.4186 44.7129 38.8095 45.6013 38.2764 46.1343Z" fill="#FFB4B4"/>
<path d="M18.0921 10.9184C18.0921 12.3398 19.2648 13.5125 20.6862 13.5125C21.8234 13.5125 22.7828 12.7663 23.1382 11.7357H23.3869C23.7423 12.7663 24.7018 13.5125 25.8389 13.5125C27.2603 13.5125 28.433 12.3398 28.433 10.9184C28.433 10.0655 28.0421 9.31929 27.4025 8.85732L24.3109 5.62357C23.7423 5.055 22.8184 5.055 22.2853 5.62357L19.2648 8.78626C18.5185 9.24822 18.0921 10.03 18.0921 10.9184Z" fill="#FFB4B4"/>
<path d="M74.4519 10.9184C74.4519 12.3398 73.2792 13.5125 71.8578 13.5125C70.7206 13.5125 69.7612 12.7663 69.4058 11.7357H69.1571C68.8017 12.7663 67.8422 13.5125 66.7051 13.5125C65.2837 13.5125 64.111 12.3398 64.111 10.9184C64.111 10.0655 64.5019 9.31929 65.1415 8.85732L68.2331 5.62357C68.8017 5.055 69.7256 5.055 70.2587 5.62357L73.2792 8.78626C73.9899 9.24822 74.4519 10.03 74.4519 10.9184Z" fill="#FFB4B4"/>
</svg>
