<svg width="92" height="80" viewBox="0 0 92 80" fill="none" xmlns="http://www.w3.org/2000/svg">
<path d="M10.3605 19.4393C9.82646 18.0507 9.55944 16.5554 9.55944 14.9533C9.55944 9.55941 16.9293 3.36449 20.5074 0.640855C21.6289 -0.213618 23.1242 -0.213618 24.1923 0.640855C26.4887 2.3498 30.3338 5.55407 32.8438 9.07877C33.6983 9.02536 34.6062 8.97196 35.514 8.97196H55.9146C56.769 8.97196 57.5701 9.02536 58.3712 9.07877C60.8278 5.60747 64.7263 2.4032 67.0227 0.640855C68.1442 -0.213618 69.6395 -0.213618 70.7076 0.640855C74.2323 3.31108 81.6556 9.55941 81.6556 14.9533C81.6556 16.502 81.3885 17.9439 80.9079 19.279C87.4232 25.741 91.4286 34.6595 91.4286 44.486C91.4286 64.0854 75.514 80 55.9146 80H35.514C15.9146 80 1.01702e-05 64.0854 1.01702e-05 44.486C1.01702e-05 34.7664 3.95196 25.8478 10.3605 19.4393Z" fill="#E0A565"/>
<path d="M35.1935 53.458C35.1935 48.9186 38.8784 45.2871 43.3644 45.2871C45.821 45.2871 48.064 46.4086 49.5594 48.1175C51.0547 46.3552 53.2977 45.2871 55.7543 45.2871C60.2937 45.2871 63.9252 48.972 63.9252 53.458C63.9252 54.4727 63.765 55.3806 63.4445 56.2884C60.6675 63.9253 49.6128 63.6583 49.6128 63.6583C49.6128 63.6583 49.6128 63.6583 49.5594 63.6583C49.5594 63.6583 49.5593 63.6583 49.5059 63.6583C49.5059 63.6583 38.4512 63.9253 35.6742 56.2884C35.3537 55.434 35.1935 54.4727 35.1935 53.458Z" fill="#FFF1D2"/>
<path d="M75.8345 44.2723C75.9413 44.2723 76.0481 44.2723 76.1015 44.2189L83.8986 41.6021C84.3792 41.4419 84.5928 40.9612 84.4326 40.4806C84.2724 39.9999 83.7918 39.7863 83.3111 39.9465L75.5141 42.5633C75.0334 42.7236 74.8198 43.2042 74.98 43.6848C75.0868 44.0053 75.4607 44.2723 75.8345 44.2723Z" fill="white"/>
<path d="M83.6316 57.0361C84.0054 57.0361 84.3259 56.8225 84.4861 56.4486C84.6463 55.968 84.3793 55.4874 83.952 55.3271L76.155 52.7103C75.6743 52.5501 75.1937 52.8171 75.0335 53.2444C74.8733 53.725 75.1403 54.2057 75.5675 54.3659L83.3646 56.9827C83.418 57.0361 83.5248 57.0361 83.6316 57.0361Z" fill="white"/>
<path d="M75.5674 49.3458H83.5781C84.0587 49.3458 84.486 48.972 84.486 48.4379C84.486 47.9039 84.1121 47.53 83.5781 47.53H75.5674C75.0868 47.53 74.6595 47.9039 74.6595 48.4379C74.6595 48.972 75.0868 49.3458 75.5674 49.3458Z" fill="white"/>
<path d="M51.3751 52.1228C52.8704 52.1228 54.0988 50.8945 54.0988 49.3992C54.0988 48.9186 53.7249 48.4913 53.1909 48.4913C52.7102 48.4913 52.283 48.8652 52.283 49.3992C52.283 49.9332 51.8558 50.3071 51.3751 50.3071C50.8411 50.3071 50.4672 49.8798 50.4672 49.3992V46.3017C50.4672 45.8211 50.0934 45.3939 49.5594 45.3939C49.0253 45.3939 48.6515 45.7677 48.6515 46.3017V49.3992C48.7049 50.9479 49.8798 52.1228 51.3751 52.1228Z" fill="#5B4745"/>
<path d="M47.7437 52.1228C49.239 52.1228 50.4673 50.8945 50.4673 49.3991V46.3017C50.4673 45.821 50.0935 45.3938 49.5594 45.3938C49.0254 45.3938 48.6515 45.7676 48.6515 46.3017V49.3991C48.6515 49.9332 48.2243 50.307 47.7437 50.307C47.2096 50.307 46.8358 49.8798 46.8358 49.3991C46.8358 48.9185 46.4619 48.4913 45.9279 48.4913C45.4473 48.4913 45.02 48.8651 45.02 49.3991C45.0734 50.9479 46.2483 52.1228 47.7437 52.1228Z" fill="#5B4745"/>
<path d="M47.3165 46.2483L49.0789 48.064C49.3459 48.331 49.8265 48.331 50.0936 48.064L51.8559 46.2483C52.2831 45.821 51.9627 45.0734 51.3753 45.0734H47.8506C47.2097 45.0734 46.8893 45.821 47.3165 46.2483Z" fill="#D37562"/>
<path d="M65.2603 45.6609C60.6592 45.6609 56.9292 42.6244 56.9292 38.8786C56.9292 35.1328 60.6592 32.0962 65.2603 32.0962C69.8615 32.0962 73.5914 35.1328 73.5914 38.8786C73.5914 42.6244 69.8615 45.6609 65.2603 45.6609Z" fill="#7F562E"/>
<path d="M65.2604 45.0734C61.839 45.0734 59.0655 42.2998 59.0655 38.8785C59.0655 35.4571 61.839 32.6835 65.2604 32.6835C68.6818 32.6835 71.4553 35.4571 71.4553 38.8785C71.4553 42.2998 68.6818 45.0734 65.2604 45.0734Z" fill="#B3BF80"/>
<path d="M17.303 44.2723C17.6768 44.2723 17.9973 44.0587 18.1575 43.6849C18.3177 43.2042 18.0507 42.7236 17.6234 42.5634L9.82638 39.9465C9.34574 39.7863 8.86509 40.0533 8.70488 40.4806C8.54466 40.9612 8.81169 41.4419 9.23892 41.6021L17.036 44.2189C17.0894 44.2723 17.1962 44.2723 17.303 44.2723Z" fill="white"/>
<path d="M9.506 57.0361C9.61281 57.0361 9.71962 57.0361 9.77303 56.9827L17.5701 54.3659C18.0507 54.2056 18.2644 53.725 18.1041 53.2444C17.9439 52.7637 17.4633 52.5501 16.9826 52.7103L9.18557 55.3271C8.70493 55.4873 8.49131 55.968 8.65153 56.4486C8.81174 56.8225 9.13217 57.0361 9.506 57.0361Z" fill="white"/>
<path d="M9.50613 49.3458H17.5168C17.9975 49.3458 18.4247 48.972 18.4247 48.4379C18.4247 47.9039 18.0509 47.53 17.5168 47.53H9.50613C9.02549 47.53 8.59825 47.9039 8.59825 48.4379C8.59825 48.972 9.02549 49.3458 9.50613 49.3458Z" fill="white"/>
<path d="M29.7464 45.6609C25.1453 45.6609 21.4153 42.6244 21.4153 38.8786C21.4153 35.1328 25.1453 32.0962 29.7464 32.0962C34.3475 32.0962 38.0775 35.1328 38.0775 38.8786C38.0775 42.6244 34.3475 45.6609 29.7464 45.6609Z" fill="#7F562E"/>
<path d="M29.7464 45.0734C26.325 45.0734 23.5514 42.2998 23.5514 38.8785C23.5514 35.4571 26.325 32.6835 29.7464 32.6835C33.1677 32.6835 35.9413 35.4571 35.9413 38.8785C35.9413 42.2998 33.1677 45.0734 29.7464 45.0734Z" fill="#B3BF80"/>
<path d="M62.0561 31.6155C60.5814 31.6155 59.3859 30.42 59.3859 28.9453C59.3859 27.4705 60.5814 26.275 62.0561 26.275C63.5308 26.275 64.7263 27.4705 64.7263 28.9453C64.7263 30.42 63.5308 31.6155 62.0561 31.6155Z" fill="#FFF1D2"/>
<path d="M33.3244 31.6155C31.8497 31.6155 30.6542 30.42 30.6542 28.9453C30.6542 27.4705 31.8497 26.275 33.3244 26.275C34.7991 26.275 35.9946 27.4705 35.9946 28.9453C35.9946 30.42 34.7991 31.6155 33.3244 31.6155Z" fill="#FFF1D2"/>
<path d="M29.7463 43.1509C28.0652 43.1509 26.7023 41.2381 26.7023 38.8786C26.7023 36.519 28.0652 34.6062 29.7463 34.6062C31.4275 34.6062 32.7904 36.519 32.7904 38.8786C32.7904 41.2381 31.4275 43.1509 29.7463 43.1509Z" fill="#4C4C4C"/>
<path d="M65.2604 43.3111C63.5792 43.3111 62.2163 41.3983 62.2163 39.0388C62.2163 36.6792 63.5792 34.7664 65.2604 34.7664C66.9416 34.7664 68.3044 36.6792 68.3044 39.0388C68.3044 41.3983 66.9416 43.3111 65.2604 43.3111Z" fill="#4C4C4C"/>
<path d="M65.3138 10.2536C65.3138 7.90383 67.3966 5.98126 69.9066 5.98126C72.4166 5.98126 74.4994 7.90383 74.4994 10.2536C74.4994 10.5741 74.446 10.8411 74.3926 11.1081C75.5141 11.5887 76.2617 12.6034 76.2617 13.7783C76.2617 15.4339 74.8198 16.7156 73.0574 16.7156C72.4166 16.7156 71.7757 16.5554 71.2951 16.2349C70.761 16.5554 70.1736 16.7156 69.5327 16.7156C67.7704 16.7156 66.3285 15.3805 66.3285 13.7783C66.3285 13.5113 66.3819 13.2977 66.4353 13.0307C65.7944 12.3364 65.3138 11.3751 65.3138 10.2536Z" fill="#FFF1D2"/>
<path d="M26.0614 10.2536C26.0614 7.90383 23.9786 5.98126 21.4686 5.98126C18.9586 5.98126 16.8758 7.90383 16.8758 10.2536C16.8758 10.5741 16.9292 10.8411 16.9826 11.1081C15.8611 11.5887 15.1135 12.6034 15.1135 13.7783C15.1135 15.4339 16.5554 16.7156 18.3177 16.7156C18.9586 16.7156 19.5994 16.5554 20.0801 16.2349C20.6141 16.5554 21.2016 16.7156 21.8424 16.7156C23.6048 16.7156 25.0467 15.3805 25.0467 13.7783C25.0467 13.5113 24.9933 13.2977 24.9399 13.0307C25.6342 12.3364 26.0614 11.3751 26.0614 10.2536Z" fill="#FFF1D2"/>
<mask id="mask0_450_3579" style="mask-type:luminance" maskUnits="userSpaceOnUse" x="0" y="0" width="92" height="80">
<path d="M10.3605 19.4393C9.82646 18.0507 9.55944 16.5554 9.55944 14.9533C9.55944 9.55941 16.9293 3.36449 20.5074 0.640855C21.6289 -0.213618 23.1242 -0.213618 24.1923 0.640855C26.4887 2.3498 30.3338 5.55407 32.8438 9.07877C33.6983 9.02536 34.6062 8.97196 35.514 8.97196H55.9146C56.769 8.97196 57.5701 9.02536 58.3712 9.07877C60.8278 5.60747 64.7263 2.4032 67.0227 0.640855C68.1442 -0.213618 69.6395 -0.213618 70.7076 0.640855C74.2323 3.31108 81.6556 9.55941 81.6556 14.9533C81.6556 16.502 81.3885 17.9439 80.9079 19.279C87.4232 25.741 91.4286 34.6595 91.4286 44.486C91.4286 64.0854 75.514 80 55.9146 80H35.514C15.9146 80 1.01702e-05 64.0854 1.01702e-05 44.486C1.01702e-05 34.7664 3.95196 25.8478 10.3605 19.4393Z" fill="white"/>
</mask>
<g mask="url(#mask0_450_3579)">
<path d="M53.8318 30.8678C54.7931 30.8678 55.5941 30.0667 55.5941 29.1055V8.86513C55.5941 7.90385 54.7931 7.10278 53.8318 7.10278C52.8705 7.10278 52.0694 7.90385 52.0694 8.86513V29.1055C52.016 30.0667 52.8171 30.8678 53.8318 30.8678Z" fill="#7F562E"/>
</g>
<mask id="mask1_450_3579" style="mask-type:luminance" maskUnits="userSpaceOnUse" x="0" y="0" width="92" height="80">
<path d="M10.3605 19.4393C9.82646 18.0507 9.55944 16.5554 9.55944 14.9533C9.55944 9.55941 16.9293 3.36449 20.5074 0.640855C21.6289 -0.213618 23.1242 -0.213618 24.1923 0.640855C26.4887 2.3498 30.3338 5.55407 32.8438 9.07877C33.6983 9.02536 34.6062 8.97196 35.514 8.97196H55.9146C56.769 8.97196 57.5701 9.02536 58.3712 9.07877C60.8278 5.60747 64.7263 2.4032 67.0227 0.640855C68.1442 -0.213618 69.6395 -0.213618 70.7076 0.640855C74.2323 3.31108 81.6556 9.55941 81.6556 14.9533C81.6556 16.502 81.3885 17.9439 80.9079 19.279C87.4232 25.741 91.4286 34.6595 91.4286 44.486C91.4286 64.0854 75.514 80 55.9146 80H35.514C15.9146 80 1.01702e-05 64.0854 1.01702e-05 44.486C1.01702e-05 34.7664 3.95196 25.8478 10.3605 19.4393Z" fill="white"/>
</mask>
<g mask="url(#mask1_450_3579)">
<path d="M47.5835 31.0281C48.5447 31.0281 49.3458 30.227 49.3458 29.2657V9.02541C49.3458 8.06413 48.5447 7.26306 47.5835 7.26306C46.6222 7.26306 45.8211 8.06413 45.8211 9.02541V29.2657C45.8211 30.2804 46.6222 31.0281 47.5835 31.0281Z" fill="#7F562E"/>
</g>
<mask id="mask2_450_3579" style="mask-type:luminance" maskUnits="userSpaceOnUse" x="0" y="0" width="92" height="80">
<path d="M10.3605 19.4393C9.82646 18.0507 9.55944 16.5554 9.55944 14.9533C9.55944 9.55941 16.9293 3.36449 20.5074 0.640855C21.6289 -0.213618 23.1242 -0.213618 24.1923 0.640855C26.4887 2.3498 30.3338 5.55407 32.8438 9.07877C33.6983 9.02536 34.6062 8.97196 35.514 8.97196H55.9146C56.769 8.97196 57.5701 9.02536 58.3712 9.07877C60.8278 5.60747 64.7263 2.4032 67.0227 0.640855C68.1442 -0.213618 69.6395 -0.213618 70.7076 0.640855C74.2323 3.31108 81.6556 9.55941 81.6556 14.9533C81.6556 16.502 81.3885 17.9439 80.9079 19.279C87.4232 25.741 91.4286 34.6595 91.4286 44.486C91.4286 64.0854 75.514 80 55.9146 80H35.514C15.9146 80 1.01702e-05 64.0854 1.01702e-05 44.486C1.01702e-05 34.7664 3.95196 25.8478 10.3605 19.4393Z" fill="white"/>
</mask>
<g mask="url(#mask2_450_3579)">
<path d="M41.3885 31.2416C42.3498 31.2416 43.1509 30.4406 43.1509 29.4793V9.23897C43.1509 8.27769 42.3498 7.47662 41.3885 7.47662C40.4272 7.47662 39.6262 8.27769 39.6262 9.23897V29.4793C39.6262 30.4406 40.3738 31.2416 41.3885 31.2416Z" fill="#7F562E"/>
</g>
<path d="M25.9546 43.4713C24.7453 43.4713 23.765 42.491 23.765 41.2817C23.765 40.0724 24.7453 39.0921 25.9546 39.0921C27.1639 39.0921 28.1442 40.0724 28.1442 41.2817C28.1442 42.491 27.1639 43.4713 25.9546 43.4713Z" fill="white"/>
<path d="M61.4686 43.8451C60.2593 43.8451 59.279 42.8647 59.279 41.6555C59.279 40.4462 60.2593 39.4659 61.4686 39.4659C62.6779 39.4659 63.6582 40.4462 63.6582 41.6555C63.6582 42.8647 62.6779 43.8451 61.4686 43.8451Z" fill="white"/>
</svg>
