<svg width="437" height="383" viewBox="0 0 437 383" fill="none" xmlns="http://www.w3.org/2000/svg">
<path d="M387.275 92.6369C389.821 86.0109 391.179 78.8752 391.179 71.2298C391.179 45.5751 355.879 15.6731 338.908 2.93074C333.647 -0.976914 326.35 -0.976914 321.259 2.93074C310.397 11.2557 291.729 26.5466 280.019 43.3665C275.777 43.0267 271.534 42.8568 267.291 42.8568H169.709C165.805 42.8568 161.732 43.0267 157.829 43.1966C145.95 26.5466 127.451 11.0858 116.59 2.93074C111.329 -0.976914 104.031 -0.976914 98.9402 2.93074C81.9693 15.843 46.6699 45.5751 46.6699 71.2298C46.6699 78.5354 48.0276 85.5012 50.2338 91.9573C19.1771 122.709 0 165.523 0 212.585C0 306.369 76.0295 382.483 169.709 382.483H267.291C360.97 382.483 437 306.369 437 212.585C437 165.693 417.993 123.388 387.275 92.6369Z" fill="#E0A565"/>
<path d="M287.317 255.4C287.317 233.823 269.837 216.323 248.284 216.323C236.404 216.323 225.882 221.59 218.585 229.915C211.457 221.59 200.765 216.323 188.886 216.323C167.333 216.323 149.853 233.823 149.853 255.4C149.853 260.157 150.701 264.744 152.229 268.992C165.466 305.35 218.415 304.161 218.415 304.161H218.585H218.754C218.754 304.161 271.704 305.35 284.941 268.992C286.298 264.574 287.317 260.157 287.317 255.4Z" fill="#FFF1D2"/>
<path d="M74.6721 211.226C74.163 211.226 73.8236 211.226 73.3144 211.056L36.1482 198.484C33.942 197.804 32.7541 195.256 33.4329 193.047C34.1117 190.838 36.6574 189.649 38.8636 190.329L76.0298 202.901C78.236 203.581 79.424 206.129 78.7451 208.338C78.0663 210.207 76.3692 211.226 74.6721 211.226Z" fill="white"/>
<path d="M37.3362 272.389C35.6391 272.389 33.942 271.2 33.2632 269.501C32.5844 267.292 33.7723 264.913 35.9786 264.064L73.1448 251.492C75.351 250.812 77.7269 252.001 78.5754 254.21C79.2543 256.419 78.0663 258.797 75.8601 259.647L38.6939 272.219C38.3545 272.389 37.8453 272.389 37.3362 272.389Z" fill="white"/>
<path d="M75.6902 235.521H37.336C34.9601 235.521 33.0933 233.652 33.0933 231.274C33.0933 228.895 34.9601 227.026 37.336 227.026H75.6902C78.0661 227.026 79.9329 228.895 79.9329 231.274C79.9329 233.652 78.0661 235.521 75.6902 235.521Z" fill="white"/>
<path d="M209.93 248.943C202.802 248.943 197.032 243.167 197.032 236.031C197.032 233.652 198.899 231.783 201.275 231.783C203.65 231.783 205.517 233.652 205.517 236.031C205.517 238.41 207.554 240.448 209.93 240.448C212.306 240.448 214.342 238.41 214.342 236.031V221.25C214.342 218.871 216.209 217.002 218.585 217.002C220.961 217.002 222.828 218.871 222.828 221.25V236.031C222.828 243.167 216.888 248.943 209.93 248.943Z" fill="#5B4745"/>
<path d="M227.07 248.943C219.942 248.943 214.172 243.166 214.172 236.031V221.25C214.172 218.871 216.039 217.002 218.415 217.002C220.791 217.002 222.658 218.871 222.658 221.25V236.031C222.658 238.409 224.694 240.448 227.07 240.448C229.446 240.448 231.482 238.409 231.482 236.031C231.482 233.652 233.349 231.783 235.725 231.783C238.101 231.783 239.968 233.652 239.968 236.031C239.968 243.166 234.198 248.943 227.07 248.943Z" fill="#5B4745"/>
<path d="M229.277 220.91L220.961 229.575C219.603 230.934 217.397 230.934 216.209 229.575L207.893 220.91C205.857 218.871 207.384 215.304 210.269 215.304H227.07C229.786 215.134 231.313 218.702 229.277 220.91Z" fill="#D37562"/>
<path d="M134.07 217.852C156.096 217.852 173.952 203.323 173.952 185.401C173.952 167.479 156.096 152.951 134.07 152.951C112.044 152.951 94.1887 167.479 94.1887 185.401C94.1887 203.323 112.044 217.852 134.07 217.852Z" fill="#7F562E"/>
<path d="M134.069 215.133C150.472 215.133 163.768 201.822 163.768 185.401C163.768 168.98 150.472 155.669 134.069 155.669C117.667 155.669 104.37 168.98 104.37 185.401C104.37 201.822 117.667 215.133 134.069 215.133Z" fill="#B3BF80"/>
<path d="M363.177 211.226C361.48 211.226 359.783 210.037 359.104 208.338C358.425 206.129 359.613 203.751 361.819 202.901L398.985 190.329C401.191 189.649 403.567 190.838 404.416 193.047C405.095 195.256 403.907 197.634 401.701 198.484L364.534 211.056C364.195 211.226 363.686 211.226 363.177 211.226Z" fill="white"/>
<path d="M400.513 272.389C400.004 272.389 399.664 272.389 399.155 272.219L361.989 259.647C359.783 258.967 358.595 256.419 359.273 254.21C359.952 252.001 362.498 250.812 364.704 251.492L401.87 264.064C404.077 264.744 405.264 267.292 404.586 269.501C403.907 271.37 402.21 272.389 400.513 272.389Z" fill="white"/>
<path d="M400.512 235.521H362.158C359.782 235.521 357.916 233.652 357.916 231.274C357.916 228.895 359.782 227.026 362.158 227.026H400.512C402.888 227.026 404.755 228.895 404.755 231.274C404.755 233.652 402.719 235.521 400.512 235.521Z" fill="white"/>
<path d="M303.779 217.852C325.805 217.852 343.66 203.323 343.66 185.401C343.66 167.479 325.805 152.951 303.779 152.951C281.753 152.951 263.897 167.479 263.897 185.401C263.897 203.323 281.753 217.852 303.779 217.852Z" fill="#7F562E"/>
<path d="M303.779 215.133C320.181 215.133 333.478 201.822 333.478 185.401C333.478 168.98 320.181 155.669 303.779 155.669C287.377 155.669 274.08 168.98 274.08 185.401C274.08 201.822 287.377 215.133 303.779 215.133Z" fill="#B3BF80"/>
<path d="M149.343 150.573C156.373 150.573 162.072 144.868 162.072 137.83C162.072 130.793 156.373 125.088 149.343 125.088C142.314 125.088 136.615 130.793 136.615 137.83C136.615 144.868 142.314 150.573 149.343 150.573Z" fill="#FFF1D2"/>
<path d="M286.808 150.573C293.838 150.573 299.536 144.868 299.536 137.83C299.536 130.793 293.838 125.088 286.808 125.088C279.778 125.088 274.08 130.793 274.08 137.83C274.08 144.868 279.778 150.573 286.808 150.573Z" fill="#FFF1D2"/>
<path d="M303.779 205.79C311.746 205.79 318.204 196.662 318.204 185.402C318.204 174.142 311.746 165.015 303.779 165.015C295.812 165.015 289.353 174.142 289.353 185.402C289.353 196.662 295.812 205.79 303.779 205.79Z" fill="#4C4C4C"/>
<path d="M134.07 206.639C142.037 206.639 148.495 197.511 148.495 186.251C148.495 174.991 142.037 165.863 134.07 165.863C126.103 165.863 119.645 174.991 119.645 186.251C119.645 197.511 126.103 206.639 134.07 206.639Z" fill="#4C4C4C"/>
<path d="M124.736 48.6325C124.736 37.4193 114.893 28.2448 102.674 28.2448C90.4549 28.2448 80.6118 37.4193 80.6118 48.6325C80.6118 49.9917 80.7815 51.5208 81.121 52.7101C75.86 54.9188 72.1264 59.8458 72.1264 65.6223C72.1264 73.4377 78.9148 79.7239 87.4002 79.7239C90.6247 79.7239 93.5097 78.8744 95.8856 77.3453C98.2615 78.8744 101.147 79.7239 104.371 79.7239C112.857 79.7239 119.645 73.4377 119.645 65.6223C119.645 64.4331 119.475 63.2438 119.136 62.2244C122.7 58.6565 124.736 53.8994 124.736 48.6325Z" fill="#FFF1D2"/>
<path d="M312.264 48.6325C312.264 37.4193 322.107 28.2448 334.326 28.2448C346.545 28.2448 356.388 37.4193 356.388 48.6325C356.388 49.9917 356.219 51.5208 355.879 52.7101C361.14 54.9188 364.874 59.8458 364.874 65.6223C364.874 73.4377 358.086 79.7239 349.6 79.7239C346.376 79.7239 343.491 78.8744 341.115 77.3453C338.739 78.8744 335.854 79.7239 332.629 79.7239C324.144 79.7239 317.355 73.4377 317.355 65.6223C317.355 64.4331 317.525 63.2438 317.865 62.2244C314.301 58.6565 312.264 53.8994 312.264 48.6325Z" fill="#FFF1D2"/>
<mask id="mask0_174_1986" style="mask-type:luminance" maskUnits="userSpaceOnUse" x="0" y="0" width="437" height="383">
<path d="M387.275 92.6369C389.821 86.0109 391.179 78.8752 391.179 71.2298C391.179 45.5751 355.879 15.6731 338.908 2.93074C333.647 -0.976914 326.35 -0.976914 321.259 2.93074C310.397 11.2557 291.729 26.5466 280.019 43.3665C275.777 43.0267 271.534 42.8568 267.291 42.8568H169.709C165.805 42.8568 161.732 43.0267 157.829 43.1966C145.95 26.5466 127.451 11.0858 116.59 2.93074C111.329 -0.976914 104.031 -0.976914 98.9402 2.93074C81.9693 15.843 46.6699 45.5751 46.6699 71.2298C46.6699 78.5354 48.0276 85.5012 50.2338 91.9573C19.1771 122.709 0 165.523 0 212.585C0 306.369 76.0295 382.483 169.709 382.483H267.291C360.97 382.483 437 306.369 437 212.585C437 165.693 417.993 123.388 387.275 92.6369Z" fill="white"/>
</mask>
<g mask="url(#mask0_174_1986)">
<path d="M189.225 147.174C184.473 147.174 180.74 143.436 180.74 138.679V41.8373C180.74 37.0802 184.473 33.3424 189.225 33.3424C193.977 33.3424 197.71 37.0802 197.71 41.8373V138.679C197.71 143.436 193.977 147.174 189.225 147.174Z" fill="#7F562E"/>
</g>
<mask id="mask1_174_1986" style="mask-type:luminance" maskUnits="userSpaceOnUse" x="0" y="0" width="437" height="383">
<path d="M387.275 92.6369C389.821 86.0109 391.179 78.8752 391.179 71.2298C391.179 45.5751 355.879 15.6731 338.908 2.93074C333.647 -0.976914 326.35 -0.976914 321.259 2.93074C310.397 11.2557 291.729 26.5466 280.019 43.3665C275.777 43.0267 271.534 42.8568 267.291 42.8568H169.709C165.805 42.8568 161.732 43.0267 157.829 43.1966C145.95 26.5466 127.451 11.0858 116.59 2.93074C111.329 -0.976914 104.031 -0.976914 98.9402 2.93074C81.9693 15.843 46.6699 45.5751 46.6699 71.2298C46.6699 78.5354 48.0276 85.5012 50.2338 91.9573C19.1771 122.709 0 165.523 0 212.585C0 306.369 76.0295 382.483 169.709 382.483H267.291C360.97 382.483 437 306.369 437 212.585C437 165.693 417.993 123.388 387.275 92.6369Z" fill="white"/>
</mask>
<g mask="url(#mask1_174_1986)">
<path d="M218.924 148.024C214.173 148.024 210.439 144.286 210.439 139.529V42.6871C210.439 37.93 214.173 34.1922 218.924 34.1922C223.676 34.1922 227.41 37.93 227.41 42.6871V139.529C227.41 144.286 223.676 148.024 218.924 148.024Z" fill="#7F562E"/>
</g>
<mask id="mask2_174_1986" style="mask-type:luminance" maskUnits="userSpaceOnUse" x="0" y="0" width="437" height="383">
<path d="M387.275 92.6369C389.821 86.0109 391.179 78.8752 391.179 71.2298C391.179 45.5751 355.879 15.6731 338.908 2.93074C333.647 -0.976914 326.35 -0.976914 321.259 2.93074C310.397 11.2557 291.729 26.5466 280.019 43.3665C275.777 43.0267 271.534 42.8568 267.291 42.8568H169.709C165.805 42.8568 161.732 43.0267 157.829 43.1966C145.95 26.5466 127.451 11.0858 116.59 2.93074C111.329 -0.976914 104.031 -0.976914 98.9402 2.93074C81.9693 15.843 46.6699 45.5751 46.6699 71.2298C46.6699 78.5354 48.0276 85.5012 50.2338 91.9573C19.1771 122.709 0 165.523 0 212.585C0 306.369 76.0295 382.483 169.709 382.483H267.291C360.97 382.483 437 306.369 437 212.585C437 165.693 417.993 123.388 387.275 92.6369Z" fill="white"/>
</mask>
<g mask="url(#mask2_174_1986)">
<path d="M248.623 148.874C243.871 148.874 240.138 145.136 240.138 140.379V43.5368C240.138 38.7797 243.871 35.0419 248.623 35.0419C253.375 35.0419 257.108 38.7797 257.108 43.5368V140.379C257.108 145.136 253.375 148.874 248.623 148.874Z" fill="#7F562E"/>
</g>
<path d="M321.937 207.658C327.749 207.658 332.459 202.942 332.459 197.124C332.459 191.306 327.749 186.59 321.937 186.59C316.126 186.59 311.415 191.306 311.415 197.124C311.415 202.942 316.126 207.658 321.937 207.658Z" fill="white"/>
<path d="M152.229 209.357C158.04 209.357 162.751 204.641 162.751 198.824C162.751 193.006 158.04 188.29 152.229 188.29C146.418 188.29 141.707 193.006 141.707 198.824C141.707 204.641 146.418 209.357 152.229 209.357Z" fill="white"/>
</svg>
