<svg width="184" height="587" viewBox="0 0 184 587" fill="none" xmlns="http://www.w3.org/2000/svg">
<path d="M91.5634 109L91.5633 495" stroke="#E0A565" stroke-width="183" stroke-linecap="round"/>
<path d="M163.005 38.7518C164.07 35.98 164.638 32.995 164.638 29.7968C164.638 19.065 149.871 6.55636 142.772 1.22599C140.571 -0.408662 137.518 -0.408662 135.389 1.22599C130.845 4.7085 123.036 11.1049 118.138 18.141C116.363 17.9989 114.588 17.9278 112.813 17.9278H71.9924C70.3596 17.9278 68.6558 17.9989 67.023 18.07C62.0535 11.1049 54.3153 4.63742 49.7718 1.22599C47.571 -0.408662 44.5184 -0.408662 42.3886 1.22599C35.2893 6.62743 20.5229 19.065 20.5229 29.7968C20.5229 32.8529 21.0909 35.7668 22.0138 38.4675C9.02215 51.3315 1 69.2415 1 88.9284C1 128.16 32.8046 160 71.9924 160H112.813C152.001 160 183.806 128.16 183.806 88.9284C183.806 69.3126 175.854 51.6158 163.005 38.7518Z" fill="#E0A565"/>
<path d="M121.19 106.839C121.19 97.8126 113.878 90.4922 104.862 90.4922C99.8924 90.4922 95.4909 92.6954 92.4382 96.1779C89.4565 92.6954 84.984 90.4922 80.0145 90.4922C70.9985 90.4922 63.6863 97.8126 63.6863 106.839C63.6863 108.829 64.0412 110.748 64.6802 112.524C70.2176 127.734 92.3672 127.236 92.3672 127.236H92.4382H92.5092C92.5092 127.236 114.659 127.734 120.196 112.524C120.764 110.677 121.19 108.829 121.19 106.839Z" fill="#FFF1D2"/>
<path d="M32.2368 88.3602C32.0238 88.3602 31.8818 88.3602 31.6688 88.2891L16.1215 83.0298C15.1986 82.7455 14.7016 81.6795 14.9856 80.7555C15.2696 79.8316 16.3345 79.3341 17.2574 79.6184L32.8047 84.8777C33.7276 85.162 34.2246 86.228 33.9406 87.152C33.6566 87.9338 32.9467 88.3602 32.2368 88.3602Z" fill="white"/>
<path d="M16.6184 113.946C15.9085 113.946 15.1985 113.448 14.9146 112.737C14.6306 111.813 15.1275 110.818 16.0504 110.463L31.5978 105.204C32.5207 104.92 33.5146 105.417 33.8695 106.341C34.1535 107.265 33.6566 108.26 32.7337 108.615L17.1863 113.875C17.0443 113.946 16.8314 113.946 16.6184 113.946Z" fill="white"/>
<path d="M32.6627 98.5228H16.6184C15.6245 98.5228 14.8436 97.741 14.8436 96.746C14.8436 95.751 15.6245 94.9692 16.6184 94.9692H32.6627C33.6566 94.9692 34.4375 95.751 34.4375 96.746C34.4375 97.741 33.6566 98.5228 32.6627 98.5228Z" fill="white"/>
<path d="M88.8177 104.138C85.836 104.138 83.4222 101.721 83.4222 98.7364C83.4222 97.7414 84.2032 96.9596 85.1971 96.9596C86.1909 96.9596 86.9719 97.7414 86.9719 98.7364C86.9719 99.7314 87.8238 100.584 88.8177 100.584C89.8116 100.584 90.6635 99.7314 90.6635 98.7364V92.5532C90.6635 91.5582 91.4444 90.7764 92.4383 90.7764C93.4322 90.7764 94.2131 91.5582 94.2131 92.5532V98.7364C94.2131 101.721 91.7284 104.138 88.8177 104.138Z" fill="#5B4745"/>
<path d="M95.9877 104.138C93.006 104.138 90.5923 101.721 90.5923 98.7364V92.5532C90.5923 91.5582 91.3732 90.7764 92.3671 90.7764C93.361 90.7764 94.1419 91.5582 94.1419 92.5532V98.7364C94.1419 99.7314 94.9938 100.584 95.9877 100.584C96.9816 100.584 97.8335 99.7314 97.8335 98.7364C97.8335 97.7414 98.6144 96.9596 99.6083 96.9596C100.602 96.9596 101.383 97.7414 101.383 98.7364C101.383 101.721 98.9694 104.138 95.9877 104.138Z" fill="#5B4745"/>
<path d="M96.9109 92.4108L93.4322 96.0354C92.8643 96.604 91.9414 96.604 91.4444 96.0354L87.9658 92.4108C87.1139 91.5579 87.7528 90.0654 88.9597 90.0654H95.988C97.1238 89.9944 97.7628 91.4869 96.9109 92.4108Z" fill="#D37562"/>
<path d="M57.0841 91.1318C66.298 91.1318 73.7673 85.0542 73.7673 77.5571C73.7673 70.06 66.298 63.9824 57.0841 63.9824C47.8702 63.9824 40.4009 70.06 40.4009 77.5571C40.4009 85.0542 47.8702 91.1318 57.0841 91.1318Z" fill="#7F562E"/>
<path d="M57.0838 89.9942C63.9452 89.9942 69.5075 84.4257 69.5075 77.5567C69.5075 70.6876 63.9452 65.1191 57.0838 65.1191C50.2224 65.1191 44.6602 70.6876 44.6602 77.5567C44.6602 84.4257 50.2224 89.9942 57.0838 89.9942Z" fill="#90D1CF"/>
<path d="M152.924 88.3602C152.214 88.3602 151.504 87.8627 151.22 87.152C150.936 86.228 151.433 85.233 152.356 84.8777L167.903 79.6184C168.826 79.3341 169.82 79.8316 170.175 80.7555C170.459 81.6795 169.962 82.6745 169.039 83.0298L153.492 88.2891C153.35 88.3602 153.137 88.3602 152.924 88.3602Z" fill="white"/>
<path d="M168.542 113.946C168.329 113.946 168.187 113.946 167.974 113.875L152.427 108.615C151.504 108.331 151.007 107.265 151.291 106.341C151.575 105.417 152.64 104.92 153.563 105.204L169.11 110.463C170.033 110.747 170.53 111.813 170.246 112.737C169.962 113.519 169.252 113.946 168.542 113.946Z" fill="white"/>
<path d="M168.542 98.5228H152.498C151.504 98.5228 150.723 97.741 150.723 96.746C150.723 95.751 151.504 94.9692 152.498 94.9692H168.542C169.536 94.9692 170.317 95.751 170.317 96.746C170.317 97.741 169.465 98.5228 168.542 98.5228Z" fill="white"/>
<path d="M128.077 91.1318C137.29 91.1318 144.76 85.0542 144.76 77.5571C144.76 70.06 137.29 63.9824 128.077 63.9824C118.863 63.9824 111.393 70.06 111.393 77.5571C111.393 85.0542 118.863 91.1318 128.077 91.1318Z" fill="#7F562E"/>
<path d="M128.077 89.9942C134.938 89.9942 140.5 84.4257 140.5 77.5567C140.5 70.6876 134.938 65.1191 128.077 65.1191C121.215 65.1191 115.653 70.6876 115.653 77.5567C115.653 84.4257 121.215 89.9942 128.077 89.9942Z" fill="#90D1CF"/>
<path d="M63.4732 62.9874C66.4138 62.9874 68.7977 60.6009 68.7977 57.657C68.7977 54.7131 66.4138 52.3267 63.4732 52.3267C60.5326 52.3267 58.1488 54.7131 58.1488 57.657C58.1488 60.6009 60.5326 62.9874 63.4732 62.9874Z" fill="#FFF1D2"/>
<path d="M120.977 62.9874C123.918 62.9874 126.302 60.6009 126.302 57.657C126.302 54.7131 123.918 52.3267 120.977 52.3267C118.037 52.3267 115.653 54.7131 115.653 57.657C115.653 60.6009 118.037 62.9874 120.977 62.9874Z" fill="#FFF1D2"/>
<path d="M128.076 86.086C131.409 86.086 134.111 82.2676 134.111 77.5574C134.111 72.8472 131.409 69.0288 128.076 69.0288C124.744 69.0288 122.042 72.8472 122.042 77.5574C122.042 82.2676 124.744 86.086 128.076 86.086Z" fill="#4C4C4C"/>
<path d="M57.084 86.441C60.4167 86.441 63.1184 82.6226 63.1184 77.9124C63.1184 73.2022 60.4167 69.3838 57.084 69.3838C53.7514 69.3838 51.0497 73.2022 51.0497 77.9124C51.0497 82.6226 53.7514 86.441 57.084 86.441Z" fill="#4C4C4C"/>
<path d="M53.1795 20.344C53.1795 15.6533 49.062 11.8154 43.9505 11.8154C38.8391 11.8154 34.7215 15.6533 34.7215 20.344C34.7215 20.9126 34.7925 21.5522 34.9345 22.0497C32.7337 22.9737 31.1719 25.0348 31.1719 27.4512C31.1719 30.7205 34.0116 33.3501 37.5612 33.3501C38.9101 33.3501 40.1169 32.9948 41.1108 32.3551C42.1047 32.9948 43.3116 33.3501 44.6604 33.3501C48.2101 33.3501 51.0498 30.7205 51.0498 27.4512C51.0498 26.9537 50.9788 26.4562 50.8368 26.0298C52.3276 24.5372 53.1795 22.5472 53.1795 20.344Z" fill="#FFF1D2"/>
<path d="M131.626 20.344C131.626 15.6533 135.744 11.8154 140.855 11.8154C145.967 11.8154 150.084 15.6533 150.084 20.344C150.084 20.9126 150.013 21.5522 149.871 22.0497C152.072 22.9737 153.634 25.0348 153.634 27.4512C153.634 30.7205 150.794 33.3501 147.244 33.3501C145.896 33.3501 144.689 32.9948 143.695 32.3551C142.701 32.9948 141.494 33.3501 140.145 33.3501C136.596 33.3501 133.756 30.7205 133.756 27.4512C133.756 26.9537 133.827 26.4562 133.969 26.0298C132.478 24.5372 131.626 22.5472 131.626 20.344Z" fill="#FFF1D2"/>
<mask id="mask0_174_1464" style="mask-type:luminance" maskUnits="userSpaceOnUse" x="1" y="0" width="183" height="160">
<path d="M163.005 38.7518C164.07 35.98 164.638 32.995 164.638 29.7968C164.638 19.065 149.871 6.55636 142.772 1.22599C140.571 -0.408662 137.518 -0.408662 135.389 1.22599C130.845 4.7085 123.036 11.1049 118.138 18.141C116.363 17.9989 114.588 17.9278 112.813 17.9278H71.9924C70.3596 17.9278 68.6558 17.9989 67.023 18.07C62.0535 11.1049 54.3153 4.63742 49.7718 1.22599C47.571 -0.408662 44.5184 -0.408662 42.3886 1.22599C35.2893 6.62743 20.5229 19.065 20.5229 29.7968C20.5229 32.8529 21.0909 35.7668 22.0138 38.4675C9.02215 51.3315 1 69.2415 1 88.9284C1 128.16 32.8046 160 71.9924 160H112.813C152.001 160 183.806 128.16 183.806 88.9284C183.806 69.3126 175.854 51.6158 163.005 38.7518Z" fill="white"/>
</mask>
<g mask="url(#mask0_174_1464)">
<path d="M80.1566 61.5657C78.1688 61.5657 76.6069 60.0022 76.6069 58.0122V17.5013C76.6069 15.5113 78.1688 13.9478 80.1566 13.9478C82.1443 13.9478 83.7062 15.5113 83.7062 17.5013V58.0122C83.7062 60.0022 82.1443 61.5657 80.1566 61.5657Z" fill="#7F562E"/>
</g>
<mask id="mask1_174_1464" style="mask-type:luminance" maskUnits="userSpaceOnUse" x="1" y="0" width="183" height="160">
<path d="M163.005 38.7518C164.07 35.98 164.638 32.995 164.638 29.7968C164.638 19.065 149.871 6.55636 142.772 1.22599C140.571 -0.408662 137.518 -0.408662 135.389 1.22599C130.845 4.7085 123.036 11.1049 118.138 18.141C116.363 17.9989 114.588 17.9278 112.813 17.9278H71.9924C70.3596 17.9278 68.6558 17.9989 67.023 18.07C62.0535 11.1049 54.3153 4.63742 49.7718 1.22599C47.571 -0.408662 44.5184 -0.408662 42.3886 1.22599C35.2893 6.62743 20.5229 19.065 20.5229 29.7968C20.5229 32.8529 21.0909 35.7668 22.0138 38.4675C9.02215 51.3315 1 69.2415 1 88.9284C1 128.16 32.8046 160 71.9924 160H112.813C152.001 160 183.806 128.16 183.806 88.9284C183.806 69.3126 175.854 51.6158 163.005 38.7518Z" fill="white"/>
</mask>
<g mask="url(#mask1_174_1464)">
<path d="M92.5804 61.9212C90.5926 61.9212 89.0308 60.3576 89.0308 58.3676V17.8568C89.0308 15.8668 90.5926 14.3032 92.5804 14.3032C94.5682 14.3032 96.13 15.8668 96.13 17.8568V58.3676C96.13 60.3576 94.5682 61.9212 92.5804 61.9212Z" fill="#7F562E"/>
</g>
<mask id="mask2_174_1464" style="mask-type:luminance" maskUnits="userSpaceOnUse" x="1" y="0" width="183" height="160">
<path d="M163.005 38.7518C164.07 35.98 164.638 32.995 164.638 29.7968C164.638 19.065 149.871 6.55636 142.772 1.22599C140.571 -0.408662 137.518 -0.408662 135.389 1.22599C130.845 4.7085 123.036 11.1049 118.138 18.141C116.363 17.9989 114.588 17.9278 112.813 17.9278H71.9924C70.3596 17.9278 68.6558 17.9989 67.023 18.07C62.0535 11.1049 54.3153 4.63742 49.7718 1.22599C47.571 -0.408662 44.5184 -0.408662 42.3886 1.22599C35.2893 6.62743 20.5229 19.065 20.5229 29.7968C20.5229 32.8529 21.0909 35.7668 22.0138 38.4675C9.02215 51.3315 1 69.2415 1 88.9284C1 128.16 32.8046 160 71.9924 160H112.813C152.001 160 183.806 128.16 183.806 88.9284C183.806 69.3126 175.854 51.6158 163.005 38.7518Z" fill="white"/>
</mask>
<g mask="url(#mask2_174_1464)">
<path d="M105.004 62.2767C103.016 62.2767 101.454 60.7131 101.454 58.7231V18.2123C101.454 16.2223 103.016 14.6587 105.004 14.6587C106.992 14.6587 108.553 16.2223 108.553 18.2123V58.7231C108.553 60.7131 106.992 62.2767 105.004 62.2767Z" fill="#7F562E"/>
</g>
<path d="M135.673 86.8671C138.104 86.8671 140.074 84.8943 140.074 82.4606C140.074 80.027 138.104 78.0542 135.673 78.0542C133.242 78.0542 131.271 80.027 131.271 82.4606C131.271 84.8943 133.242 86.8671 135.673 86.8671Z" fill="white"/>
<path d="M64.6803 87.578C67.1112 87.578 69.0819 85.6052 69.0819 83.1716C69.0819 80.738 67.1112 78.7651 64.6803 78.7651C62.2494 78.7651 60.2788 80.738 60.2788 83.1716C60.2788 85.6052 62.2494 87.578 64.6803 87.578Z" fill="white"/>
</svg>
