<svg width="745" height="219" viewBox="0 0 745 219" fill="none" xmlns="http://www.w3.org/2000/svg">
<path d="M728.486 117.351L714.44 64.8342L570.846 77.3489L566.146 131.542C561.949 179.757 602.184 220.151 650.254 215.961L660.326 215.067C708.396 210.877 740.965 164.114 728.486 117.351Z" fill="#E0A565"/>
<path d="M694.798 28.7426C695.413 26.5078 695.637 24.1054 695.469 21.6472C694.742 13.2109 682.263 4.4953 676.331 0.752063C674.484 -0.421192 672.134 -0.197714 670.511 1.25489C667.154 4.27183 661.502 9.85876 658.088 15.6692C656.689 15.6692 655.29 15.7809 653.891 15.8926L621.826 18.6861C620.539 18.7978 619.196 18.9654 617.965 19.1889C613.6 14.0489 607.108 9.57941 603.247 7.17703C601.4 6.00378 599.05 6.22725 597.427 7.67986C592.223 12.3729 581.479 23.1556 582.206 31.5919C582.43 33.9943 583.046 36.2291 583.997 38.2962C574.708 49.2466 569.615 63.8285 570.958 79.3043C573.644 110.032 600.785 132.771 631.563 130.089L663.628 127.296C694.406 124.614 717.182 97.5177 714.496 66.7896C713.209 51.3138 705.766 37.961 694.798 28.7426Z" fill="#E0A565"/>
<path d="M606.493 75.6169C606.381 75.6169 606.269 75.6169 606.157 75.561L593.566 72.4882C592.839 72.3206 592.335 71.5384 592.559 70.8121C592.727 70.0858 593.51 69.583 594.238 69.8065L606.829 72.8793C607.556 73.0469 608.06 73.8291 607.836 74.5554C607.724 75.2258 607.108 75.6169 606.493 75.6169Z" fill="white"/>
<path d="M596.028 96.7356C595.469 96.7356 594.965 96.4004 594.741 95.8975C594.405 95.1712 594.741 94.389 595.469 94.0538L607.332 88.858C608.06 88.5228 608.843 88.858 609.179 89.5843C609.515 90.3106 609.179 91.0928 608.451 91.428L596.588 96.6238C596.42 96.7356 596.196 96.7356 596.028 96.7356Z" fill="white"/>
<path d="M594.965 84.6676C594.238 84.6676 593.622 84.1089 593.566 83.3826C593.51 82.6005 594.07 81.93 594.853 81.8742L607.444 80.7568C608.228 80.7009 608.899 81.2596 608.955 82.0418C609.011 82.8239 608.452 83.4944 607.668 83.5502L595.077 84.6676C595.021 84.6676 595.021 84.6676 594.965 84.6676Z" fill="white"/>
<path d="M626.338 76.0796C633.573 75.4476 639.021 70.1758 638.507 64.3048C637.992 58.4337 631.71 54.1866 624.475 54.8186C617.239 55.4506 611.791 60.7223 612.305 66.5934C612.82 72.4644 619.102 76.7115 626.338 76.0796Z" fill="#7F562E"/>
<path d="M625.407 75.2258C630.816 75.2258 635.2 70.8484 635.2 65.4486C635.2 60.0489 630.816 55.6715 625.407 55.6715C619.999 55.6715 615.614 60.0489 615.614 65.4486C615.614 70.8484 619.999 75.2258 625.407 75.2258Z" fill="#B3BF80"/>
<path d="M695.749 67.8512C695.189 67.8512 694.686 67.516 694.462 67.0131C694.126 66.2868 694.462 65.5047 695.189 65.1694L707.053 59.9736C707.78 59.6384 708.564 59.9736 708.9 60.6999C709.235 61.4262 708.9 62.2084 708.172 62.5436L696.309 67.7394C696.085 67.7953 695.917 67.8512 695.749 67.8512Z" fill="white"/>
<path d="M709.683 86.7907C709.571 86.7907 709.459 86.7907 709.347 86.7349L696.756 83.6621C696.029 83.4944 695.525 82.7123 695.749 81.986C695.917 81.2597 696.7 80.7568 697.428 80.9803L710.019 84.0531C710.746 84.2207 711.25 85.0029 711.026 85.7292C710.914 86.3996 710.355 86.7907 709.683 86.7907Z" fill="white"/>
<path d="M696.085 75.8405C695.358 75.8405 694.742 75.2818 694.686 74.5555C694.63 73.7733 695.19 73.1029 695.973 73.047L708.564 71.9296C709.348 71.8738 710.019 72.4325 710.075 73.2146C710.131 73.9968 709.571 74.6672 708.788 74.7231L696.197 75.8405C696.141 75.8405 696.085 75.8405 696.085 75.8405Z" fill="white"/>
<path d="M682.075 71.22C689.31 70.588 694.759 65.3162 694.244 59.4452C693.73 53.5741 687.447 49.327 680.212 49.959C672.977 50.591 667.529 55.8627 668.043 61.7338C668.557 67.6048 674.84 71.8519 682.075 71.22Z" fill="#7F562E"/>
<path d="M681.143 70.3653C686.552 70.3653 690.936 65.9879 690.936 60.5882C690.936 55.1884 686.552 50.811 681.143 50.811C675.735 50.811 671.35 55.1884 671.35 60.5882C671.35 65.9879 675.735 70.3653 681.143 70.3653Z" fill="#B3BF80"/>
<path d="M629.045 53.6603C631.363 53.6603 633.242 51.7843 633.242 49.4701C633.242 47.1559 631.363 45.2799 629.045 45.2799C626.727 45.2799 624.848 47.1559 624.848 49.4701C624.848 51.7843 626.727 53.6603 629.045 53.6603Z" fill="#FFF1D2"/>
<path d="M674.205 49.6935C676.523 49.6935 678.402 47.8175 678.402 45.5033C678.402 43.1891 676.523 41.3131 674.205 41.3131C671.887 41.3131 670.008 43.1891 670.008 45.5033C670.008 47.8175 671.887 49.6935 674.205 49.6935Z" fill="#FFF1D2"/>
<path d="M681.729 67.2682C684.346 67.0397 686.205 63.8641 685.882 60.1755C685.559 56.4869 683.175 53.682 680.558 53.9106C677.941 54.1392 676.081 57.3147 676.405 61.0033C676.728 64.6919 679.112 67.4968 681.729 67.2682Z" fill="#4C4C4C"/>
<path d="M625.991 72.4095C628.608 72.1809 630.468 69.0054 630.145 65.3168C629.821 61.6281 627.438 58.8232 624.821 59.0518C622.204 59.2804 620.344 62.4559 620.668 66.1445C620.991 69.8332 623.374 72.6381 625.991 72.4095Z" fill="#4C4C4C"/>
<path d="M607.276 21.9266C606.94 18.2392 603.471 15.5575 599.442 15.8927C595.413 16.2279 592.447 19.5242 592.783 23.2116C592.839 23.6585 592.894 24.1055 593.062 24.5524C591.384 25.4463 590.32 27.1224 590.488 29.022C590.712 31.5919 593.118 33.4356 595.916 33.2121C596.924 33.1004 597.875 32.7652 598.658 32.2065C599.498 32.6535 600.505 32.8211 601.512 32.7652C604.31 32.5417 606.325 30.2511 606.101 27.6811C606.045 27.29 605.989 26.8989 605.821 26.5637C606.829 25.2228 607.388 23.6026 607.276 21.9266Z" fill="#FFF1D2"/>
<path d="M668.889 16.5072C668.553 12.8198 671.575 9.52354 675.548 9.18832C679.577 8.85311 683.046 11.5348 683.382 15.2222C683.438 15.6692 683.438 16.172 683.326 16.6189C685.117 17.1776 686.46 18.6861 686.628 20.5857C686.852 23.1556 684.781 25.3904 682.039 25.6698C681.032 25.7815 680.025 25.558 679.185 25.1111C678.458 25.6698 677.506 26.0609 676.443 26.1167C673.645 26.3402 671.239 24.4965 671.015 21.9265C670.959 21.5354 671.015 21.1444 671.071 20.7533C669.84 19.6917 669 18.2391 668.889 16.5072Z" fill="#FFF1D2"/>
<mask id="mask0_393_631" style="mask-type:luminance" maskUnits="userSpaceOnUse" x="570" y="0" width="145" height="131">
<path d="M694.798 28.7426C695.413 26.5078 695.637 24.1054 695.469 21.6472C694.742 13.2109 682.263 4.4953 676.331 0.752063C674.484 -0.421192 672.134 -0.197714 670.511 1.25489C667.154 4.27183 661.502 9.85876 658.088 15.6692C656.689 15.6692 655.29 15.7809 653.891 15.8926L621.826 18.6861C620.539 18.7978 619.196 18.9654 617.965 19.1889C613.6 14.0489 607.108 9.57941 603.247 7.17703C601.4 6.00378 599.05 6.22725 597.427 7.67986C592.223 12.3729 581.479 23.1556 582.206 31.5919C582.43 33.9943 583.046 36.2291 583.997 38.2962C574.708 49.2466 569.615 63.8285 570.958 79.3043C573.644 110.032 600.785 132.771 631.563 130.089L663.628 127.296C694.406 124.614 717.182 97.5177 714.496 66.7896C713.209 51.3138 705.766 37.961 694.798 28.7426Z" fill="white"/>
</mask>
<g mask="url(#mask0_393_631)">
<path d="M664.467 46.0621C662.956 46.0621 661.725 44.8888 661.669 43.3804C660.998 21.4796 655.066 16.2838 655.01 16.2838C655.066 16.3396 655.066 16.3396 655.066 16.3396L658.312 11.8142C659.151 12.4288 666.482 18.3509 667.265 43.2686C667.321 44.833 666.09 46.118 664.579 46.1738C664.523 46.0621 664.523 46.0621 664.467 46.0621Z" fill="#7F562E"/>
</g>
<mask id="mask1_393_631" style="mask-type:luminance" maskUnits="userSpaceOnUse" x="570" y="0" width="145" height="131">
<path d="M694.798 28.7426C695.413 26.5078 695.637 24.1054 695.469 21.6472C694.742 13.2109 682.263 4.4953 676.331 0.752063C674.484 -0.421192 672.134 -0.197714 670.511 1.25489C667.154 4.27183 661.502 9.85876 658.088 15.6692C656.689 15.6692 655.29 15.7809 653.891 15.8926L621.826 18.6861C620.539 18.7978 619.196 18.9654 617.965 19.1889C613.6 14.0489 607.108 9.57941 603.247 7.17703C601.4 6.00378 599.05 6.22725 597.427 7.67986C592.223 12.3729 581.479 23.1556 582.206 31.5919C582.43 33.9943 583.046 36.2291 583.997 38.2962C574.708 49.2466 569.615 63.8285 570.958 79.3043C573.644 110.032 600.785 132.771 631.563 130.089L663.628 127.296C694.406 124.614 717.182 97.5177 714.496 66.7896C713.209 51.3138 705.766 37.961 694.798 28.7426Z" fill="white"/>
</mask>
<g mask="url(#mask1_393_631)">
<path d="M654.171 46.9561C652.66 46.9561 651.429 45.7829 651.373 44.2744C650.701 22.3736 644.769 17.1778 644.713 17.1778C644.769 17.2337 644.769 17.2337 644.769 17.2337L648.015 12.7083C648.854 13.3228 656.185 19.245 656.969 44.1627C657.025 45.727 655.793 47.012 654.283 47.0679C654.227 46.9561 654.227 46.9561 654.171 46.9561Z" fill="#7F562E"/>
</g>
<mask id="mask2_393_631" style="mask-type:luminance" maskUnits="userSpaceOnUse" x="570" y="0" width="145" height="131">
<path d="M694.798 28.7426C695.413 26.5078 695.637 24.1054 695.469 21.6472C694.742 13.2109 682.263 4.4953 676.331 0.752063C674.484 -0.421192 672.134 -0.197714 670.511 1.25489C667.154 4.27183 661.502 9.85876 658.088 15.6692C656.689 15.6692 655.29 15.7809 653.891 15.8926L621.826 18.6861C620.539 18.7978 619.196 18.9654 617.965 19.1889C613.6 14.0489 607.108 9.57941 603.247 7.17703C601.4 6.00378 599.05 6.22725 597.427 7.67986C592.223 12.3729 581.479 23.1556 582.206 31.5919C582.43 33.9943 583.046 36.2291 583.997 38.2962C574.708 49.2466 569.615 63.8285 570.958 79.3043C573.644 110.032 600.785 132.771 631.563 130.089L663.628 127.296C694.406 124.614 717.182 97.5177 714.496 66.7896C713.209 51.3138 705.766 37.961 694.798 28.7426Z" fill="white"/>
</mask>
<g mask="url(#mask2_393_631)">
<path d="M643.874 47.8498C642.363 47.8498 641.132 46.6765 641.076 45.1681C640.404 23.2673 634.473 18.0715 634.417 18.0715C634.473 18.1273 634.473 18.1273 634.473 18.1273L637.718 13.6019C638.558 14.2165 645.889 20.1386 646.672 45.0563C646.728 46.6207 645.497 47.9057 643.986 47.9615C643.93 47.8498 643.93 47.8498 643.874 47.8498Z" fill="#7F562E"/>
</g>
<path d="M687.411 67.3482C689.327 67.3482 690.881 65.7974 690.881 63.8843C690.881 61.9712 689.327 60.4204 687.411 60.4204C685.495 60.4204 683.942 61.9712 683.942 63.8843C683.942 65.7974 685.495 67.3482 687.411 67.3482Z" fill="white"/>
<path d="M631.731 72.7676C633.647 72.7676 635.2 71.2168 635.2 69.3037C635.2 67.3907 633.647 65.8398 631.731 65.8398C629.815 65.8398 628.261 67.3907 628.261 69.3037C628.261 71.2168 629.815 72.7676 631.731 72.7676Z" fill="white"/>
<path d="M742.028 171.768C746.673 177.522 745.778 185.959 740.014 190.652L726.751 201.379C720.987 206.016 712.537 205.122 707.837 199.367C703.192 193.613 704.087 185.177 709.851 180.484L723.114 169.757C728.934 165.119 737.384 165.957 742.028 171.768Z" fill="#E0A565"/>
<path d="M597.931 202.887C572.189 202.887 550.645 194.674 533.801 178.416C517.908 163.108 507.108 141.431 501.68 114.111C497.819 94.5566 498.21 78.9132 498.266 78.2986C498.602 67.5159 507.612 59.0237 518.412 59.359C529.212 59.6942 537.718 68.6891 537.382 79.4719C537.382 80.0865 536.543 126.905 561.053 150.482C571.574 160.538 585.452 164.896 603.527 163.723C614.327 163.052 623.617 171.209 624.344 181.992C625.072 192.775 616.846 202.049 606.045 202.775C603.303 202.775 600.617 202.887 597.931 202.887Z" fill="#E0A565"/>
<path d="M537.382 79.3601C537.662 68.5773 529.212 59.5824 518.412 59.2471C507.555 58.9119 498.546 67.4041 498.21 78.1868C498.21 78.5779 498.042 84.7235 498.826 93.9978L537.83 90.5898C537.326 83.9414 537.382 79.5277 537.382 79.3601Z" fill="#FFF1D2"/>
<path d="M667.713 203.949C692.84 203.949 713.209 183.613 713.209 158.527C713.209 133.441 692.84 113.105 667.713 113.105C642.587 113.105 622.218 133.441 622.218 158.527C622.218 183.613 642.587 203.949 667.713 203.949Z" fill="#FFF1D2"/>
<path d="M720.316 117.391C728.567 117.391 735.257 110.712 735.257 102.474C735.257 94.2353 728.567 87.5566 720.316 87.5566C712.064 87.5566 705.374 94.2353 705.374 102.474C705.374 110.712 712.064 117.391 720.316 117.391Z" fill="#FFF1D2"/>
<path d="M683.886 83.4387C683.27 76.3433 677.003 71.1474 669.896 71.762C665.978 72.0972 662.677 74.1644 660.55 77.0696C657.976 74.5555 654.339 73.1029 650.422 73.4381C643.315 74.0526 638.11 80.31 638.726 87.4054C638.838 88.9697 639.286 90.4223 639.901 91.7632C645.273 103.328 662.621 101.429 662.621 101.429H662.677H662.733C662.733 101.429 680.136 100.311 683.438 88.02C683.886 86.5115 684.054 85.003 683.886 83.4387Z" fill="#FFF1D2"/>
<path d="M657.92 83.5503C656.913 83.5503 655.962 83.2151 655.178 82.5447C654.283 81.8184 653.779 80.8127 653.667 79.6395C653.611 78.8573 654.171 78.1869 654.955 78.131C655.738 78.0751 656.409 78.6338 656.465 79.416C656.521 79.8071 656.689 80.1423 656.969 80.4217C657.249 80.6451 657.641 80.8127 658.032 80.7569C658.424 80.701 658.76 80.5334 659.04 80.254C659.263 79.9747 659.431 79.5836 659.375 79.1925L658.928 74.3319C658.872 73.5497 659.431 72.8793 660.215 72.8234C660.998 72.7676 661.67 73.3263 661.726 74.1084L662.173 78.969C662.285 80.0864 661.95 81.2038 661.222 82.0419C660.495 82.9358 659.487 83.4386 658.312 83.5503C658.2 83.5503 658.032 83.5503 657.92 83.5503Z" fill="#5B4745"/>
<path d="M663.628 83.0476C662.621 83.0476 661.67 82.7124 660.886 82.0419C659.991 81.3156 659.487 80.31 659.375 79.1367L658.928 74.2761C658.872 73.4939 659.431 72.8235 660.215 72.7676C660.998 72.7118 661.67 73.2705 661.726 74.0526L662.173 78.9133C662.229 79.3043 662.397 79.6396 662.677 79.9189C662.957 80.1424 663.349 80.31 663.74 80.2541C664.132 80.1983 664.468 80.0306 664.748 79.7513C664.971 79.472 665.139 79.0809 665.083 78.6898C665.027 77.9076 665.587 77.2372 666.37 77.1813C667.154 77.1254 667.825 77.6841 667.881 78.4663C667.993 79.5837 667.657 80.7011 666.93 81.5391C666.202 82.433 665.195 82.9358 664.02 83.0476C663.852 83.0476 663.74 83.0476 663.628 83.0476Z" fill="#5B4745"/>
<path d="M663.908 73.7733L661.39 76.8461C660.998 77.3489 660.271 77.4048 659.823 76.9578L656.801 74.3319C656.074 73.7174 656.465 72.4883 657.417 72.4324L662.901 71.9296C663.908 71.9296 664.468 73.047 663.908 73.7733Z" fill="#D37562"/>
<path d="M639.845 181.769C645.553 186.517 646.281 195.01 641.524 200.652L630.556 213.726C625.799 219.424 617.293 220.151 611.641 215.402C605.933 210.653 605.206 202.161 609.963 196.518L620.931 183.445C625.687 177.746 634.193 177.02 639.845 181.769Z" fill="#E0A565"/>
<path d="M636.823 206.798C636.711 206.798 636.543 206.742 636.487 206.686C636.264 206.463 636.208 206.128 636.432 205.904L641.132 200.317C645.721 194.898 644.993 186.741 639.565 182.216C634.137 177.634 625.967 178.361 621.434 183.78L616.118 190.093C615.894 190.317 615.558 190.372 615.335 190.149C615.111 189.925 615.055 189.59 615.279 189.367L620.595 183.054C625.575 177.131 634.417 176.405 640.293 181.322C646.225 186.294 646.952 195.121 642.028 200.988L637.327 206.575C637.159 206.742 636.991 206.798 636.823 206.798Z" fill="#7F562E"/>
<path d="M628.989 125.324C637.241 125.324 643.93 118.646 643.93 110.407C643.93 102.169 637.241 95.49 628.989 95.49C620.737 95.49 614.047 102.169 614.047 110.407C614.047 118.646 620.737 125.324 628.989 125.324Z" fill="#FFF1D2"/>
<path d="M673.938 192.554C606.594 192.554 606.594 172.687 539.151 172.687C471.806 172.687 471.806 192.554 404.363 192.554C337.018 192.554 337.018 172.687 269.575 172.687C202.231 172.687 202.231 192.554 134.788 192.554C67.3446 192.554 67.4429 172.687 -6.70635e-05 172.687" stroke="#92D1D0" stroke-width="5" stroke-miterlimit="10"/>
<path d="M680.433 204.121C709.341 204.121 732.774 180.726 732.774 151.865C732.774 123.005 709.341 99.6091 680.433 99.6091C651.526 99.6091 628.092 123.005 628.092 151.865C628.092 180.726 651.526 204.121 680.433 204.121Z" fill="#92D1D0"/>
<mask id="mask3_393_631" style="mask-type:luminance" maskUnits="userSpaceOnUse" x="628" y="99" width="105" height="106">
<path d="M680.433 204.121C709.341 204.121 732.774 180.726 732.774 151.865C732.774 123.005 709.341 99.6091 680.433 99.6091C651.526 99.6091 628.092 123.005 628.092 151.865C628.092 180.726 651.526 204.121 680.433 204.121Z" fill="white"/>
</mask>
<g mask="url(#mask3_393_631)">
<path d="M752.471 290.688C722.306 293.3 695.654 270.954 692.968 240.838C690.351 210.722 712.734 184.113 742.898 181.431C773.063 178.818 799.716 201.165 802.402 231.281C805.019 261.397 782.636 288.006 752.471 290.688ZM743.312 186.519C715.97 188.926 695.654 213.06 698.064 240.357C700.475 267.654 724.648 287.937 751.989 285.531C779.331 283.124 799.647 258.99 797.237 231.693C794.895 204.396 770.722 184.181 743.312 186.519Z" fill="#22A39F"/>
<path d="M756.603 337.512C700.543 342.394 650.957 300.864 646.067 244.895C641.178 188.926 682.775 139.42 738.835 134.538C794.895 129.656 844.481 171.186 849.371 227.155C854.261 283.124 812.595 332.63 756.603 337.512ZM739.248 139.695C686.012 144.371 646.55 191.332 651.164 244.482C655.778 297.632 702.885 337.031 756.121 332.424C809.358 327.748 848.82 280.787 844.206 227.637C839.592 174.487 792.485 135.02 739.248 139.695Z" fill="#22A39F"/>
<path d="M755.226 321.904C707.844 326.029 665.902 290.894 661.701 243.588C657.569 196.214 692.761 154.341 740.144 150.215C787.526 146.09 829.468 181.225 833.669 228.53C837.87 275.836 802.608 317.778 755.226 321.904ZM740.626 155.303C696.067 159.222 662.941 198.621 666.797 243.107C670.654 287.594 710.185 320.666 754.744 316.816C799.303 312.897 832.429 273.498 828.572 229.012C824.647 184.457 785.184 151.384 740.626 155.303Z" fill="#22A39F"/>
<path d="M753.849 306.296C715.075 309.665 680.778 280.924 677.334 242.213C673.96 203.503 702.747 169.261 741.521 165.823C780.295 162.454 814.592 191.195 818.035 229.906C821.479 268.617 792.622 302.858 753.849 306.296ZM742.003 170.911C706.053 174.074 679.332 205.84 682.5 241.732C685.668 277.624 717.485 304.302 753.436 301.139C789.386 297.976 816.107 266.21 812.939 230.318C809.771 194.427 777.953 167.817 742.003 170.911Z" fill="#22A39F"/>
</g>
<mask id="mask4_393_631" style="mask-type:luminance" maskUnits="userSpaceOnUse" x="628" y="99" width="105" height="106">
<path d="M680.433 204.121C709.341 204.121 732.774 180.726 732.774 151.865C732.774 123.005 709.341 99.6091 680.433 99.6091C651.526 99.6091 628.092 123.005 628.092 151.865C628.092 180.726 651.526 204.121 680.433 204.121Z" fill="white"/>
</mask>
<g mask="url(#mask4_393_631)">
<path d="M662.39 99.7465C632.225 102.359 605.572 80.013 602.886 49.8969C600.2 19.7809 622.652 -6.82848 652.817 -9.51004C682.982 -12.1916 709.634 10.2235 712.32 40.3396C714.937 70.4556 692.555 97.065 662.39 99.7465ZM653.23 -4.42194C625.889 -2.01541 605.572 22.1187 607.983 49.4156C610.393 76.7126 634.566 96.9962 661.908 94.5897C689.249 92.1831 709.565 68.0491 707.155 40.7521C704.813 13.4552 680.571 -6.75972 653.23 -4.42194Z" fill="#22A39F"/>
<path d="M666.453 146.571C610.393 151.453 560.807 109.923 555.917 53.9538C551.096 -1.94647 592.693 -51.4523 648.685 -56.3341C704.745 -61.2159 754.331 -19.686 759.221 36.283C764.11 92.1833 722.513 141.689 666.453 146.571ZM649.167 -51.246C595.93 -46.5705 556.399 0.3913 561.082 53.5413C565.765 106.691 612.803 146.09 666.04 141.483C719.276 136.807 758.739 89.8455 754.124 36.6956C749.51 -16.4544 702.334 -55.9215 649.167 -51.246Z" fill="#22A39F"/>
<path d="M665.145 130.963C617.762 135.088 575.821 99.953 571.619 52.6474C567.418 5.34188 602.68 -36.6005 650.062 -40.726C697.445 -44.8515 739.386 -9.71613 743.587 37.5894C747.788 84.895 712.527 126.837 665.145 130.963ZM650.544 -35.6379C605.985 -31.7187 572.859 7.67965 576.716 52.1661C580.641 96.6526 620.104 129.725 664.663 125.875C709.221 121.956 742.348 82.5572 738.491 38.0707C734.634 -6.41574 695.103 -39.5571 650.544 -35.6379Z" fill="#22A39F"/>
<path d="M663.767 115.355C624.994 118.724 590.696 89.983 587.253 51.2723C583.809 12.5615 612.666 -21.7488 651.44 -25.1179C690.213 -28.4871 724.51 0.253786 727.954 38.9646C731.329 77.6754 702.541 111.917 663.767 115.355ZM651.853 -20.0298C615.903 -16.867 589.181 14.8992 592.349 50.791C595.517 86.6827 627.335 113.361 663.285 110.198C699.235 107.035 725.957 75.2688 722.789 39.3771C719.69 3.48542 687.872 -23.124 651.853 -20.0298Z" fill="#22A39F"/>
</g>
<mask id="mask5_393_631" style="mask-type:luminance" maskUnits="userSpaceOnUse" x="628" y="99" width="105" height="106">
<path d="M680.433 204.121C709.341 204.121 732.774 180.726 732.774 151.865C732.774 123.005 709.341 99.6091 680.433 99.6091C651.526 99.6091 628.092 123.005 628.092 151.865C628.092 180.726 651.526 204.121 680.433 204.121Z" fill="white"/>
</mask>
<g mask="url(#mask5_393_631)">
<path d="M563.975 313.309C507.984 318.191 458.397 276.661 453.508 220.761C448.618 164.792 490.215 115.286 546.275 110.404C602.335 105.522 651.921 147.052 656.811 203.021C661.632 258.921 620.035 308.427 563.975 313.309ZM546.688 115.492C493.452 120.168 453.921 167.129 458.604 220.279C463.287 273.429 510.325 312.828 563.562 308.221C616.798 303.545 656.26 256.584 651.646 203.434C646.963 150.284 599.856 110.817 546.688 115.492Z" fill="#22A39F"/>
<path d="M562.666 297.701C515.284 301.826 473.342 266.691 469.141 219.386C465.009 172.08 500.201 130.206 547.584 126.012C594.966 121.818 636.977 157.022 641.109 204.328C645.241 251.702 610.049 293.575 562.666 297.701ZM548.066 131.1C503.507 135.019 470.381 174.418 474.237 218.904C478.094 263.391 517.625 296.463 562.184 292.613C606.743 288.694 639.869 249.295 636.013 204.809C632.087 160.254 592.625 127.25 548.066 131.1Z" fill="#22A39F"/>
<path d="M561.289 282.093C522.515 285.462 488.218 256.721 484.775 218.01C481.331 179.3 510.188 145.058 548.961 141.62C587.735 138.251 622.032 166.992 625.476 205.703C628.85 244.414 600.063 278.724 561.289 282.093ZM549.375 146.708C513.424 149.871 486.703 181.637 489.871 217.529C493.039 253.421 524.857 280.099 560.807 276.936C596.757 273.773 623.478 242.007 620.31 206.115C617.211 170.224 585.393 143.614 549.375 146.708Z" fill="#22A39F"/>
</g>
</svg>
