<?xml version="1.0" encoding="utf-8"?>
<!-- Generator: Adobe Illustrator 22.0.0, SVG Export Plug-In . SVG Version: 6.00 Build 0)  -->
<svg version="1.1" id="圖層_1" xmlns="http://www.w3.org/2000/svg" xmlns:xlink="http://www.w3.org/1999/xlink" x="0px" y="0px"
	 viewBox="0 0 1282 80" style="enable-background:new 0 0 1282 80;" xml:space="preserve">
<style type="text/css">
	.st0{fill:#90D1CF;}
	.st1{fill:#F6F6EE;}
	.st2{fill:#424242;}
	.st3{fill:#282828;}
	.st4{fill:#D19442;}
	.st5{fill:#FFFFFF;}
	.st6{fill:#727272;}
	.st7{fill:#141414;}
</style>
<g>
	<path class="st0" d="M58.7,42.3l13.7,7c2.7,1.4,5.9-0.7,5.8-3.7l-0.8-15.4c-0.1-3-3.6-4.8-6.1-3.2l-12.9,8.3
		C55.8,37.1,55.9,40.9,58.7,42.3z"/>
</g>
<g>
	<path class="st0" d="M31.1,14.5c-10.7,0.7-24,16-29.9,23.3c-1.8,2.2-1.6,5.4,0.4,7.5c6.5,6.8,21.3,20.7,32,20.3
		c14.1-0.9,32.8-27.3,32.8-27.3S45.2,14,31.1,14.5z"/>
</g>
<g>
	<path class="st1" d="M18.5,42.7c1.1,0.9,2.7,0.7,3.6-0.4c0.9-1.1,0.7-2.7-0.4-3.6c-1.1-0.9-2.7-0.7-3.6,0.4
		C17.2,40.2,17.3,41.8,18.5,42.7z"/>
</g>
<g>
	<path class="st1" d="M31.9,61.9c0.7,0,1.4-0.3,1.9-0.9c20.3-23.6-0.2-43.3-0.4-43.5c-1-0.9-2.6-0.9-3.5,0.1c-0.9,1-0.9,2.6,0.1,3.5
		c0.7,0.7,17.2,16.6,0,36.5c-0.9,1-0.8,2.6,0.3,3.5C30.8,61.7,31.3,61.9,31.9,61.9z"/>
</g>
<g>
	<path class="st0" d="M228.6,42.3l13.7,7c2.7,1.4,5.9-0.7,5.8-3.7l-0.8-15.4c-0.1-3-3.6-4.8-6.1-3.2l-12.9,8.3
		C225.7,37.1,225.9,40.9,228.6,42.3z"/>
</g>
<g>
	<path class="st0" d="M201,14.5c-10.7,0.7-24,16-29.9,23.3c-1.8,2.2-1.6,5.4,0.4,7.5c6.5,6.8,21.3,20.7,32,20.3
		c14.1-0.9,32.8-27.3,32.8-27.3S215.1,14,201,14.5z"/>
</g>
<g>
	<path class="st1" d="M188.4,42.7c1.1,0.9,2.7,0.7,3.6-0.4c0.9-1.1,0.7-2.7-0.4-3.6c-1.1-0.9-2.7-0.7-3.6,0.4S187.3,41.8,188.4,42.7
		z"/>
</g>
<g>
	<path class="st1" d="M201.8,61.9c0.7,0,1.4-0.3,1.9-0.9c20.3-23.6-0.2-43.3-0.4-43.5c-1-0.9-2.6-0.9-3.5,0.1
		c-0.9,1-0.9,2.6,0.1,3.5c0.7,0.7,17.2,16.6,0,36.5c-0.9,1-0.8,2.6,0.3,3.5C200.7,61.7,201.3,61.9,201.8,61.9z"/>
</g>
<g>
	<path class="st0" d="M398.5,42.3l13.7,7c2.7,1.4,5.9-0.7,5.8-3.7l-0.8-15.4c-0.1-3-3.6-4.8-6.1-3.2l-12.9,8.3
		C395.6,37.1,395.8,40.9,398.5,42.3z"/>
</g>
<g>
	<path class="st0" d="M370.9,14.5c-10.7,0.7-24,16-29.9,23.3c-1.8,2.2-1.6,5.4,0.4,7.5c6.5,6.8,21.3,20.7,32,20.3
		c14.1-0.9,32.8-27.3,32.8-27.3S385.1,14,370.9,14.5z"/>
</g>
<g>
	<path class="st1" d="M358.3,42.7c1.1,0.9,2.7,0.7,3.6-0.4c0.9-1.1,0.7-2.7-0.4-3.6c-1.1-0.9-2.7-0.7-3.6,0.4
		C357,40.2,357.2,41.8,358.3,42.7z"/>
</g>
<g>
	<path class="st1" d="M371.7,61.9c0.7,0,1.4-0.3,1.9-0.9c20.3-23.6-0.2-43.3-0.4-43.5c-1-0.9-2.6-0.9-3.5,0.1
		c-0.9,1-0.9,2.6,0.1,3.5c0.7,0.7,17.2,16.6,0,36.5c-0.9,1-0.8,2.6,0.3,3.5C370.6,61.7,371.2,61.9,371.7,61.9z"/>
</g>
<g>
	<path class="st0" d="M568.4,42.3l13.7,7c2.7,1.4,5.9-0.7,5.8-3.7l-0.8-15.4c-0.1-3-3.6-4.8-6.1-3.2l-12.9,8.3
		C565.5,37.1,565.7,40.9,568.4,42.3z"/>
</g>
<g>
	<path class="st0" d="M540.8,14.5c-10.7,0.7-24,16-29.9,23.3c-1.8,2.2-1.6,5.4,0.4,7.5c6.5,6.8,21.3,20.7,32,20.3
		c14.1-0.9,32.8-27.3,32.8-27.3S555,14,540.8,14.5z"/>
</g>
<g>
	<path class="st1" d="M528.2,42.7c1.1,0.9,2.7,0.7,3.6-0.4c0.9-1.1,0.7-2.7-0.4-3.6c-1.1-0.9-2.7-0.7-3.6,0.4
		C526.9,40.2,527.1,41.8,528.2,42.7z"/>
</g>
<g>
	<path class="st1" d="M541.7,61.9c0.7,0,1.4-0.3,1.9-0.9c20.3-23.6-0.2-43.3-0.4-43.5c-1-0.9-2.6-0.9-3.5,0.1
		c-0.9,1-0.9,2.6,0.1,3.5c0.7,0.7,17.2,16.6,0,36.5c-0.9,1-0.8,2.6,0.3,3.5C540.5,61.7,541.1,61.9,541.7,61.9z"/>
</g>
<g>
	<path class="st0" d="M738.3,42.3l13.7,7c2.7,1.4,5.9-0.7,5.8-3.7l-0.8-15.4c-0.1-3-3.6-4.8-6.1-3.2L738,35.4
		C735.4,37.1,735.6,40.9,738.3,42.3z"/>
</g>
<g>
	<path class="st0" d="M710.7,14.5c-10.7,0.7-24,16-29.9,23.3c-1.8,2.2-1.6,5.4,0.4,7.5c6.5,6.8,21.3,20.7,32,20.3
		c14.1-0.9,32.8-27.3,32.8-27.3S724.9,14,710.7,14.5z"/>
</g>
<g>
	<path class="st1" d="M698.1,42.7c1.1,0.9,2.7,0.7,3.6-0.4c0.9-1.1,0.7-2.7-0.4-3.6c-1.1-0.9-2.7-0.7-3.6,0.4S697,41.8,698.1,42.7z"
		/>
</g>
<g>
	<path class="st1" d="M711.6,61.9c0.7,0,1.4-0.3,1.9-0.9c20.3-23.6-0.2-43.3-0.4-43.5c-1-0.9-2.6-0.9-3.5,0.1
		c-0.9,1-0.9,2.6,0.1,3.5c0.7,0.7,17.2,16.6,0,36.5c-0.9,1-0.8,2.6,0.3,3.5C710.4,61.7,711,61.9,711.6,61.9z"/>
</g>
<g>
	<path class="st0" d="M908.3,42.3l13.7,7c2.7,1.4,5.9-0.7,5.8-3.7L927,30.2c-0.1-3-3.6-4.8-6.1-3.2l-12.9,8.3
		C905.3,37.1,905.5,40.9,908.3,42.3z"/>
</g>
<g>
	<path class="st0" d="M880.7,14.5c-10.7,0.7-24,16-29.9,23.3c-1.8,2.2-1.6,5.4,0.4,7.5c6.5,6.8,21.3,20.7,32,20.3
		c14.1-0.9,32.8-27.3,32.8-27.3S894.8,14,880.7,14.5z"/>
</g>
<g>
	<path class="st1" d="M868,42.7c1.1,0.9,2.8,0.7,3.7-0.4c0.9-1.1,0.7-2.7-0.4-3.6c-1.1-0.9-2.8-0.7-3.7,0.4
		C866.7,40.2,866.9,41.8,868,42.7z"/>
</g>
<g>
	<path class="st1" d="M881.5,61.9c0.7,0,1.4-0.3,1.9-0.9c20.3-23.6-0.2-43.3-0.4-43.5c-1-0.9-2.6-0.9-3.5,0.1
		c-0.9,1-0.9,2.6,0.1,3.5c0.7,0.7,17.2,16.6,0,36.5c-0.9,1-0.8,2.6,0.3,3.5C880.3,61.7,880.9,61.9,881.5,61.9z"/>
</g>
<g>
	<path class="st0" d="M1078.2,42.3l13.7,7c2.7,1.4,5.9-0.7,5.8-3.7l-0.8-15.4c-0.1-3-3.6-4.8-6.1-3.2l-12.9,8.3
		C1075.3,37.1,1075.4,40.9,1078.2,42.3z"/>
</g>
<g>
	<path class="st0" d="M1050.6,14.5c-10.7,0.7-24,16-29.9,23.3c-1.8,2.2-1.6,5.4,0.4,7.5c6.5,6.8,21.3,20.7,32,20.3
		c14.1-0.9,32.8-27.3,32.8-27.3S1064.7,14,1050.6,14.5z"/>
</g>
<g>
	<path class="st1" d="M1038,42.7c1.1,0.9,2.8,0.7,3.6-0.4c0.9-1.1,0.7-2.7-0.4-3.6c-1.1-0.9-2.8-0.7-3.6,0.4
		C1036.7,40.2,1036.8,41.8,1038,42.7z"/>
</g>
<g>
	<path class="st1" d="M1051.4,61.9c0.7,0,1.4-0.3,1.9-0.9c20.3-23.6-0.2-43.3-0.4-43.5c-1-0.9-2.6-0.9-3.5,0.1
		c-0.9,1-0.9,2.6,0.1,3.5c0.7,0.7,17.2,16.6,0,36.5c-0.9,1-0.8,2.6,0.3,3.5C1050.2,61.7,1050.8,61.9,1051.4,61.9z"/>
</g>
<path class="st2" d="M1181.4,44.5c0,19.6,15.9,35.5,35.5,35.5h20.4c19.6,0,35.5-15.9,35.5-35.5c0-9.9-4-18.8-10.5-25.3
	c0.5-1.3,0.7-2.8,0.7-4.3c0-5.3-7.4-11.6-10.9-14.3c-1.1-0.8-2.6-0.8-3.7,0c-2.3,1.7-6.2,5-8.6,8.4c-0.8,0-1.7-0.1-2.5-0.1h-20.4
	c-0.9,0-1.8,0-2.6,0.1c-2.4-3.5-6.3-6.7-8.6-8.4c-1.1-0.8-2.6-0.8-3.7,0c-3.5,2.6-10.9,8.9-10.9,14.3c0,1.6,0.2,3.1,0.8,4.5
	C1185.3,25.8,1181.3,34.7,1181.4,44.5z"/>
<path class="st3" d="M1202.3,15.3l6.5-3.6c1.1-0.6,0.9-2.3-0.3-2.7l-4.1-4.6c-0.8-0.2-1.7,0.2-1.9,1l-2.4,8.2
	C1199.9,14.8,1201.2,15.9,1202.3,15.3z"/>
<path class="st3" d="M1251.7,15.3l-6.5-3.6c-1.1-0.6-0.9-2.3,0.3-2.7l4.1-4.6c0.8-0.2,1.7,0.2,1.9,1l2.4,8.2
	C1254.2,14.8,1252.9,15.9,1251.7,15.3z"/>
<path class="st3" d="M1253,43.7c-0.2-0.6,0.1-1.4,0.8-1.6l7.8-2.6c0.6-0.2,1.4,0.1,1.6,0.8c0.2,0.6-0.1,1.4-0.8,1.6l-7.8,2.6
	c-0.1,0-0.2,0-0.4,0C1253.6,44.5,1253.1,44.2,1253,43.7z"/>
<path class="st3" d="M1261.5,57.3l-7.8-2.6c-0.6-0.2-1-0.9-0.8-1.6c0.2-0.6,0.9-1,1.6-0.8l7.8,2.6c0.6,0.2,1,0.9,0.8,1.6
	c-0.2,0.5-0.7,0.8-1.2,0.8C1261.8,57.3,1261.7,57.3,1261.5,57.3z"/>
<path class="st3" d="M1252.7,48.4c0-0.7,0.5-1.2,1.2-1.2h8c0.7,0,1.2,0.5,1.2,1.2s-0.5,1.2-1.2,1.2h-8
	C1253.2,49.6,1252.7,49.1,1252.7,48.4z"/>
<path class="st3" d="M1244,45.1c4.3-1.6,6.8-5.7,5.5-9.2c-1.3-3.5-5.8-5.1-10.1-3.5c-4.3,1.6-6.8,5.7-5.5,9.2
	C1235.2,45.2,1239.7,46.7,1244,45.1z"/>
<path class="st4" d="M1247.4,38.8c0-3.1-2.5-5.7-5.7-5.7s-5.7,2.5-5.7,5.7c0,3.1,2.5,5.7,5.7,5.7S1247.4,41.9,1247.4,38.8z"/>
<path class="st5" d="M1248.2,38.8c0-0.8-0.6-1.4-1.4-1.4c-0.8,0-1.4,0.6-1.4,1.4c0,0.8,0.6,1.4,1.4,1.4
	C1247.6,40.2,1248.2,39.6,1248.2,38.8z"/>
<path class="st3" d="M1193.4,44.5l-7.8-2.6c-0.6-0.2-1-0.9-0.8-1.6c0.2-0.6,0.9-1,1.6-0.8l7.8,2.6c0.6,0.2,1,0.9,0.8,1.6
	c-0.2,0.5-0.7,0.8-1.2,0.8C1193.7,44.5,1193.6,44.5,1193.4,44.5z"/>
<path class="st3" d="M1184.9,56.5c-0.2-0.6,0.1-1.4,0.8-1.6l7.8-2.6c0.6-0.2,1.4,0.1,1.6,0.8c0.2,0.6-0.1,1.4-0.8,1.6l-7.8,2.6
	c-0.1,0-0.2,0-0.4,0C1185.5,57.3,1185.1,57,1184.9,56.5z"/>
<path class="st3" d="M1214.1,41.6c1.3-3.5-1.2-7.6-5.5-9.2c-4.3-1.6-8.9,0-10.1,3.5s1.2,7.6,5.5,9.2
	C1208.3,46.7,1212.8,45.2,1214.1,41.6z"/>
<path class="st4" d="M1211.9,38.8c0-3.1-2.5-5.7-5.7-5.7s-5.7,2.5-5.7,5.7c0,3.1,2.5,5.7,5.7,5.7S1211.9,41.9,1211.9,38.8z"/>
<path class="st3" d="M1207.9,38.6c0-2.4-0.7-4.3-1.6-4.3s-1.6,1.9-1.6,4.3c0,2.4,0.7,4.3,1.6,4.3S1207.9,40.9,1207.9,38.6z"/>
<path class="st5" d="M1212.9,38.8c0-0.8-0.6-1.4-1.4-1.4c-0.8,0-1.4,0.6-1.4,1.4c0,0.8,0.6,1.4,1.4,1.4
	C1212.3,40.2,1212.9,39.6,1212.9,38.8z"/>
<path class="st3" d="M1184.8,48.4c0-0.7,0.5-1.2,1.2-1.2h8c0.7,0,1.2,0.5,1.2,1.2s-0.5,1.2-1.2,1.2h-8
	C1185.3,49.6,1184.8,49.1,1184.8,48.4z"/>
<path class="st3" d="M1243,38.6c0-2.4-0.7-4.3-1.6-4.3c-0.9,0-1.6,1.9-1.6,4.3c0,2.4,0.7,4.3,1.6,4.3
	C1242.3,42.9,1243,40.9,1243,38.6z"/>
<path class="st6" d="M1208.7,56.3c2.7,7.6,13.8,7.4,13.8,7.4c0,0,0,0,0,0c0,0,0,0,0,0s11.1,0.2,13.8-7.4c0.3-0.9,0.5-1.9,0.5-2.8
	c0-4.5-3.7-8.2-8.2-8.2c-2.4,0-4.7,1.1-6.2,2.8c-1.5-1.7-3.7-2.8-6.2-2.8c-4.5,0-8.2,3.7-8.2,8.2
	C1208.2,54.4,1208.3,55.4,1208.7,56.3z"/>
<path class="st7" d="M1225.2,56.3l-3.9-2.9V47c0-0.7,0.5-1.2,1.2-1.2c0.7,0,1.2,0.5,1.2,1.2v5.2l2.9,2.2c0.5,0.4,0.6,1.2,0.2,1.7
	c-0.2,0.3-0.6,0.5-1,0.5C1225.7,56.5,1225.5,56.4,1225.2,56.3z"/>
<path class="st7" d="M1218.3,56.1c-0.4-0.5-0.3-1.3,0.2-1.7l2.9-2.2V47c0-0.7,0.5-1.2,1.2-1.2c0.7,0,1.2,0.5,1.2,1.2v6.4l-3.9,2.9
	c-0.2,0.1-0.5,0.2-0.7,0.2C1218.9,56.5,1218.5,56.3,1218.3,56.1z"/>
<path class="st3" d="M1220.4,44.6h4.4c0.8,0,1.2,0.9,0.6,1.5l-2.2,2.3c-0.3,0.3-0.9,0.3-1.2,0l-2.2-2.3
	C1219.3,45.6,1219.7,44.6,1220.4,44.6z"/>
<path class="st3" d="M1236.2,27.6l-1-1c-1-1-1-2.5,0-3.5c1-1,2.5-1,3.5,0l1,1c0.3,0.3,0.6,0.3,0.8,0.3c0.1,0,0.5,0,0.8-0.3l1.2-1.2
	c1-1,2.5-1,3.5,0c1,1,1,2.5,0,3.5l-1.2,1.2c-1.1,1.1-2.6,1.8-4.3,1.8S1237.3,28.7,1236.2,27.6z"/>
<path class="st3" d="M1201.9,27.6l-1-1c-1-1-1-2.5,0-3.5c1-1,2.5-1,3.5,0l1,1c0.3,0.3,0.6,0.3,0.8,0.3c0.1,0,0.5,0,0.8-0.3l1.2-1.2
	c1-1,2.5-1,3.5,0c1,1,1,2.5,0,3.5l-1.2,1.2c-1.2,1.2-2.7,1.8-4.3,1.8C1204.6,29.4,1203.1,28.8,1201.9,27.6z"/>
</svg>
