<svg width="674" height="30" viewBox="0 0 674 30" fill="none" xmlns="http://www.w3.org/2000/svg">
<path fill-rule="evenodd" clip-rule="evenodd" d="M608.093 10.1661C624.677 15.0549 641 19.8667 673.939 19.8667L673.939 29.8667C639.597 29.8667 622.247 24.764 605.168 19.7293L605.106 19.7111C588.511 14.8192 572.163 10 539.151 10C506.212 10 489.889 14.8119 473.305 19.7007L473.208 19.7293C456.127 24.7645 438.753 29.8667 404.363 29.8667C370.022 29.8667 352.672 24.7641 335.592 19.7294L335.531 19.7111C318.936 14.8192 302.588 10.0001 269.575 10.0001C236.637 10.0001 220.314 14.8119 203.729 19.7007L203.632 19.7294C186.551 24.7645 169.177 29.8667 134.788 29.8667C100.398 29.8667 83.0479 24.7643 65.9792 19.7291L65.899 19.7055C49.3229 14.8155 32.9996 10.0001 5.92984e-05 10.0001L5.84241e-05 8.94352e-05C34.3903 8.64287e-05 51.74 5.10249 68.8086 10.1377L68.8888 10.1614C85.4648 15.0514 101.788 19.8667 134.788 19.8667C167.8 19.8667 184.148 15.0476 200.743 10.1557L200.805 10.1374C217.884 5.10274 235.234 6.88704e-05 269.575 6.58681e-05C303.965 6.28617e-05 321.339 5.10227 338.42 10.1374L338.517 10.1661C355.101 15.0549 371.424 19.8667 404.363 19.8667C437.375 19.8667 453.723 15.0476 470.318 10.1556L470.38 10.1374C487.459 5.10272 504.809 4.53033e-05 539.151 4.23011e-05C573.541 3.92946e-05 590.915 5.10224 607.995 10.1374L608.093 10.1661Z" fill="#92D1D0"/>
</svg>
