<svg width="188" height="188" viewBox="0 0 188 188" fill="none" xmlns="http://www.w3.org/2000/svg">
<path d="M93.8962 187.488C145.754 187.488 187.792 145.517 187.792 93.7439C187.792 41.9706 145.754 0 93.8962 0C42.0388 0 0 41.9706 0 93.7439C0 145.517 42.0388 187.488 93.8962 187.488Z" fill="#92D1D0"/>
<mask id="mask0_450_2279" style="mask-type:luminance" maskUnits="userSpaceOnUse" x="0" y="0" width="188" height="188">
<path d="M93.8962 187.488C145.754 187.488 187.792 145.517 187.792 93.7439C187.792 41.9706 145.754 0 93.8962 0C42.0388 0 0 41.9706 0 93.7439C0 145.517 42.0388 187.488 93.8962 187.488Z" fill="white"/>
</mask>
<g mask="url(#mask0_450_2279)">
<path d="M223.127 342.781C169.014 347.468 121.201 307.381 116.382 253.354C111.687 199.328 151.84 151.593 205.954 146.782C260.068 142.095 307.881 182.183 312.699 236.209C317.394 290.235 277.241 337.971 223.127 342.781ZM206.696 155.91C157.647 160.227 121.201 203.522 125.525 252.491C129.849 301.46 173.214 337.847 222.263 333.53C271.311 329.213 307.757 285.918 303.433 236.949C299.233 187.98 255.867 151.716 206.696 155.91Z" fill="#22A39F"/>
<path d="M230.54 426.781C129.972 435.539 41.0178 361.037 32.2459 260.632C23.4741 160.228 98.0968 71.4178 198.665 62.6602C299.232 53.9025 388.187 128.404 396.959 228.809C405.73 329.213 330.984 418.023 230.54 426.781ZM199.406 71.9112C103.904 80.2988 33.1108 164.545 41.3885 259.892C49.6662 355.24 134.173 425.918 229.675 417.653C325.177 409.266 395.97 325.02 387.693 229.672C379.415 134.325 294.908 63.5236 199.406 71.9112Z" fill="#22A39F"/>
<path d="M228.069 398.781C143.068 406.182 67.8278 343.152 60.2914 258.289C52.8786 173.303 116.011 98.1842 201.012 90.7834C286.013 83.3825 361.253 146.413 368.79 231.276C376.326 316.139 313.07 391.381 228.069 398.781ZM201.877 99.9111C121.942 106.942 62.5153 177.62 69.4339 257.425C76.3526 337.231 147.269 396.561 227.204 389.654C307.14 382.623 366.566 311.945 359.647 232.139C352.605 152.21 281.812 92.8803 201.877 99.9111Z" fill="#22A39F"/>
<path d="M225.598 370.782C156.041 376.826 94.5142 325.266 88.3368 255.822C82.283 186.378 133.926 124.951 203.483 118.783C273.04 112.739 334.567 164.298 340.745 233.743C346.922 303.187 295.156 364.614 225.598 370.782ZM204.348 127.911C139.856 133.585 91.9197 190.571 97.6029 254.959C103.286 319.346 160.365 367.205 224.857 361.531C289.349 355.857 337.285 298.87 331.602 234.483C325.919 170.096 268.84 122.36 204.348 127.911Z" fill="#22A39F"/>
</g>
<mask id="mask1_450_2279" style="mask-type:luminance" maskUnits="userSpaceOnUse" x="0" y="0" width="188" height="188">
<path d="M93.8962 187.488C145.754 187.488 187.792 145.517 187.792 93.7439C187.792 41.9706 145.754 0 93.8962 0C42.0388 0 0 41.9706 0 93.7439C0 145.517 42.0388 187.488 93.8962 187.488Z" fill="white"/>
</mask>
<g mask="url(#mask1_450_2279)">
<path d="M61.527 0.246768C7.41313 4.93396 -40.3998 -35.1539 -45.2182 -89.1799C-50.0365 -143.206 -9.75998 -190.941 44.3539 -195.752C98.4677 -200.562 146.281 -160.351 151.099 -106.325C155.794 -52.2991 115.641 -4.56377 61.527 0.246768ZM45.0952 -186.624C-3.95324 -182.307 -40.3998 -139.012 -36.0756 -90.0434C-31.7515 -41.0745 11.6138 -4.68712 60.6622 -9.00427C109.711 -13.3214 146.157 -56.6163 141.833 -105.585C137.632 -154.554 94.1436 -190.818 45.0952 -186.624Z" fill="#22A39F"/>
<path d="M68.8162 84.2464C-31.7515 93.004 -120.706 18.5023 -129.478 -81.9023C-138.126 -182.184 -63.5033 -270.994 36.941 -279.751C137.509 -288.509 226.463 -214.007 235.235 -113.603C244.007 -13.3213 169.384 75.4887 68.8162 84.2464ZM37.8058 -270.624C-57.6965 -262.236 -128.613 -177.99 -120.212 -82.6424C-111.81 12.705 -27.4273 83.3829 68.075 75.1187C163.577 66.731 234.37 -17.5151 226.092 -112.862C217.815 -208.21 133.185 -279.011 37.8058 -270.624Z" fill="#22A39F"/>
<path d="M66.4692 56.2464C-18.5316 63.6472 -93.7721 0.616835 -101.309 -84.246C-108.845 -169.109 -45.5885 -244.351 39.4122 -251.752C124.413 -259.152 199.654 -196.122 207.19 -111.259C214.726 -26.3962 151.47 48.8456 66.4692 56.2464ZM40.2771 -242.624C-39.6582 -235.593 -99.0847 -164.915 -92.166 -85.1095C-85.1238 -5.30385 -14.331 54.0262 65.6043 47.1187C145.54 40.0879 204.966 -30.59 198.047 -110.396C191.129 -190.201 120.212 -249.655 40.2771 -242.624Z" fill="#22A39F"/>
<path d="M63.9983 28.2469C-5.55903 34.291 -67.0857 -17.2682 -73.2631 -86.7126C-79.4405 -156.157 -27.674 -217.707 41.8833 -223.751C111.441 -229.795 172.967 -178.236 179.145 -108.792C185.199 -39.3473 133.556 22.0796 63.9983 28.2469ZM42.6246 -214.624C-21.8673 -208.95 -69.8038 -151.963 -64.1206 -87.5761C-58.4374 -23.1888 -1.35839 24.6699 63.1335 18.9959C127.625 13.3219 175.562 -43.6645 169.879 -108.052C164.319 -172.439 107.24 -220.174 42.6246 -214.624Z" fill="#22A39F"/>
</g>
<mask id="mask2_450_2279" style="mask-type:luminance" maskUnits="userSpaceOnUse" x="0" y="0" width="188" height="188">
<path d="M93.8962 187.488C145.754 187.488 187.792 145.517 187.792 93.7439C187.792 41.9706 145.754 0 93.8962 0C42.0388 0 0 41.9706 0 93.7439C0 145.517 42.0388 187.488 93.8962 187.488Z" fill="white"/>
</mask>
<g mask="url(#mask2_450_2279)">
<path d="M-115.023 383.363C-215.467 392.121 -304.421 317.619 -313.193 217.338C-321.965 116.933 -247.342 28.1231 -146.774 19.3655C-46.2066 10.6078 42.7476 85.1095 51.5195 185.514C60.1678 285.795 -14.4549 374.605 -115.023 383.363ZM-146.033 28.4932C-241.535 36.8808 -312.452 121.127 -304.051 216.474C-295.649 311.822 -211.266 382.5 -115.764 374.235C-20.2617 365.848 50.5311 281.602 42.2534 186.254C33.8522 90.9068 -50.6544 20.1056 -146.033 28.4932Z" fill="#22A39F"/>
<path d="M-117.37 355.363C-202.371 362.764 -277.611 299.734 -285.148 214.871C-292.561 130.008 -229.428 54.8896 -144.427 47.3654C-59.4262 39.8412 15.9379 102.995 23.3507 187.858C30.7636 272.844 -32.3692 347.963 -117.37 355.363ZM-143.562 56.4932C-223.497 63.5239 -282.924 134.202 -276.005 214.008C-269.086 293.813 -198.17 353.143 -118.235 346.236C-38.2995 339.205 21.1269 268.527 14.2082 188.721C7.16601 108.792 -63.6268 49.5857 -143.562 56.4932Z" fill="#22A39F"/>
<path d="M-119.841 327.363C-189.398 333.407 -250.925 281.848 -257.102 212.404C-263.279 142.959 -211.513 81.5324 -141.956 75.3651C-72.3984 69.3211 -10.8717 120.88 -4.69431 190.325C1.35952 259.769 -50.2834 321.319 -119.841 327.363ZM-141.214 84.4928C-205.706 90.1667 -253.643 147.153 -247.96 211.54C-242.276 275.928 -185.197 323.786 -120.706 318.112C-56.2137 312.438 -8.2772 255.452 -13.9604 191.065C-19.52 126.677 -76.599 78.9421 -141.214 84.4928Z" fill="#22A39F"/>
</g>
</svg>
