<svg width="1281" height="80" viewBox="0 0 1281 80" fill="none" xmlns="http://www.w3.org/2000/svg">
<path d="M231.734 42.3088L245.416 49.3297C248.111 50.7385 251.36 48.6413 251.203 45.6311L250.449 30.2291C250.323 27.1808 246.895 25.4351 244.326 27.0747L231.39 35.3871C228.829 37.0954 229.001 40.8695 231.734 42.3088Z" fill="#90D1CF"/>
<path d="M204.149 14.5463C193.468 15.1989 180.12 30.5162 174.283 37.874C172.508 40.0875 172.687 43.3039 174.656 45.3841C181.18 52.183 195.931 66.0806 206.642 65.7031C220.776 64.81 239.485 38.4292 239.485 38.4292C239.485 38.4292 218.29 14.0352 204.149 14.5463Z" fill="#90D1CF"/>
<path d="M191.519 42.7295C192.636 43.6252 194.268 43.4458 195.164 42.3287C196.059 41.2117 195.88 39.58 194.763 38.6842C193.646 37.7885 192.014 37.9679 191.118 39.085C190.223 40.2021 190.402 41.8338 191.519 42.7295Z" fill="#F6F6EE"/>
<path d="M204.754 19.421C204.754 19.421 223.947 37.3191 204.976 59.4139" stroke="#F6F6EE" stroke-width="5" stroke-miterlimit="10" stroke-linecap="round"/>
<path d="M401.649 42.3088L415.331 49.3297C418.026 50.7385 421.275 48.6413 421.118 45.6311L420.364 30.2291C420.237 27.1808 416.809 25.4351 414.241 27.0747L401.305 35.3871C398.744 37.0954 398.915 40.8695 401.649 42.3088Z" fill="#90D1CF"/>
<path d="M374.063 14.5463C363.383 15.1989 350.034 30.5162 344.197 37.874C342.422 40.0875 342.602 43.3039 344.571 45.3841C351.095 52.183 365.846 66.0806 376.557 65.7031C390.691 64.81 409.4 38.4292 409.4 38.4292C409.4 38.4292 388.205 14.0352 374.063 14.5463Z" fill="#90D1CF"/>
<path d="M361.434 42.7295C362.551 43.6252 364.183 43.4458 365.078 42.3287C365.974 41.2117 365.795 39.58 364.678 38.6842C363.56 37.7885 361.929 37.9679 361.033 39.085C360.137 40.2021 360.317 41.8338 361.434 42.7295Z" fill="#F6F6EE"/>
<path d="M374.669 19.421C374.669 19.421 393.862 37.3191 374.891 59.4139" stroke="#F6F6EE" stroke-width="5" stroke-miterlimit="10" stroke-linecap="round"/>
<path d="M571.563 42.3088L585.245 49.3297C587.94 50.7385 591.19 48.6413 591.033 45.6311L590.278 30.2291C590.152 27.1808 586.724 25.4351 584.155 27.0747L571.22 35.3871C568.659 37.0954 568.83 40.8695 571.563 42.3088Z" fill="#90D1CF"/>
<path d="M543.978 14.5463C533.297 15.1989 519.949 30.5162 514.112 37.874C512.337 40.0875 512.517 43.3039 514.485 45.3841C521.009 52.183 535.761 66.0806 546.472 65.7031C560.606 64.81 579.314 38.4292 579.314 38.4292C579.314 38.4292 558.119 14.0352 543.978 14.5463Z" fill="#90D1CF"/>
<path d="M531.348 42.7295C532.466 43.6252 534.097 43.4458 534.993 42.3287C535.889 41.2117 535.709 39.58 534.592 38.6842C533.475 37.7885 531.843 37.9679 530.948 39.085C530.052 40.2021 530.231 41.8338 531.348 42.7295Z" fill="#F6F6EE"/>
<path d="M544.583 19.421C544.583 19.421 563.777 37.3191 544.806 59.4139" stroke="#F6F6EE" stroke-width="5" stroke-miterlimit="10" stroke-linecap="round"/>
<path d="M741.478 42.3088L755.16 49.3297C757.855 50.7385 761.104 48.6413 760.947 45.6311L760.193 30.2291C760.067 27.1808 756.639 25.4351 754.07 27.0747L741.134 35.3871C738.573 37.0954 738.745 40.8695 741.478 42.3088Z" fill="#90D1CF"/>
<path d="M713.893 14.5463C703.212 15.1989 689.864 30.5162 684.026 37.874C682.252 40.0875 682.431 43.3039 684.4 45.3841C690.924 52.183 705.675 66.0806 716.386 65.7031C730.52 64.81 749.229 38.4292 749.229 38.4292C749.229 38.4292 728.034 14.0352 713.893 14.5463Z" fill="#90D1CF"/>
<path d="M701.263 42.7295C702.38 43.6252 704.012 43.4458 704.908 42.3287C705.803 41.2117 705.624 39.58 704.507 38.6842C703.39 37.7885 701.758 37.9679 700.862 39.085C699.967 40.2021 700.146 41.8338 701.263 42.7295Z" fill="#F6F6EE"/>
<path d="M714.498 19.421C714.498 19.421 733.691 37.3191 714.72 59.4139" stroke="#F6F6EE" stroke-width="5" stroke-miterlimit="10" stroke-linecap="round"/>
<path d="M911.393 42.3088L925.075 49.3297C927.77 50.7385 931.019 48.6413 930.862 45.6311L930.108 30.2291C929.981 27.1808 926.553 25.4351 923.985 27.0747L911.049 35.3871C908.488 37.0954 908.659 40.8695 911.393 42.3088Z" fill="#90D1CF"/>
<path d="M883.807 14.5463C873.127 15.1989 859.778 30.5162 853.941 37.874C852.166 40.0875 852.346 43.3039 854.315 45.3841C860.839 52.183 875.59 66.0806 886.301 65.7031C900.435 64.81 919.143 38.4292 919.143 38.4292C919.143 38.4292 897.949 14.0352 883.807 14.5463Z" fill="#90D1CF"/>
<path d="M871.178 42.7295C872.295 43.6252 873.927 43.4458 874.822 42.3287C875.718 41.2117 875.539 39.58 874.422 38.6842C873.304 37.7885 871.673 37.9679 870.777 39.085C869.881 40.2021 870.061 41.8338 871.178 42.7295Z" fill="#F6F6EE"/>
<path d="M884.413 19.421C884.413 19.421 903.606 37.3191 884.635 59.4139" stroke="#F6F6EE" stroke-width="5" stroke-miterlimit="10" stroke-linecap="round"/>
<path d="M1081.31 42.3088L1094.99 49.3297C1097.68 50.7385 1100.93 48.6413 1100.78 45.6311L1100.02 30.2291C1099.9 27.1808 1096.47 25.4351 1093.9 27.0747L1080.96 35.3871C1078.4 37.0954 1078.57 40.8695 1081.31 42.3088Z" fill="#90D1CF"/>
<path d="M1053.72 14.5463C1043.04 15.1989 1029.69 30.5162 1023.86 37.874C1022.08 40.0875 1022.26 43.3039 1024.23 45.3841C1030.75 52.183 1045.5 66.0806 1056.22 65.7031C1070.35 64.81 1089.06 38.4292 1089.06 38.4292C1089.06 38.4292 1067.86 14.0352 1053.72 14.5463Z" fill="#90D1CF"/>
<path d="M1041.09 42.7295C1042.21 43.6252 1043.84 43.4458 1044.74 42.3287C1045.63 41.2117 1045.45 39.58 1044.34 38.6842C1043.22 37.7885 1041.59 37.9679 1040.69 39.085C1039.8 40.2021 1039.98 41.8338 1041.09 42.7295Z" fill="#F6F6EE"/>
<path d="M1054.33 19.421C1054.33 19.421 1073.52 37.3191 1054.55 59.4139" stroke="#F6F6EE" stroke-width="5" stroke-miterlimit="10" stroke-linecap="round"/>
<path d="M61.6487 42.3088L75.3307 49.3297C78.0259 50.7385 81.275 48.6413 81.118 45.6311L80.3638 30.2291C80.2374 27.1808 76.8093 25.4351 74.2406 27.0747L61.3051 35.3871C58.744 37.0954 58.9154 40.8695 61.6487 42.3088Z" fill="#90D1CF"/>
<path d="M34.0634 14.5463C23.3827 15.1989 10.0344 30.5162 4.19719 37.874C2.42232 40.0875 2.60203 43.3039 4.57066 45.3841C11.0947 52.183 25.8461 66.0806 36.5571 65.7031C50.6911 64.81 69.3995 38.4292 69.3995 38.4292C69.3995 38.4292 48.2047 14.0352 34.0634 14.5463Z" fill="#90D1CF"/>
<path d="M21.4338 42.7295C22.5509 43.6252 24.1826 43.4458 25.0783 42.3287C25.974 41.2117 25.7946 39.58 24.6775 38.6842C23.5605 37.7885 21.9288 37.9679 21.033 39.085C20.1373 40.2021 20.3168 41.8338 21.4338 42.7295Z" fill="#F6F6EE"/>
<path d="M34.6688 19.421C34.6688 19.421 53.8619 37.3191 34.8909 59.4139" stroke="#F6F6EE" stroke-width="5" stroke-miterlimit="10" stroke-linecap="round"/>
<path d="M1269.63 19.3759C1270.16 17.99 1270.45 16.4975 1270.45 14.8984C1270.45 9.53247 1263.06 3.27818 1259.5 0.612993C1258.4 -0.204331 1256.87 -0.204331 1255.81 0.612993C1253.53 2.35425 1249.62 5.55247 1247.17 9.07051C1246.28 8.99944 1245.39 8.96391 1244.51 8.96391H1224.04C1223.22 8.96391 1222.37 8.99944 1221.55 9.03497C1219.06 5.55246 1215.19 2.31871 1212.91 0.612993C1211.81 -0.204331 1210.29 -0.204331 1209.22 0.612993C1205.67 3.31371 1198.27 9.53247 1198.27 14.8984C1198.27 16.4264 1198.56 17.8834 1199.02 19.2338C1192.52 25.6657 1188.5 34.6208 1188.5 44.4642C1188.5 64.08 1204.42 80 1224.04 80H1244.47C1264.09 80 1280.01 64.08 1280.01 44.4642C1280.01 34.6918 1276.03 25.8079 1269.63 19.3759Z" fill="#E5E5E5"/>
<path d="M1224.07 18.8784C1219.35 14.1522 1211.67 14.1522 1206.94 18.8784C1204.35 21.4726 1203.18 24.9551 1203.43 28.3665C1200.02 28.1178 1196.53 29.2904 1193.94 31.8845C1189.21 36.6108 1189.21 44.2865 1193.94 49.0128C1194.97 50.0433 1196.18 50.8607 1197.42 51.4648C1201.47 53.3482 1206.02 53.5259 1210.39 53.0639C1215.08 52.5664 1220.63 52.1755 1224.14 48.6219C1227.77 44.9262 1228.12 38.9917 1228.44 34.1233C1228.87 28.7574 1228.05 22.8229 1224.07 18.8784Z" fill="#727272"/>
<path d="M1238 52.8861C1238 48.3731 1234.34 44.7129 1229.83 44.7129C1227.34 44.7129 1225.14 45.8145 1223.61 47.5558C1222.12 45.8145 1219.88 44.7129 1217.39 44.7129C1212.88 44.7129 1209.22 48.3731 1209.22 52.8861C1209.22 53.8811 1209.4 54.8406 1209.72 55.729C1212.49 63.3337 1223.58 63.0849 1223.58 63.0849H1223.61H1223.65C1223.65 63.0849 1234.73 63.3337 1237.51 55.729C1237.83 54.8406 1238 53.8811 1238 52.8861Z" fill="white"/>
<path d="M1196.68 44.2154C1196.57 44.2154 1196.5 44.2154 1196.39 44.1798L1188.61 41.5502C1188.15 41.408 1187.9 40.875 1188.04 40.413C1188.18 39.9511 1188.72 39.7023 1189.18 39.8445L1196.96 42.4741C1197.42 42.6163 1197.67 43.1493 1197.53 43.6113C1197.42 43.9666 1197.07 44.2154 1196.68 44.2154Z" fill="#A3A3A3"/>
<path d="M1188.89 57.0083C1188.54 57.0083 1188.18 56.7596 1188.04 56.4042C1187.9 55.9423 1188.15 55.4448 1188.61 55.2671L1196.39 52.6374C1196.85 52.4953 1197.35 52.744 1197.53 53.206C1197.67 53.668 1197.42 54.1655 1196.96 54.3432L1189.18 56.9728C1189.07 56.9728 1189 57.0083 1188.89 57.0083Z" fill="#A3A3A3"/>
<path d="M1196.92 49.2971H1188.89C1188.4 49.2971 1188 48.9062 1188 48.4087C1188 47.9112 1188.4 47.5203 1188.89 47.5203H1196.92C1197.42 47.5203 1197.81 47.9112 1197.81 48.4087C1197.81 48.9062 1197.42 49.2971 1196.92 49.2971Z" fill="#A3A3A3"/>
<path d="M1254.07 44.2154C1253.71 44.2154 1253.35 43.9666 1253.21 43.6113C1253.07 43.1493 1253.32 42.6518 1253.78 42.4741L1261.56 39.8445C1262.03 39.7023 1262.52 39.9511 1262.7 40.413C1262.84 40.875 1262.59 41.3725 1262.13 41.5502L1254.35 44.1798C1254.24 44.1798 1254.17 44.2154 1254.07 44.2154Z" fill="#A3A3A3"/>
<path d="M1261.85 57.0083C1261.74 57.0083 1261.67 57.0084 1261.56 56.9728L1253.78 54.3432C1253.32 54.201 1253.07 53.668 1253.21 53.206C1253.35 52.744 1253.89 52.4953 1254.35 52.6374L1262.13 55.2671C1262.59 55.4092 1262.84 55.9423 1262.7 56.4042C1262.59 56.7596 1262.24 57.0083 1261.85 57.0083Z" fill="#A3A3A3"/>
<path d="M1261.85 49.2971H1253.82C1253.32 49.2971 1252.93 48.9062 1252.93 48.4087C1252.93 47.9112 1253.32 47.5203 1253.82 47.5203H1261.85C1262.35 47.5203 1262.74 47.9112 1262.74 48.4087C1262.74 48.9062 1262.35 49.2971 1261.85 49.2971Z" fill="#A3A3A3"/>
<path d="M1215.08 39.9512H1206.91C1205.91 39.9512 1205.13 39.1694 1205.13 38.1744C1205.13 37.1794 1205.91 36.3976 1206.91 36.3976H1215.08C1216.08 36.3976 1216.86 37.1794 1216.86 38.1744C1216.86 39.1694 1216.08 39.9512 1215.08 39.9512Z" fill="white"/>
<path d="M1247.38 39.9512H1239.21C1238.22 39.9512 1237.43 39.1694 1237.43 38.1744C1237.43 37.1794 1238.22 36.3976 1239.21 36.3976H1247.38C1248.38 36.3976 1249.16 37.1794 1249.16 38.1744C1249.16 39.1694 1248.38 39.9512 1247.38 39.9512Z" fill="#727272"/>
<mask id="mask0_465_4161" style="mask-type:luminance" maskUnits="userSpaceOnUse" x="1188" y="0" width="93" height="80">
<path d="M1269.63 19.3759C1270.16 17.99 1270.45 16.4975 1270.45 14.8984C1270.45 9.53247 1263.06 3.27818 1259.5 0.612993C1258.4 -0.204331 1256.87 -0.204331 1255.81 0.612993C1253.53 2.35425 1249.62 5.55247 1247.17 9.07051C1246.28 8.99944 1245.39 8.96391 1244.51 8.96391H1224.04C1223.22 8.96391 1222.37 8.99944 1221.55 9.03497C1219.06 5.55246 1215.19 2.31871 1212.91 0.612993C1211.81 -0.204331 1210.29 -0.204331 1209.22 0.612993C1205.67 3.31371 1198.27 9.53247 1198.27 14.8984C1198.27 16.4264 1198.56 17.8834 1199.02 19.2338C1192.52 25.6657 1188.5 34.6208 1188.5 44.4642C1188.5 64.08 1204.42 80 1224.04 80H1244.47C1264.09 80 1280.01 64.08 1280.01 44.4642C1280.01 34.6918 1276.03 25.8079 1269.63 19.3759Z" fill="white"/>
</mask>
<g mask="url(#mask0_465_4161)">
<path d="M1246.32 31.7424C1242.94 31.7424 1239.96 29.326 1239.32 25.879C1236.51 10.1367 1221.44 7.57808 1220.8 7.47148H1220.84L1222.87 -6.60071C1223.54 -6.4941 1229.65 -5.53463 1236.33 -1.51908C1245.5 4.02451 1251.4 12.6242 1253.32 23.356C1253.99 27.2294 1251.44 30.9251 1247.56 31.6003C1247.17 31.7069 1246.75 31.7424 1246.32 31.7424Z" fill="#727272"/>
</g>
<path d="M1223.61 52.4953C1223.11 52.4953 1222.72 52.1044 1222.72 51.6069V47.1649C1222.72 46.6674 1223.11 46.2765 1223.61 46.2765C1224.11 46.2765 1224.5 46.6674 1224.5 47.1649V51.6069C1224.5 52.1044 1224.11 52.4953 1223.61 52.4953Z" fill="black"/>
<path d="M1223.61 53.5258C1220.8 53.5258 1217.96 52.4952 1217.96 50.5407C1217.96 50.0432 1218.35 49.6523 1218.85 49.6523C1219.35 49.6523 1219.74 50.0432 1219.74 50.5407C1219.74 50.8606 1221.09 51.749 1223.61 51.749C1226.13 51.749 1227.48 50.8606 1227.48 50.5407C1227.48 50.0432 1227.88 49.6523 1228.37 49.6523C1228.87 49.6523 1229.26 50.0432 1229.26 50.5407C1229.26 52.4952 1226.42 53.5258 1223.61 53.5258Z" fill="black"/>
<path d="M1226.28 46.1343L1224.18 48.302C1223.86 48.6574 1223.29 48.6574 1222.97 48.302L1220.87 46.1343C1220.38 45.6013 1220.73 44.7129 1221.48 44.7129H1225.67C1226.42 44.7129 1226.81 45.6013 1226.28 46.1343Z" fill="#FFB4B4"/>
<path d="M1206.09 10.9184C1206.09 12.3398 1207.26 13.5125 1208.69 13.5125C1209.82 13.5125 1210.78 12.7663 1211.14 11.7357H1211.39C1211.74 12.7663 1212.7 13.5125 1213.84 13.5125C1215.26 13.5125 1216.43 12.3398 1216.43 10.9184C1216.43 10.0655 1216.04 9.31929 1215.4 8.85732L1212.31 5.62357C1211.74 5.055 1210.82 5.055 1210.29 5.62357L1207.26 8.78626C1206.52 9.24822 1206.09 10.03 1206.09 10.9184Z" fill="#FFB4B4"/>
<path d="M1262.45 10.9184C1262.45 12.3398 1261.28 13.5125 1259.86 13.5125C1258.72 13.5125 1257.76 12.7663 1257.41 11.7357H1257.16C1256.8 12.7663 1255.84 13.5125 1254.71 13.5125C1253.28 13.5125 1252.11 12.3398 1252.11 10.9184C1252.11 10.0655 1252.5 9.31929 1253.14 8.85732L1256.23 5.62357C1256.8 5.055 1257.73 5.055 1258.26 5.62357L1261.28 8.78626C1261.99 9.24822 1262.45 10.03 1262.45 10.9184Z" fill="#FFB4B4"/>
</svg>
