<?xml version="1.0" encoding="utf-8"?>
<!-- Generator: Adobe Illustrator 22.0.0, SVG Export Plug-In . SVG Version: 6.00 Build 0)  -->
<svg version="1.1" id="圖層_1" xmlns="http://www.w3.org/2000/svg" xmlns:xlink="http://www.w3.org/1999/xlink" x="0px" y="0px"
	 viewBox="0 0 1282 80" style="enable-background:new 0 0 1282 80;" xml:space="preserve">
<style type="text/css">
	.st0{fill:#90D1CF;}
	.st1{fill:#F6F6EE;}
	.st2{fill:none;stroke:#F6F6EE;stroke-width:5;stroke-linecap:round;stroke-miterlimit:10;}
	.st3{fill:#E0A565;}
	.st4{fill:#FFF1D2;}
	.st5{fill:#FFFFFF;}
	.st6{fill:#5B4745;}
	.st7{fill:#D37562;}
	.st8{fill:#7F562E;}
	.st9{fill:#B3BF80;}
	.st10{fill:#4C4C4C;}
	.st11{fill:#FFFFFF;filter:url(#Adobe_OpacityMaskFilter);}
	.st12{mask:url(#mask0_465_4104_1_);}
	.st13{fill:#FFFFFF;filter:url(#Adobe_OpacityMaskFilter_1_);}
	.st14{mask:url(#mask1_465_4104_1_);}
	.st15{fill:#FFFFFF;filter:url(#Adobe_OpacityMaskFilter_2_);}
	.st16{mask:url(#mask2_465_4104_1_);}
</style>
<path class="st0" d="M1214.4,35.4l-12.9-8.3c-2.6-1.6-6,0.1-6.1,3.2l-0.8,15.4c-0.2,3,3.1,5.1,5.8,3.7l13.7-7
	C1216.8,40.9,1216.9,37.1,1214.4,35.4z"/>
<path class="st0" d="M1206.3,38.4c0,0,18.7,26.4,32.8,27.3c10.7,0.4,25.5-13.5,32-20.3c2-2.1,2.1-5.3,0.4-7.5
	c-5.8-7.4-19.2-22.7-29.9-23.3C1227.5,14,1206.3,38.4,1206.3,38.4z"/>
<path class="st1" d="M1254.6,39.1c-0.9-1.1-2.5-1.3-3.6-0.4c-1.1,0.9-1.3,2.5-0.4,3.6c0.9,1.1,2.5,1.3,3.6,0.4
	C1255.4,41.8,1255.5,40.2,1254.6,39.1z"/>
<path class="st2" d="M1240.8,59.4c-19-22.1,0.2-40,0.2-40"/>
<path class="st0" d="M1044.4,35.4l-12.9-8.3c-2.6-1.6-6,0.1-6.1,3.2l-0.8,15.4c-0.2,3,3.1,5.1,5.8,3.7l13.7-7
	C1046.8,40.9,1047,37.1,1044.4,35.4z"/>
<path class="st0" d="M1036.4,38.4c0,0,18.7,26.4,32.8,27.3c10.7,0.4,25.5-13.5,32-20.3c2-2.1,2.1-5.3,0.4-7.5
	c-5.8-7.4-19.2-22.7-29.9-23.3C1057.5,14,1036.4,38.4,1036.4,38.4z"/>
<path class="st1" d="M1084.7,39.1c-0.9-1.1-2.5-1.3-3.6-0.4c-1.1,0.9-1.3,2.5-0.4,3.6c0.9,1.1,2.5,1.3,3.6,0.4
	C1085.4,41.8,1085.6,40.2,1084.7,39.1z"/>
<path class="st2" d="M1070.9,59.4c-19-22.1,0.2-40,0.2-40"/>
<path class="st0" d="M874.5,35.4l-12.9-8.3c-2.6-1.6-6,0.1-6.1,3.2l-0.8,15.4c-0.2,3,3.1,5.1,5.8,3.7l13.7-7
	C876.9,40.9,877.1,37.1,874.5,35.4z"/>
<path class="st0" d="M866.4,38.4c0,0,18.7,26.4,32.8,27.3c10.7,0.4,25.5-13.5,32-20.3c2-2.1,2.1-5.3,0.4-7.5
	c-5.8-7.4-19.2-22.7-29.9-23.3C887.6,14,866.4,38.4,866.4,38.4z"/>
<path class="st1" d="M914.8,39.1c-0.9-1.1-2.5-1.3-3.6-0.4c-1.1,0.9-1.3,2.5-0.4,3.6c0.9,1.1,2.5,1.3,3.6,0.4
	C915.5,41.8,915.7,40.2,914.8,39.1z"/>
<path class="st2" d="M900.9,59.4c-19-22.1,0.2-40,0.2-40"/>
<path class="st0" d="M704.6,35.4l-12.9-8.3c-2.6-1.6-6,0.1-6.1,3.2l-0.8,15.4c-0.2,3,3.1,5.1,5.8,3.7l13.7-7
	C707,40.9,707.2,37.1,704.6,35.4z"/>
<path class="st0" d="M696.5,38.4c0,0,18.7,26.4,32.8,27.3c10.7,0.4,25.5-13.5,32-20.3c2-2.1,2.1-5.3,0.4-7.5
	c-5.8-7.4-19.2-22.7-29.9-23.3C717.7,14,696.5,38.4,696.5,38.4z"/>
<path class="st1" d="M744.9,39.1c-0.9-1.1-2.5-1.3-3.6-0.4c-1.1,0.9-1.3,2.5-0.4,3.6c0.9,1.1,2.5,1.3,3.6,0.4S745.8,40.2,744.9,39.1
	z"/>
<path class="st2" d="M731,59.4c-19-22.1,0.2-40,0.2-40"/>
<path class="st0" d="M534.7,35.4l-12.9-8.3c-2.6-1.6-6,0.1-6.1,3.2l-0.8,15.4c-0.2,3,3.1,5.1,5.8,3.7l13.7-7
	C537.1,40.9,537.3,37.1,534.7,35.4z"/>
<path class="st0" d="M526.6,38.4c0,0,18.7,26.4,32.8,27.3c10.7,0.4,25.5-13.5,32-20.3c2-2.1,2.1-5.3,0.4-7.5
	c-5.8-7.4-19.2-22.7-29.9-23.3C547.8,14,526.6,38.4,526.6,38.4z"/>
<path class="st1" d="M575,39.1c-0.9-1.1-2.5-1.3-3.6-0.4c-1.1,0.9-1.3,2.5-0.4,3.6c0.9,1.1,2.5,1.3,3.6,0.4S575.9,40.2,575,39.1z"/>
<path class="st2" d="M561.1,59.4c-19-22.1,0.2-40,0.2-40"/>
<path class="st0" d="M364.8,35.4l-12.9-8.3c-2.6-1.6-6,0.1-6.1,3.2L345,45.6c-0.2,3,3.1,5.1,5.8,3.7l13.7-7
	C367.2,40.9,367.4,37.1,364.8,35.4z"/>
<path class="st0" d="M356.7,38.4c0,0,18.7,26.4,32.8,27.3c10.7,0.4,25.5-13.5,32-20.3c2-2.1,2.2-5.3,0.4-7.5
	c-5.8-7.4-19.2-22.7-29.9-23.3C377.9,14,356.7,38.4,356.7,38.4z"/>
<path class="st1" d="M405.1,39.1c-0.9-1.1-2.5-1.3-3.7-0.4c-1.1,0.9-1.3,2.5-0.4,3.6c0.9,1.1,2.5,1.3,3.7,0.4
	C405.8,41.8,406,40.2,405.1,39.1z"/>
<path class="st2" d="M391.2,59.4c-19-22.1,0.2-40,0.2-40"/>
<path class="st0" d="M194.9,35.4l-12.9-8.3c-2.6-1.6-6,0.1-6.1,3.2l-0.8,15.4c-0.2,3,3.1,5.1,5.8,3.7l13.7-7
	C197.3,40.9,197.4,37.1,194.9,35.4z"/>
<path class="st0" d="M186.8,38.4c0,0,18.7,26.4,32.8,27.3c10.7,0.4,25.5-13.5,32-20.3c2-2.1,2.1-5.3,0.4-7.5
	c-5.8-7.4-19.2-22.7-29.9-23.3C208,14,186.8,38.4,186.8,38.4z"/>
<path class="st1" d="M235.1,39.1c-0.9-1.1-2.5-1.3-3.6-0.4c-1.1,0.9-1.3,2.5-0.4,3.6c0.9,1.1,2.5,1.3,3.6,0.4
	C235.9,41.8,236,40.2,235.1,39.1z"/>
<path class="st2" d="M221.3,59.4c-19-22.1,0.2-40,0.2-40"/>
<path class="st3" d="M10.4,19.4c-0.5-1.4-0.8-2.9-0.8-4.5c0-5.4,7.4-11.6,10.9-14.3c1.1-0.9,2.6-0.9,3.7,0c2.3,1.7,6.1,4.9,8.7,8.4
	C33.7,9,34.6,9,35.5,9h20.4c0.9,0,1.7,0.1,2.5,0.1c2.5-3.5,6.4-6.7,8.7-8.4c1.1-0.9,2.6-0.9,3.7,0C74.2,3.3,81.7,9.6,81.7,15
	c0,1.5-0.3,3-0.7,4.3c6.5,6.5,10.5,15.4,10.5,25.2C91.4,64.1,75.5,80,55.9,80H35.5C15.9,80,0,64.1,0,44.5C0,34.8,4,25.8,10.4,19.4z"
	/>
<path class="st4" d="M35.2,53.5c0-4.5,3.7-8.2,8.2-8.2c2.5,0,4.7,1.1,6.2,2.8c1.5-1.8,3.7-2.8,6.2-2.8c4.5,0,8.2,3.7,8.2,8.2
	c0,1-0.2,1.9-0.5,2.8c-2.8,7.6-13.8,7.4-13.8,7.4s0,0-0.1,0c0,0,0,0-0.1,0c0,0-11.1,0.3-13.8-7.4C35.4,55.4,35.2,54.5,35.2,53.5z"/>
<path class="st5" d="M75.8,44.3c0.1,0,0.2,0,0.3-0.1l7.8-2.6c0.5-0.2,0.7-0.6,0.5-1.1c-0.2-0.5-0.6-0.7-1.1-0.5l-7.8,2.6
	c-0.5,0.2-0.7,0.6-0.5,1.1C75.1,44,75.5,44.3,75.8,44.3z"/>
<path class="st5" d="M83.6,57c0.4,0,0.7-0.2,0.9-0.6c0.2-0.5-0.1-1-0.5-1.1l-7.8-2.6c-0.5-0.2-1,0.1-1.1,0.5c-0.2,0.5,0.1,1,0.5,1.1
	l7.8,2.6C83.4,57,83.5,57,83.6,57z"/>
<path class="st5" d="M75.6,49.3h8c0.5,0,0.9-0.4,0.9-0.9c0-0.5-0.4-0.9-0.9-0.9h-8c-0.5,0-0.9,0.4-0.9,0.9
	C74.7,49,75.1,49.3,75.6,49.3z"/>
<path class="st6" d="M51.4,52.1c1.5,0,2.7-1.2,2.7-2.7c0-0.5-0.4-0.9-0.9-0.9c-0.5,0-0.9,0.4-0.9,0.9c0,0.5-0.4,0.9-0.9,0.9
	c-0.5,0-0.9-0.4-0.9-0.9v-3.1c0-0.5-0.4-0.9-0.9-0.9c-0.5,0-0.9,0.4-0.9,0.9v3.1C48.7,50.9,49.9,52.1,51.4,52.1z"/>
<path class="st6" d="M47.7,52.1c1.5,0,2.7-1.2,2.7-2.7v-3.1c0-0.5-0.4-0.9-0.9-0.9c-0.5,0-0.9,0.4-0.9,0.9v3.1
	c0,0.5-0.4,0.9-0.9,0.9c-0.5,0-0.9-0.4-0.9-0.9c0-0.5-0.4-0.9-0.9-0.9c-0.5,0-0.9,0.4-0.9,0.9C45.1,50.9,46.2,52.1,47.7,52.1z"/>
<path class="st7" d="M47.3,46.2l1.8,1.8c0.3,0.3,0.7,0.3,1,0l1.8-1.8c0.4-0.4,0.1-1.2-0.5-1.2h-3.5C47.2,45.1,46.9,45.8,47.3,46.2z"
	/>
<path class="st8" d="M65.3,45.7c-4.6,0-8.3-3-8.3-6.8s3.7-6.8,8.3-6.8c4.6,0,8.3,3,8.3,6.8S69.9,45.7,65.3,45.7z"/>
<path class="st9" d="M65.3,45.1c-3.4,0-6.2-2.8-6.2-6.2c0-3.4,2.8-6.2,6.2-6.2c3.4,0,6.2,2.8,6.2,6.2C71.5,42.3,68.7,45.1,65.3,45.1
	z"/>
<path class="st5" d="M17.3,44.3c0.4,0,0.7-0.2,0.9-0.6c0.2-0.5-0.1-1-0.5-1.1l-7.8-2.6c-0.5-0.2-1,0.1-1.1,0.5
	c-0.2,0.5,0.1,1,0.5,1.1l7.8,2.6C17.1,44.3,17.2,44.3,17.3,44.3z"/>
<path class="st5" d="M9.5,57c0.1,0,0.2,0,0.3-0.1l7.8-2.6c0.5-0.2,0.7-0.6,0.5-1.1c-0.2-0.5-0.6-0.7-1.1-0.5l-7.8,2.6
	c-0.5,0.2-0.7,0.6-0.5,1.1C8.8,56.8,9.1,57,9.5,57z"/>
<path class="st5" d="M9.5,49.3h8c0.5,0,0.9-0.4,0.9-0.9c0-0.5-0.4-0.9-0.9-0.9h-8c-0.5,0-0.9,0.4-0.9,0.9C8.6,49,9,49.3,9.5,49.3z"
	/>
<path class="st8" d="M29.7,45.7c-4.6,0-8.3-3-8.3-6.8s3.7-6.8,8.3-6.8s8.3,3,8.3,6.8S34.3,45.7,29.7,45.7z"/>
<path class="st9" d="M29.7,45.1c-3.4,0-6.2-2.8-6.2-6.2c0-3.4,2.8-6.2,6.2-6.2c3.4,0,6.2,2.8,6.2,6.2C35.9,42.3,33.2,45.1,29.7,45.1
	z"/>
<path class="st4" d="M62.1,31.6c-1.5,0-2.7-1.2-2.7-2.7c0-1.5,1.2-2.7,2.7-2.7c1.5,0,2.7,1.2,2.7,2.7C64.7,30.4,63.5,31.6,62.1,31.6
	z"/>
<path class="st4" d="M33.3,31.6c-1.5,0-2.7-1.2-2.7-2.7c0-1.5,1.2-2.7,2.7-2.7c1.5,0,2.7,1.2,2.7,2.7C36,30.4,34.8,31.6,33.3,31.6z"
	/>
<path class="st10" d="M29.7,43.2c-1.7,0-3-1.9-3-4.3c0-2.4,1.4-4.3,3-4.3c1.7,0,3,1.9,3,4.3C32.8,41.2,31.4,43.2,29.7,43.2z"/>
<path class="st10" d="M65.3,43.3c-1.7,0-3-1.9-3-4.3c0-2.4,1.4-4.3,3-4.3s3,1.9,3,4.3C68.3,41.4,66.9,43.3,65.3,43.3z"/>
<path class="st4" d="M65.3,10.3c0-2.3,2.1-4.3,4.6-4.3s4.6,1.9,4.6,4.3c0,0.3-0.1,0.6-0.1,0.9c1.1,0.5,1.9,1.5,1.9,2.7
	c0,1.7-1.4,2.9-3.2,2.9c-0.6,0-1.3-0.2-1.8-0.5c-0.5,0.3-1.1,0.5-1.8,0.5c-1.8,0-3.2-1.3-3.2-2.9c0-0.3,0.1-0.5,0.1-0.7
	C65.8,12.3,65.3,11.4,65.3,10.3z"/>
<path class="st4" d="M26.1,10.3C26.1,7.9,24,6,21.5,6s-4.6,1.9-4.6,4.3c0,0.3,0.1,0.6,0.1,0.9c-1.1,0.5-1.9,1.5-1.9,2.7
	c0,1.7,1.4,2.9,3.2,2.9c0.6,0,1.3-0.2,1.8-0.5c0.5,0.3,1.1,0.5,1.8,0.5c1.8,0,3.2-1.3,3.2-2.9c0-0.3-0.1-0.5-0.1-0.7
	C25.6,12.3,26.1,11.4,26.1,10.3z"/>
<defs>
	<filter id="Adobe_OpacityMaskFilter" filterUnits="userSpaceOnUse" x="52.1" y="7.1" width="3.5" height="23.8">
		<feColorMatrix  type="matrix" values="1 0 0 0 0  0 1 0 0 0  0 0 1 0 0  0 0 0 1 0"/>
	</filter>
</defs>
<mask maskUnits="userSpaceOnUse" x="52.1" y="7.1" width="3.5" height="23.8" id="mask0_465_4104_1_">
	<path class="st11" d="M10.4,19.4c-0.5-1.4-0.8-2.9-0.8-4.5c0-5.4,7.4-11.6,10.9-14.3c1.1-0.9,2.6-0.9,3.7,0
		c2.3,1.7,6.1,4.9,8.7,8.4C33.7,9,34.6,9,35.5,9h20.4c0.9,0,1.7,0.1,2.5,0.1c2.5-3.5,6.4-6.7,8.7-8.4c1.1-0.9,2.6-0.9,3.7,0
		C74.2,3.3,81.7,9.6,81.7,15c0,1.5-0.3,3-0.7,4.3c6.5,6.5,10.5,15.4,10.5,25.2C91.4,64.1,75.5,80,55.9,80H35.5
		C15.9,80,0,64.1,0,44.5C0,34.8,4,25.8,10.4,19.4z"/>
</mask>
<g class="st12">
	<path class="st8" d="M53.8,30.9c1,0,1.8-0.8,1.8-1.8V8.9c0-1-0.8-1.8-1.8-1.8s-1.8,0.8-1.8,1.8v20.2C52,30.1,52.8,30.9,53.8,30.9z"
		/>
</g>
<defs>
	<filter id="Adobe_OpacityMaskFilter_1_" filterUnits="userSpaceOnUse" x="45.8" y="7.3" width="3.5" height="23.8">
		<feColorMatrix  type="matrix" values="1 0 0 0 0  0 1 0 0 0  0 0 1 0 0  0 0 0 1 0"/>
	</filter>
</defs>
<mask maskUnits="userSpaceOnUse" x="45.8" y="7.3" width="3.5" height="23.8" id="mask1_465_4104_1_">
	<path class="st13" d="M10.4,19.4c-0.5-1.4-0.8-2.9-0.8-4.5c0-5.4,7.4-11.6,10.9-14.3c1.1-0.9,2.6-0.9,3.7,0
		c2.3,1.7,6.1,4.9,8.7,8.4C33.7,9,34.6,9,35.5,9h20.4c0.9,0,1.7,0.1,2.5,0.1c2.5-3.5,6.4-6.7,8.7-8.4c1.1-0.9,2.6-0.9,3.7,0
		C74.2,3.3,81.7,9.6,81.7,15c0,1.5-0.3,3-0.7,4.3c6.5,6.5,10.5,15.4,10.5,25.2C91.4,64.1,75.5,80,55.9,80H35.5
		C15.9,80,0,64.1,0,44.5C0,34.8,4,25.8,10.4,19.4z"/>
</mask>
<g class="st14">
	<path class="st8" d="M47.6,31c1,0,1.8-0.8,1.8-1.8V9c0-1-0.8-1.8-1.8-1.8c-1,0-1.8,0.8-1.8,1.8v20.2C45.8,30.3,46.6,31,47.6,31z"/>
</g>
<defs>
	<filter id="Adobe_OpacityMaskFilter_2_" filterUnits="userSpaceOnUse" x="39.6" y="7.5" width="3.5" height="23.8">
		<feColorMatrix  type="matrix" values="1 0 0 0 0  0 1 0 0 0  0 0 1 0 0  0 0 0 1 0"/>
	</filter>
</defs>
<mask maskUnits="userSpaceOnUse" x="39.6" y="7.5" width="3.5" height="23.8" id="mask2_465_4104_1_">
	<path class="st15" d="M10.4,19.4c-0.5-1.4-0.8-2.9-0.8-4.5c0-5.4,7.4-11.6,10.9-14.3c1.1-0.9,2.6-0.9,3.7,0
		c2.3,1.7,6.1,4.9,8.7,8.4C33.7,9,34.6,9,35.5,9h20.4c0.9,0,1.7,0.1,2.5,0.1c2.5-3.5,6.4-6.7,8.7-8.4c1.1-0.9,2.6-0.9,3.7,0
		C74.2,3.3,81.7,9.6,81.7,15c0,1.5-0.3,3-0.7,4.3c6.5,6.5,10.5,15.4,10.5,25.2C91.4,64.1,75.5,80,55.9,80H35.5
		C15.9,80,0,64.1,0,44.5C0,34.8,4,25.8,10.4,19.4z"/>
</mask>
<g class="st16">
	<path class="st8" d="M41.4,31.2c1,0,1.8-0.8,1.8-1.8V9.2c0-1-0.8-1.8-1.8-1.8s-1.8,0.8-1.8,1.8v20.2C39.6,30.4,40.4,31.2,41.4,31.2
		z"/>
</g>
<path class="st5" d="M26,43.5c-1.2,0-2.2-1-2.2-2.2c0-1.2,1-2.2,2.2-2.2c1.2,0,2.2,1,2.2,2.2C28.1,42.5,27.2,43.5,26,43.5z"/>
<path class="st5" d="M61.5,43.8c-1.2,0-2.2-1-2.2-2.2c0-1.2,1-2.2,2.2-2.2c1.2,0,2.2,1,2.2,2.2C63.7,42.9,62.7,43.8,61.5,43.8z"/>
</svg>
