<svg width="86" height="65" viewBox="0 0 86 65" fill="none" xmlns="http://www.w3.org/2000/svg">
<path d="M81.1066 38.5642L80.1819 23.4722C79.995 20.5033 76.6272 18.8101 74.1341 20.4337L64.6561 26.6412C57.6233 19.7563 44.3181 8.16102 34.5028 8.60727C23.9575 9.38957 10.988 24.5489 5.36965 31.8562C3.67236 34.0508 3.83703 37.2085 5.78914 39.1963C12.2643 45.7674 26.954 59.2845 37.4426 58.8209C47.1966 58.0805 59.1055 44.922 65.2647 37.2566L75.4148 42.2652C78.1538 43.5982 81.2935 41.5331 81.1066 38.5642Z" fill="#92D1D0"/>
<path d="M24.4525 36.909C23.0842 37.1937 21.7448 36.3181 21.4608 34.9534C21.1769 33.5886 22.0559 32.2515 23.4242 31.9668C24.7924 31.6821 26.1318 32.5577 26.4158 33.9224C26.6997 35.2872 25.8207 36.6243 24.4525 36.909Z" fill="#F6F6EE"/>
<path d="M35.5785 54.2981C35.259 54.2418 34.9274 54.1266 34.7014 53.9281C33.9647 53.3448 33.9213 52.2489 34.519 51.5721C41.711 42.9552 43.8091 34.1092 40.7564 25.3528C38.4515 18.7119 34.0387 14.658 34.0264 14.5991C33.3364 13.9447 33.3053 12.9077 33.9029 12.2309C34.5596 11.5418 35.5991 11.5097 36.2769 12.1053C36.5028 12.3038 41.3797 16.8136 43.9617 24.1948C46.3745 31.0587 47.0666 41.7796 37.0509 53.6848C36.6525 54.136 36.1338 54.3053 35.5785 54.2981Z" fill="#F6F6EE"/>
</svg>
