<svg width="200" height="200" viewBox="0 0 200 200" fill="none" xmlns="http://www.w3.org/2000/svg">
<path d="M85.8722 54.0754L85.0072 39.9574C84.8323 37.1801 81.6819 35.5961 79.3497 37.115L70.4833 42.9219C63.9045 36.4813 51.4579 25.6343 42.2761 26.0518C32.4113 26.7836 20.2788 40.9646 15.023 47.8003C13.4353 49.8533 13.5893 52.8072 15.4155 54.6667C21.4727 60.8138 35.2145 73.4585 45.0261 73.0248C54.1506 72.3322 65.291 60.0229 71.0527 52.8522L80.5478 57.5375C83.11 58.7845 86.0471 56.8527 85.8722 54.0754Z" fill="#92D1D0"/>
<path d="M32.8744 52.5271C31.5944 52.7934 30.3414 51.9744 30.0758 50.6977C29.8102 49.421 30.6324 48.1702 31.9124 47.9038C33.1924 47.6375 34.4453 48.4566 34.711 49.7333C34.9766 51.01 34.1543 52.2608 32.8744 52.5271Z" fill="#F6F6EE"/>
<path d="M43.2822 68.7938C42.9834 68.7412 42.6731 68.6335 42.4618 68.4477C41.7726 67.9021 41.732 66.8769 42.2911 66.2438C49.019 58.183 50.9817 49.9079 48.1259 41.7165C45.9698 35.5042 41.8418 31.712 41.8303 31.6569C41.1848 31.0447 41.1557 30.0746 41.7148 29.4415C42.3291 28.7969 43.3015 28.7668 43.9355 29.324C44.1469 29.5097 48.7091 33.7284 51.1244 40.6333C53.3815 47.0543 54.029 57.0832 44.6596 68.2201C44.2869 68.6422 43.8017 68.8006 43.2822 68.7938Z" fill="#F6F6EE"/>
<path d="M185.872 156.075L185.007 141.957C184.832 139.18 181.682 137.596 179.35 139.115L170.483 144.922C163.905 138.481 151.458 127.634 142.276 128.052C132.411 128.784 120.279 142.965 115.023 149.8C113.435 151.853 113.589 154.807 115.416 156.667C121.473 162.814 135.215 175.458 145.026 175.025C154.151 174.332 165.291 162.023 171.053 154.852L180.548 159.538C183.11 160.785 186.047 158.853 185.872 156.075Z" fill="#92D1D0"/>
<path d="M132.874 154.527C131.594 154.793 130.341 153.974 130.076 152.698C129.81 151.421 130.632 150.17 131.912 149.904C133.192 149.638 134.445 150.457 134.711 151.733C134.977 153.01 134.154 154.261 132.874 154.527Z" fill="#F6F6EE"/>
<path d="M143.282 170.794C142.984 170.741 142.673 170.633 142.462 170.448C141.773 169.902 141.732 168.877 142.291 168.244C149.019 160.183 150.982 151.908 148.126 143.717C145.97 137.504 141.842 133.712 141.83 133.657C141.185 133.045 141.156 132.075 141.715 131.442C142.329 130.797 143.302 130.767 143.936 131.324C144.147 131.51 148.709 135.728 151.125 142.633C153.382 149.054 154.029 159.083 144.66 170.22C144.287 170.642 143.802 170.801 143.282 170.794Z" fill="#F6F6EE"/>
</svg>
