<?xml version="1.0" encoding="utf-8"?>
<!-- Generator: Adobe Illustrator 22.0.0, SVG Export Plug-In . SVG Version: 6.00 Build 0)  -->
<svg version="1.1" id="圖層_1" xmlns="http://www.w3.org/2000/svg" xmlns:xlink="http://www.w3.org/1999/xlink" x="0px" y="0px"
	 viewBox="0 0 1282 80" style="enable-background:new 0 0 1282 80;" xml:space="preserve">
<style type="text/css">
	.st0{fill:#90D1CF;}
	.st1{fill:#F6F6EE;}
	.st2{fill:#E0A565;}
	.st3{fill:#FFF1D2;}
	.st4{fill:#FFFFFF;}
	.st5{fill:#5B4745;}
	.st6{fill:#D37562;}
	.st7{fill:#7F562E;}
	.st8{fill:#B3BF80;}
	.st9{fill:#4C4C4C;}
</style>
<g>
	<path class="st0" d="M58.6,42.4l13.7,7c2.7,1.4,6-0.7,5.8-3.7l-0.8-15.4c-0.1-3.1-3.5-4.8-6.1-3.2l-12.9,8.3
		C55.8,37.1,55.9,40.9,58.6,42.4z"/>
</g>
<g>
	<path class="st0" d="M31.1,14.6C20.4,15.2,7,30.5,1.2,37.9c-1.7,2.2-1.6,5.4,0.4,7.5c6.5,6.8,21.3,20.7,32,20.3
		c14.1-0.9,32.8-27.3,32.8-27.3S45.2,14,31.1,14.6z"/>
</g>
<g>
	<path class="st1" d="M18.5,42.7c1.1,0.9,2.7,0.7,3.6-0.4s0.7-2.7-0.4-3.6c-1.1-0.9-2.7-0.7-3.6,0.4C17.2,40.2,17.3,41.8,18.5,42.7z
		"/>
</g>
<g>
	<path class="st1" d="M31.9,61.9c-0.6,0-1.2-0.2-1.6-0.6c-1-0.9-1.2-2.5-0.3-3.5c17.2-20,0.7-35.9,0-36.5c-1-0.9-1.1-2.5-0.1-3.5
		c0.9-1,2.5-1.1,3.5-0.1c0.2,0.2,20.7,19.8,0.4,43.5C33.3,61.6,32.6,61.9,31.9,61.9z"/>
</g>
<g>
	<path class="st0" d="M228.6,42.4l13.7,7c2.7,1.4,6-0.7,5.8-3.7l-0.8-15.4c-0.1-3.1-3.5-4.8-6.1-3.2l-12.9,8.3
		C225.7,37.1,225.9,40.9,228.6,42.4z"/>
</g>
<g>
	<path class="st0" d="M201,14.6c-10.7,0.6-24.1,15.9-29.9,23.3c-1.7,2.2-1.6,5.4,0.4,7.5c6.5,6.8,21.3,20.7,32,20.3
		c14.1-0.9,32.8-27.3,32.8-27.3S215.2,14,201,14.6z"/>
</g>
<g>
	<path class="st1" d="M188.4,42.7c1.1,0.9,2.7,0.7,3.6-0.4s0.7-2.7-0.4-3.6c-1.1-0.9-2.7-0.7-3.6,0.4
		C187.1,40.2,187.3,41.8,188.4,42.7z"/>
</g>
<g>
	<path class="st1" d="M201.8,61.9c-0.6,0-1.2-0.2-1.6-0.6c-1-0.9-1.2-2.5-0.3-3.5c17.2-20,0.7-35.9,0-36.5c-1-0.9-1.1-2.5-0.1-3.5
		c0.9-1,2.5-1.1,3.5-0.1c0.2,0.2,20.7,19.8,0.4,43.5C203.2,61.6,202.5,61.9,201.8,61.9z"/>
</g>
<g>
	<path class="st0" d="M398.5,42.4l13.7,7c2.7,1.4,6-0.7,5.8-3.7l-0.8-15.4c-0.1-3.1-3.5-4.8-6.1-3.2l-12.9,8.3
		C395.6,37.1,395.8,40.9,398.5,42.4z"/>
</g>
<g>
	<path class="st0" d="M371,14.6c-10.7,0.6-24.1,15.9-29.9,23.3c-1.7,2.2-1.6,5.4,0.4,7.5c6.5,6.8,21.3,20.7,32,20.3
		c14.1-0.9,32.8-27.3,32.8-27.3S385.1,14,371,14.6z"/>
</g>
<g>
	<path class="st1" d="M358.3,42.7c1.1,0.9,2.7,0.7,3.6-0.4c0.9-1.1,0.7-2.7-0.4-3.6c-1.1-0.9-2.7-0.7-3.6,0.4
		C357,40.2,357.2,41.8,358.3,42.7z"/>
</g>
<g>
	<path class="st1" d="M371.8,61.9c-0.6,0-1.2-0.2-1.6-0.6c-1-0.9-1.2-2.5-0.3-3.5c17.2-20,0.7-35.9,0-36.5c-1-0.9-1.1-2.5-0.1-3.5
		c0.9-1,2.5-1.1,3.5-0.1c0.2,0.2,20.7,19.8,0.4,43.5C373.2,61.6,372.5,61.9,371.8,61.9z"/>
</g>
<g>
	<path class="st0" d="M568.4,42.4l13.7,7c2.7,1.4,6-0.7,5.8-3.7l-0.8-15.4c-0.1-3.1-3.5-4.8-6.1-3.2l-12.9,8.3
		C565.5,37.1,565.7,40.9,568.4,42.4z"/>
</g>
<g>
	<path class="st0" d="M540.9,14.6c-10.7,0.6-24.1,15.9-29.9,23.3c-1.7,2.2-1.6,5.4,0.4,7.5c6.5,6.8,21.3,20.7,32,20.3
		c14.1-0.9,32.8-27.3,32.8-27.3S555,14,540.9,14.6z"/>
</g>
<g>
	<path class="st1" d="M528.2,42.7c1.1,0.9,2.7,0.7,3.6-0.4c0.9-1.1,0.7-2.7-0.4-3.6c-1.1-0.9-2.7-0.7-3.6,0.4
		C526.9,40.2,527.1,41.8,528.2,42.7z"/>
</g>
<g>
	<path class="st1" d="M541.7,61.9c-0.6,0-1.2-0.2-1.6-0.6c-1-0.9-1.2-2.5-0.3-3.5c17.2-20,0.7-35.9,0-36.5c-1-0.9-1.1-2.5-0.1-3.5
		c0.9-1,2.5-1.1,3.5-0.1c0.2,0.2,20.7,19.8,0.4,43.5C543.1,61.6,542.4,61.9,541.7,61.9z"/>
</g>
<g>
	<path class="st0" d="M738.3,42.4l13.7,7c2.7,1.4,6-0.7,5.8-3.7L757,30.3c-0.1-3.1-3.5-4.8-6.1-3.2L738,35.4
		C735.4,37.1,735.6,40.9,738.3,42.4z"/>
</g>
<g>
	<path class="st0" d="M710.8,14.6c-10.7,0.6-24.1,15.9-29.9,23.3c-1.7,2.2-1.6,5.4,0.4,7.5c6.5,6.8,21.3,20.7,32,20.3
		c14.1-0.9,32.8-27.3,32.8-27.3S724.9,14,710.8,14.6z"/>
</g>
<g>
	<path class="st1" d="M698.1,42.7c1.1,0.9,2.7,0.7,3.6-0.4c0.9-1.1,0.7-2.7-0.4-3.6c-1.1-0.9-2.7-0.7-3.6,0.4
		C696.8,40.2,697,41.8,698.1,42.7z"/>
</g>
<g>
	<path class="st1" d="M711.6,61.9c-0.6,0-1.2-0.2-1.6-0.6c-1-0.9-1.2-2.5-0.3-3.5c17.2-20,0.7-35.9,0-36.5c-1-0.9-1.1-2.5-0.1-3.5
		c0.9-1,2.5-1.1,3.5-0.1c0.2,0.2,20.7,19.8,0.4,43.5C713,61.6,712.3,61.9,711.6,61.9z"/>
</g>
<g>
	<path class="st0" d="M908.2,42.3l13.7,7c2.7,1.4,6-0.7,5.8-3.7l-0.8-15.3c-0.1-3.1-3.5-4.8-6.1-3.2l-12.9,8.3
		C905.3,37.1,905.5,40.9,908.2,42.3z"/>
</g>
<g>
	<path class="st0" d="M880.7,14.6c-10.7,0.6-24.1,15.9-29.9,23.3c-1.8,2.2-1.6,5.4,0.4,7.5c6.5,6.8,21.3,20.7,32,20.3
		c14.1-0.9,32.8-27.3,32.8-27.3S894.8,14,880.7,14.6z"/>
</g>
<g>
	<path class="st1" d="M868,42.7c1.2,0.9,2.8,0.7,3.7-0.4c0.9-1.1,0.7-2.7-0.4-3.6c-1.2-0.9-2.8-0.7-3.7,0.4
		C866.7,40.2,866.9,41.8,868,42.7z"/>
</g>
<g>
	<path class="st1" d="M881.5,61.9c-0.6,0-1.2-0.2-1.6-0.6c-1-0.9-1.2-2.5-0.3-3.5c17.2-20,0.7-35.9,0-36.5c-1-0.9-1.1-2.5-0.1-3.5
		c0.9-1,2.5-1.1,3.5-0.1c0.2,0.2,20.7,19.8,0.4,43.5C882.9,61.6,882.2,61.9,881.5,61.9z"/>
</g>
<g>
	<path class="st0" d="M1078.1,42.4l13.7,7c2.7,1.4,6-0.7,5.8-3.7l-0.8-15.4c-0.1-3.1-3.5-4.8-6.1-3.2l-12.9,8.3
		C1075.3,37.1,1075.4,40.9,1078.1,42.4z"/>
</g>
<g>
	<path class="st0" d="M1050.6,14.6c-10.7,0.6-24.1,15.9-29.9,23.3c-1.7,2.2-1.6,5.4,0.4,7.5c6.5,6.8,21.3,20.7,32,20.3
		c14.1-0.9,32.8-27.3,32.8-27.3S1064.7,14,1050.6,14.6z"/>
</g>
<g>
	<path class="st1" d="M1038,42.7c1.1,0.9,2.7,0.7,3.6-0.4c0.9-1.1,0.7-2.7-0.4-3.6c-1.1-0.9-2.7-0.7-3.6,0.4
		C1036.7,40.2,1036.8,41.8,1038,42.7z"/>
</g>
<g>
	<path class="st1" d="M1051.4,61.9c-0.6,0-1.2-0.2-1.6-0.6c-1-0.9-1.2-2.5-0.3-3.5c17.2-20,0.7-35.9,0-36.5c-1-0.9-1.1-2.5-0.1-3.5
		c0.9-1,2.5-1.1,3.5-0.1c0.2,0.2,20.7,19.8,0.4,43.5C1052.8,61.6,1052.1,61.9,1051.4,61.9z"/>
</g>
<g>
	<path class="st2" d="M1272.7,44.5c0,19.6-15.9,35.5-35.5,35.5h-20.4c-19.6,0-35.5-15.9-35.6-35.5c0-9.8,4-18.7,10.5-25.2
		c-0.4-1.3-0.7-2.8-0.7-4.3c0-5.4,7.5-11.7,10.9-14.3c1.1-0.9,2.6-0.9,3.7,0c2.3,1.7,6.2,4.9,8.7,8.4c0.8,0,1.6-0.1,2.5-0.1h20.4
		c0.9,0,1.8,0,2.6,0c2.6-3.5,6.4-6.7,8.7-8.4c1.1-0.9,2.6-0.9,3.7,0c3.5,2.7,10.9,8.9,10.9,14.3c0,1.6-0.3,3.1-0.8,4.5
		C1268.7,25.8,1272.7,34.8,1272.7,44.5z"/>
</g>
<g>
	<path class="st3" d="M1237,56.3c-2.7,7.7-13.8,7.4-13.8,7.4c-0.1,0-0.1,0-0.1,0c-0.1,0-0.1,0-0.1,0s-11,0.2-13.8-7.4
		c-0.3-0.9-0.5-1.8-0.5-2.8c0-4.5,3.7-8.2,8.2-8.2c2.5,0,4.7,1,6.2,2.8c1.5-1.7,3.7-2.8,6.2-2.8c4.5,0,8.2,3.7,8.2,8.2
		C1237.5,54.5,1237.3,55.4,1237,56.3z"/>
</g>
<g>
	<path class="st4" d="M1197.7,43.7c0.2-0.5,0-0.9-0.5-1.1l-7.8-2.6c-0.5-0.2-0.9,0-1.1,0.5c-0.2,0.5,0,0.9,0.5,1.1l7.8,2.6
		c0.1,0.1,0.2,0.1,0.3,0.1C1197.2,44.3,1197.6,44,1197.7,43.7z"/>
</g>
<g>
	<path class="st4" d="M1189.3,56.9l7.8-2.6c0.4-0.1,0.7-0.6,0.5-1.1c-0.1-0.4-0.6-0.7-1.1-0.5l-7.8,2.6c-0.4,0.1-0.7,0.6-0.5,1.1
		c0.2,0.4,0.5,0.6,0.9,0.6C1189.2,57,1189.3,57,1189.3,56.9z"/>
</g>
<g>
	<path class="st4" d="M1198,48.4c0-0.5-0.4-0.9-0.9-0.9h-8c-0.5,0-0.9,0.4-0.9,0.9s0.4,0.9,0.9,0.9h8C1197.6,49.3,1198,49,1198,48.4
		z"/>
</g>
<g>
	<path class="st5" d="M1224,49.4v-3.1c0-0.5-0.4-0.9-0.9-0.9s-0.9,0.4-0.9,0.9v3.1c0,0.5-0.4,0.9-0.9,0.9s-0.9-0.4-0.9-0.9
		s-0.4-0.9-0.9-0.9s-0.9,0.4-0.9,0.9c0,1.5,1.2,2.7,2.7,2.7S1224,50.9,1224,49.4z"/>
</g>
<g>
	<path class="st5" d="M1227.7,49.4c0-0.5-0.4-0.9-0.9-0.9s-0.9,0.4-0.9,0.9s-0.4,0.9-0.9,0.9s-0.9-0.4-0.9-0.9v-3.1
		c0-0.5-0.4-0.9-0.9-0.9s-0.9,0.4-0.9,0.9v3.1c0,1.5,1.2,2.7,2.7,2.7S1227.6,50.9,1227.7,49.4z"/>
</g>
<g>
	<path class="st6" d="M1224.8,45h-3.5c-0.6,0-0.9,0.8-0.5,1.2l1.8,1.8c0.3,0.3,0.7,0.3,1,0l1.8-1.8
		C1225.8,45.8,1225.5,45.1,1224.8,45z"/>
</g>
<g>
	<path class="st7" d="M1199.1,38.9c0-3.8,3.7-6.8,8.3-6.8s8.3,3,8.3,6.8s-3.7,6.8-8.3,6.8S1199.1,42.7,1199.1,38.9z"/>
</g>
<g>
	<path class="st8" d="M1201.2,38.9c0-3.4,2.8-6.2,6.2-6.2s6.2,2.8,6.2,6.2s-2.8,6.2-6.2,6.2S1201.2,42.3,1201.2,38.9z"/>
</g>
<g>
	<path class="st4" d="M1255.6,44.2l7.8-2.6c0.4-0.1,0.7-0.6,0.5-1.1c-0.1-0.4-0.6-0.7-1.1-0.5l-7.8,2.6c-0.4,0.1-0.7,0.6-0.5,1.1
		c0.2,0.4,0.5,0.6,0.9,0.6C1255.5,44.3,1255.6,44.3,1255.6,44.2z"/>
</g>
<g>
	<path class="st4" d="M1264,56.4c0.2-0.5,0-0.9-0.5-1.1l-7.8-2.6c-0.5-0.2-0.9,0-1.1,0.5c-0.2,0.5,0,0.9,0.5,1.1l7.8,2.6
		c0.1,0.1,0.2,0.1,0.3,0.1C1263.6,57,1263.9,56.8,1264,56.4z"/>
</g>
<g>
	<path class="st4" d="M1264.1,48.4c0-0.5-0.4-0.9-0.9-0.9h-8c-0.5,0-0.9,0.4-0.9,0.9s0.4,0.9,0.9,0.9h8
		C1263.7,49.3,1264.1,49,1264.1,48.4z"/>
</g>
<g>
	<path class="st7" d="M1234.7,38.9c0-3.8,3.7-6.8,8.3-6.8s8.3,3,8.3,6.8s-3.7,6.8-8.3,6.8S1234.7,42.7,1234.7,38.9z"/>
</g>
<g>
	<path class="st8" d="M1236.8,38.9c0-3.4,2.8-6.2,6.2-6.2s6.2,2.8,6.2,6.2s-2.8,6.2-6.2,6.2C1239.5,45.1,1236.8,42.3,1236.8,38.9z"
		/>
</g>
<g>
	<path class="st3" d="M1207.9,28.9c0-1.5,1.2-2.7,2.7-2.7s2.7,1.2,2.7,2.7s-1.2,2.7-2.7,2.7C1209.2,31.6,1208,30.4,1207.9,28.9z"/>
</g>
<g>
	<path class="st3" d="M1236.7,28.9c0-1.5,1.2-2.7,2.7-2.7s2.7,1.2,2.7,2.7s-1.2,2.7-2.7,2.7S1236.7,30.4,1236.7,28.9z"/>
</g>
<g>
	<path class="st9" d="M1240,38.9c0-2.4,1.3-4.3,3-4.3c1.6,0,3,1.9,3,4.3c0,2.4-1.3,4.3-3,4.3C1241.3,43.2,1239.9,41.2,1240,38.9z"/>
</g>
<g>
	<path class="st9" d="M1204.4,39c0-2.4,1.4-4.3,3-4.3s3,1.9,3,4.3c0,2.4-1.3,4.3-3,4.3C1205.8,43.3,1204.4,41.4,1204.4,39z"/>
</g>
<g>
	<path class="st3" d="M1206.3,13.2c0,0.2,0.1,0.4,0.1,0.7c0,1.6-1.4,2.9-3.2,2.9c-0.7,0-1.3-0.2-1.8-0.5c-0.5,0.3-1.2,0.5-1.8,0.5
		c-1.8,0-3.2-1.2-3.2-2.9c0-1.2,0.8-2.2,1.9-2.7c0-0.3-0.1-0.6-0.1-0.9c0-2.4,2.1-4.3,4.6-4.3s4.6,2,4.6,4.3
		C1207.4,11.4,1206.9,12.3,1206.3,13.2z"/>
</g>
<g>
	<path class="st3" d="M1247.7,13.2c0,0.2-0.1,0.4-0.1,0.7c0,1.6,1.4,2.9,3.2,2.9c0.7,0,1.3-0.2,1.8-0.5c0.5,0.3,1.2,0.5,1.8,0.5
		c1.8,0,3.2-1.2,3.2-2.9c0-1.2-0.8-2.2-1.9-2.7c0-0.3,0.1-0.6,0.1-0.9c0-2.4-2.1-4.3-4.6-4.3s-4.6,1.9-4.6,4.3
		C1246.6,11.4,1247.1,12.3,1247.7,13.2z"/>
</g>
<g>
	<g>
		<path class="st7" d="M1220.7,29.1V8.9c0-1-0.8-1.8-1.8-1.8s-1.8,0.8-1.8,1.8v20.2c0,1,0.8,1.8,1.8,1.8S1220.7,30.1,1220.7,29.1z"
			/>
	</g>
</g>
<g>
	<g>
		<path class="st7" d="M1226.9,29.2V9c0-1-0.8-1.8-1.8-1.8s-1.8,0.8-1.8,1.8v20.2c0,1,0.8,1.8,1.8,1.8S1226.9,30.3,1226.9,29.2z"/>
	</g>
</g>
<g>
	<g>
		<path class="st7" d="M1233.1,29.4V9.2c0-1-0.8-1.8-1.8-1.8s-1.8,0.8-1.8,1.8v20.2c0,1,0.8,1.8,1.8,1.8S1233.1,30.4,1233.1,29.4z"
			/>
	</g>
</g>
<g>
	<path class="st4" d="M1244.5,41.3c0-1.2,1-2.2,2.2-2.2c1.2,0,2.2,1,2.2,2.2s-1,2.2-2.2,2.2C1245.5,43.5,1244.6,42.5,1244.5,41.3z"
		/>
</g>
<g>
	<path class="st4" d="M1209,41.6c0-1.2,1-2.2,2.2-2.2c1.2,0,2.2,1,2.2,2.2s-1,2.2-2.2,2.2C1210,43.8,1209,42.9,1209,41.6z"/>
</g>
</svg>
