<svg width="1280" height="71" viewBox="0 0 1280 71" fill="none" xmlns="http://www.w3.org/2000/svg">
<path d="M231.734 37.3096L245.416 44.3305C248.111 45.7392 251.36 43.642 251.203 40.6319L250.449 25.2298C250.323 22.1815 246.895 20.4359 244.326 22.0754L231.39 30.3878C228.829 32.0962 229.001 35.8703 231.734 37.3096Z" fill="#90D1CF"/>
<path d="M204.149 9.54706C193.468 10.1996 180.12 25.5169 174.283 32.8748C172.508 35.0882 172.687 38.3046 174.656 40.3848C181.18 47.1837 195.931 61.0813 206.642 60.7038C220.776 59.8107 239.485 33.4299 239.485 33.4299C239.485 33.4299 218.29 9.03595 204.149 9.54706Z" fill="#90D1CF"/>
<path d="M191.519 37.7302C192.636 38.6259 194.268 38.4465 195.164 37.3295C196.059 36.2124 195.88 34.5807 194.763 33.685C193.646 32.7892 192.014 32.9687 191.118 34.0857C190.223 35.2028 190.402 36.8345 191.519 37.7302Z" fill="#F6F6EE"/>
<path d="M204.754 14.4218C204.754 14.4218 223.947 32.3199 204.976 54.4147" stroke="#F6F6EE" stroke-width="5" stroke-miterlimit="10" stroke-linecap="round"/>
<path d="M401.649 37.3096L415.331 44.3305C418.026 45.7392 421.275 43.642 421.118 40.6319L420.364 25.2298C420.237 22.1815 416.809 20.4359 414.241 22.0754L401.305 30.3878C398.744 32.0962 398.915 35.8703 401.649 37.3096Z" fill="#90D1CF"/>
<path d="M374.063 9.54706C363.383 10.1996 350.034 25.5169 344.197 32.8748C342.422 35.0882 342.602 38.3046 344.571 40.3848C351.095 47.1837 365.846 61.0813 376.557 60.7038C390.691 59.8107 409.4 33.4299 409.4 33.4299C409.4 33.4299 388.205 9.03595 374.063 9.54706Z" fill="#90D1CF"/>
<path d="M361.434 37.7302C362.551 38.6259 364.183 38.4465 365.078 37.3295C365.974 36.2124 365.795 34.5807 364.678 33.685C363.56 32.7892 361.929 32.9687 361.033 34.0857C360.137 35.2028 360.317 36.8345 361.434 37.7302Z" fill="#F6F6EE"/>
<path d="M374.669 14.4218C374.669 14.4218 393.862 32.3199 374.891 54.4147" stroke="#F6F6EE" stroke-width="5" stroke-miterlimit="10" stroke-linecap="round"/>
<path d="M571.563 37.3096L585.245 44.3305C587.94 45.7392 591.19 43.642 591.033 40.6319L590.278 25.2298C590.152 22.1815 586.724 20.4359 584.155 22.0754L571.22 30.3878C568.659 32.0962 568.83 35.8703 571.563 37.3096Z" fill="#90D1CF"/>
<path d="M543.978 9.54706C533.297 10.1996 519.949 25.5169 514.112 32.8748C512.337 35.0882 512.517 38.3046 514.485 40.3848C521.009 47.1837 535.761 61.0813 546.472 60.7038C560.606 59.8107 579.314 33.4299 579.314 33.4299C579.314 33.4299 558.119 9.03595 543.978 9.54706Z" fill="#90D1CF"/>
<path d="M531.348 37.7302C532.466 38.6259 534.097 38.4465 534.993 37.3295C535.889 36.2124 535.709 34.5807 534.592 33.685C533.475 32.7892 531.843 32.9687 530.948 34.0857C530.052 35.2028 530.231 36.8345 531.348 37.7302Z" fill="#F6F6EE"/>
<path d="M544.583 14.4218C544.583 14.4218 563.777 32.3199 544.806 54.4147" stroke="#F6F6EE" stroke-width="5" stroke-miterlimit="10" stroke-linecap="round"/>
<path d="M741.478 37.3096L755.16 44.3305C757.855 45.7392 761.104 43.642 760.947 40.6319L760.193 25.2298C760.067 22.1815 756.639 20.4359 754.07 22.0754L741.134 30.3878C738.573 32.0962 738.745 35.8703 741.478 37.3096Z" fill="#90D1CF"/>
<path d="M713.893 9.54706C703.212 10.1996 689.864 25.5169 684.026 32.8748C682.252 35.0882 682.431 38.3046 684.4 40.3848C690.924 47.1837 705.675 61.0813 716.386 60.7038C730.52 59.8107 749.229 33.4299 749.229 33.4299C749.229 33.4299 728.034 9.03595 713.893 9.54706Z" fill="#90D1CF"/>
<path d="M701.263 37.7302C702.38 38.6259 704.012 38.4465 704.908 37.3295C705.803 36.2124 705.624 34.5807 704.507 33.685C703.39 32.7892 701.758 32.9687 700.862 34.0857C699.967 35.2028 700.146 36.8345 701.263 37.7302Z" fill="#F6F6EE"/>
<path d="M714.498 14.4218C714.498 14.4218 733.691 32.3199 714.72 54.4147" stroke="#F6F6EE" stroke-width="5" stroke-miterlimit="10" stroke-linecap="round"/>
<path d="M911.393 37.3096L925.075 44.3305C927.77 45.7392 931.019 43.642 930.862 40.6319L930.108 25.2298C929.981 22.1815 926.553 20.4359 923.985 22.0754L911.049 30.3878C908.488 32.0962 908.659 35.8703 911.393 37.3096Z" fill="#90D1CF"/>
<path d="M883.807 9.54706C873.127 10.1996 859.778 25.5169 853.941 32.8748C852.166 35.0882 852.346 38.3046 854.315 40.3848C860.839 47.1837 875.59 61.0813 886.301 60.7038C900.435 59.8107 919.143 33.4299 919.143 33.4299C919.143 33.4299 897.949 9.03595 883.807 9.54706Z" fill="#90D1CF"/>
<path d="M871.178 37.7302C872.295 38.6259 873.927 38.4465 874.822 37.3295C875.718 36.2124 875.539 34.5807 874.422 33.685C873.304 32.7892 871.673 32.9687 870.777 34.0857C869.881 35.2028 870.061 36.8345 871.178 37.7302Z" fill="#F6F6EE"/>
<path d="M884.413 14.4218C884.413 14.4218 903.606 32.3199 884.635 54.4147" stroke="#F6F6EE" stroke-width="5" stroke-miterlimit="10" stroke-linecap="round"/>
<path d="M1081.31 37.3096L1094.99 44.3305C1097.68 45.7392 1100.93 43.642 1100.78 40.6319L1100.02 25.2298C1099.9 22.1815 1096.47 20.4359 1093.9 22.0754L1080.96 30.3878C1078.4 32.0962 1078.57 35.8703 1081.31 37.3096Z" fill="#90D1CF"/>
<path d="M1053.72 9.54706C1043.04 10.1996 1029.69 25.5169 1023.86 32.8748C1022.08 35.0882 1022.26 38.3046 1024.23 40.3848C1030.75 47.1837 1045.5 61.0813 1056.22 60.7038C1070.35 59.8107 1089.06 33.4299 1089.06 33.4299C1089.06 33.4299 1067.86 9.03595 1053.72 9.54706Z" fill="#90D1CF"/>
<path d="M1041.09 37.7302C1042.21 38.6259 1043.84 38.4465 1044.74 37.3295C1045.63 36.2124 1045.45 34.5807 1044.34 33.685C1043.22 32.7892 1041.59 32.9687 1040.69 34.0857C1039.8 35.2028 1039.98 36.8345 1041.09 37.7302Z" fill="#F6F6EE"/>
<path d="M1054.33 14.4218C1054.33 14.4218 1073.52 32.3199 1054.55 54.4147" stroke="#F6F6EE" stroke-width="5" stroke-miterlimit="10" stroke-linecap="round"/>
<path d="M1251.22 37.3096L1264.9 44.3305C1267.6 45.7392 1270.85 43.642 1270.69 40.6319L1269.94 25.2298C1269.81 22.1815 1266.38 20.4359 1263.81 22.0754L1250.88 30.3878C1248.32 32.0962 1248.49 35.8703 1251.22 37.3096Z" fill="#90D1CF"/>
<path d="M1223.64 9.54706C1212.96 10.1996 1199.61 25.5169 1193.77 32.8748C1192 35.0882 1192.18 38.3046 1194.14 40.3848C1200.67 47.1837 1215.42 61.0813 1226.13 60.7038C1240.26 59.8107 1258.97 33.4299 1258.97 33.4299C1258.97 33.4299 1237.78 9.03595 1223.64 9.54706Z" fill="#90D1CF"/>
<path d="M1211.01 37.7302C1212.12 38.6259 1213.76 38.4465 1214.65 37.3295C1215.55 36.2124 1215.37 34.5807 1214.25 33.685C1213.13 32.7892 1211.5 32.9687 1210.61 34.0857C1209.71 35.2028 1209.89 36.8345 1211.01 37.7302Z" fill="#F6F6EE"/>
<path d="M1224.24 14.4218C1224.24 14.4218 1243.44 32.3199 1224.46 54.4147" stroke="#F6F6EE" stroke-width="5" stroke-miterlimit="10" stroke-linecap="round"/>
<path d="M61.6487 37.3096L75.3307 44.3305C78.0259 45.7392 81.275 43.642 81.118 40.6319L80.3638 25.2298C80.2374 22.1815 76.8093 20.4359 74.2406 22.0754L61.3051 30.3878C58.744 32.0962 58.9154 35.8703 61.6487 37.3096Z" fill="#90D1CF"/>
<path d="M34.0634 9.54706C23.3827 10.1996 10.0344 25.5169 4.19719 32.8748C2.42232 35.0882 2.60203 38.3046 4.57066 40.3848C11.0947 47.1837 25.8461 61.0813 36.5571 60.7038C50.6911 59.8107 69.3995 33.4299 69.3995 33.4299C69.3995 33.4299 48.2047 9.03595 34.0634 9.54706Z" fill="#90D1CF"/>
<path d="M21.4338 37.7302C22.5509 38.6259 24.1826 38.4465 25.0783 37.3295C25.974 36.2124 25.7946 34.5807 24.6775 33.685C23.5605 32.7892 21.9288 32.9687 21.033 34.0857C20.1373 35.2028 20.3168 36.8345 21.4338 37.7302Z" fill="#F6F6EE"/>
<path d="M34.6688 14.4218C34.6688 14.4218 53.8619 32.3199 34.8909 54.4147" stroke="#F6F6EE" stroke-width="5" stroke-miterlimit="10" stroke-linecap="round"/>
</svg>
