<?xml version="1.0" encoding="utf-8"?>
<!-- Generator: Adobe Illustrator 22.0.0, SVG Export Plug-In . SVG Version: 6.00 Build 0)  -->
<svg version="1.1" id="圖層_1" xmlns="http://www.w3.org/2000/svg" xmlns:xlink="http://www.w3.org/1999/xlink" x="0px" y="0px"
	 viewBox="0 0 45 45" style="enable-background:new 0 0 45 45;" xml:space="preserve">
<path d="M26.2,24.6c0.5,0,0.8,0.2,1.2,0.7c0.3,0.4,0.5,1,0.5,1.6c0,0.6-0.2,1.2-0.5,1.6c-0.3,0.4-0.7,0.7-1.2,0.7
	c-0.5,0-0.9-0.2-1.2-0.7c-0.3-0.4-0.5-1-0.5-1.6c0-0.7,0.2-1.2,0.5-1.6C25.3,24.9,25.7,24.6,26.2,24.6z M32.1,18.6
	c1.3,1.4,1.9,3,1.9,5c0,1.3-0.1,2.4-0.4,3.4c-0.3,1-0.7,1.8-1.1,2.5c-0.5,0.6-1,1.2-1.7,1.7c-0.6,0.4-1.2,0.8-1.8,1
	c-0.6,0.2-1.3,0.4-1.9,0.5c-0.5,0.1-1.1,0.2-1.6,0.2l-1.2,0l-0.9,0c-0.9,0-1.7,0-2.6,0l-0.9,0l-1.2,0c-0.5,0-1.1-0.1-1.6-0.2
	c-0.7-0.1-1.3-0.3-1.9-0.5c-0.7-0.3-1.3-0.6-1.8-1c-0.6-0.5-1.2-1-1.7-1.7c-0.4-0.6-0.8-1.5-1.1-2.5c-0.3-1-0.4-2.1-0.4-3.4
	c0-2,0.6-3.6,1.9-5c-0.1-0.1-0.1-0.8,0-2.1c0.1-1.2,0.4-2.4,0.8-3.6c1.6,0.2,3.6,1.1,6,2.7c0.8-0.2,1.9-0.3,3.3-0.3
	c1.5,0,2.6,0.1,3.3,0.3c1.1-0.7,2.1-1.3,3.1-1.7c1-0.4,1.7-0.7,2.2-0.8l0.7-0.2c0.5,1.1,0.7,2.3,0.9,3.6
	C32.2,17.9,32.2,18.6,32.1,18.6z M22.1,31.8c2.9,0,5.1-0.3,6.6-1c1.5-0.7,2.2-2.1,2.2-4.2c0-1.2-0.5-2.3-1.4-3.1
	c-0.5-0.4-1.1-0.7-1.7-0.8c-0.6-0.1-1.6-0.1-2.9,0c-1.3,0.1-2.2,0.2-2.7,0.2c-0.7,0-1.4,0-2.3-0.1c-0.9-0.1-1.6-0.1-2.1-0.1
	c-0.6,0-1.1,0.1-1.6,0.2c-0.5,0.1-1,0.4-1.5,0.7c-0.9,0.8-1.4,1.8-1.4,3.1c0,2.1,0.7,3.5,2.2,4.2c1.5,0.7,3.6,1,6.5,1H22.1z
	 M17.9,24.6c0.5,0,0.8,0.2,1.2,0.7c0.3,0.4,0.5,1,0.5,1.6c0,0.6-0.2,1.2-0.5,1.6c-0.3,0.4-0.7,0.7-1.2,0.7c-0.5,0-0.9-0.2-1.2-0.7
	c-0.3-0.4-0.5-1-0.5-1.6c0-0.7,0.2-1.2,0.5-1.6C17,24.9,17.4,24.6,17.9,24.6z"/>
</svg>
