<?xml version="1.0" encoding="utf-8"?>
<!-- Generator: Adobe Illustrator 22.0.0, SVG Export Plug-In . SVG Version: 6.00 Build 0)  -->
<svg version="1.1" id="圖層_1" xmlns="http://www.w3.org/2000/svg" xmlns:xlink="http://www.w3.org/1999/xlink" x="0px" y="0px"
	 viewBox="0 0 45 45" style="enable-background:new 0 0 45 45;" xml:space="preserve">
<path d="M30,19l-8,5l-8-5v-2l8,5l8-5 M30,15H14c-1.1,0-2,0.9-2,2v12c0,0.5,0.2,1,0.6,1.4C13,30.8,13.5,31,14,31h16
	c0.5,0,1-0.2,1.4-0.6C31.8,30,32,29.5,32,29V17c0-0.5-0.2-1-0.6-1.4C31,15.2,30.5,15,30,15z"/>
</svg>
